<svg width="150" height="150" viewBox="0 0 150 150" fill="none" xmlns="http://www.w3.org/2000/svg">
<g style="mix-blend-mode:multiply" opacity="0.46">
<path d="M74 142.23C107.137 142.23 134 139.716 134 136.615C134 133.514 107.137 131 74 131C40.8629 131 14 133.514 14 136.615C14 139.716 40.8629 142.23 74 142.23Z" fill="#CACACA"/>
</g>
<path d="M111.571 21.8242H38.2998C36.521 21.8242 35.0791 23.2662 35.0791 25.0449V131.746C35.0791 133.525 36.521 134.966 38.2998 134.966H111.571C113.349 134.966 114.791 133.525 114.791 131.746V25.0449C114.791 23.2662 113.349 21.8242 111.571 21.8242Z" fill="#182D64"/>
<path d="M111.57 134.967L111.818 134.95C112.061 134.929 112.301 134.883 112.535 134.812C112.917 134.69 113.273 134.499 113.587 134.25C114.019 133.896 114.352 133.437 114.555 132.916C114.678 132.606 114.748 132.277 114.763 131.943C114.782 131.591 114.763 131.217 114.763 130.818C114.763 130.039 114.763 129.184 114.763 128.258C114.763 126.405 114.763 124.27 114.763 121.865C114.763 112.245 114.749 98.3245 114.74 81.127C114.74 72.5282 114.74 63.1082 114.74 52.9989C114.74 47.9359 114.74 42.7116 114.74 37.326C114.74 34.6351 114.74 31.9029 114.74 29.1295C114.74 27.7456 114.74 26.3523 114.74 24.9496C114.721 24.2529 114.47 23.5825 114.026 23.0445C113.583 22.5066 112.973 22.1317 112.293 21.9793C111.949 21.9119 111.597 21.8854 111.247 21.9006H38.3079C37.4995 21.8982 36.7215 22.2077 36.1357 22.7647C35.5499 23.3217 35.2015 24.0832 35.1631 24.8906C35.1463 26.5136 35.1631 28.145 35.1631 29.7624V39.4187C35.1631 45.8094 35.1631 52.1016 35.1631 58.2954C35.1631 70.6718 35.1631 82.6093 35.1631 93.9815C35.1631 105.354 35.1631 116.158 35.1631 126.272V130.044C35.1631 130.666 35.1631 131.288 35.1631 131.898C35.1838 132.503 35.3792 133.089 35.7257 133.586C36.0729 134.074 36.5505 134.456 37.104 134.686C37.3744 134.795 37.6581 134.869 37.9478 134.905C38.2291 134.93 38.5413 134.925 38.8395 134.925H42.4005H55.9019L96.637 134.947L107.711 134.964H110.591H111.573H110.591H107.711L96.637 134.978L55.9019 135.001H42.4005H38.8423C38.5441 135.001 38.246 135.001 37.9366 134.978C37.6317 134.942 37.3328 134.867 37.0477 134.753C36.4737 134.513 35.9786 134.116 35.6188 133.608C35.2546 133.096 35.0474 132.489 35.0225 131.862C35.0225 131.24 35.0225 130.624 35.0225 130.002V126.272C35.0225 116.146 35.0225 105.351 35.0225 93.9815C35.0225 82.6121 35.0225 70.6718 35.0225 58.2954C35.0225 52.1073 35.0225 45.815 35.0225 39.4187V29.7624C35 28.1422 35 26.5333 35 24.8821C35.0434 24.0352 35.4112 23.2375 36.0271 22.6545C36.6431 22.0716 37.4598 21.7482 38.3079 21.7515H111.227C111.588 21.7376 111.95 21.7659 112.304 21.8359C113.013 21.9956 113.649 22.3861 114.111 22.9461C114.574 23.5061 114.838 24.2039 114.861 24.93C114.861 26.3345 114.861 27.7287 114.861 29.1126C114.861 31.8841 114.861 34.6163 114.861 37.3091C114.861 42.6966 114.861 47.9209 114.861 52.9821C114.861 63.0941 114.861 72.5142 114.861 81.1101C114.861 98.3076 114.844 112.228 114.839 121.848C114.839 124.253 114.839 126.388 114.839 128.241C114.839 129.167 114.839 130.022 114.839 130.801C114.839 131.192 114.839 131.563 114.839 131.926C114.822 132.263 114.749 132.595 114.622 132.908C114.417 133.431 114.08 133.893 113.643 134.247C113.135 134.661 112.511 134.905 111.857 134.947L111.57 134.967Z" fill="#263238"/>
<g opacity="0.3">
<path d="M42.6396 132.156L109.483 131.79L110.248 118.877L108.2 111.088L42.032 121.428L42.6396 132.156Z" fill="black"/>
</g>
<path d="M111.57 134.967L111.818 134.95C112.061 134.929 112.301 134.883 112.535 134.812C112.917 134.69 113.273 134.499 113.587 134.25C114.019 133.896 114.352 133.437 114.555 132.916C114.678 132.606 114.748 132.277 114.763 131.943C114.782 131.591 114.763 131.217 114.763 130.818C114.763 130.039 114.763 129.184 114.763 128.258C114.763 126.405 114.763 124.27 114.763 121.865C114.763 112.245 114.749 98.3245 114.74 81.127C114.74 72.5282 114.74 63.1082 114.74 52.9989C114.74 47.9359 114.74 42.7116 114.74 37.326C114.74 34.6351 114.74 31.9029 114.74 29.1295C114.74 27.7456 114.74 26.3523 114.74 24.9496C114.721 24.2529 114.47 23.5825 114.026 23.0445C113.583 22.5066 112.973 22.1317 112.293 21.9793C111.949 21.9119 111.597 21.8854 111.247 21.9006H38.3079C37.4995 21.8982 36.7215 22.2077 36.1357 22.7647C35.5499 23.3217 35.2015 24.0832 35.1631 24.8906C35.1463 26.5136 35.1631 28.145 35.1631 29.7624V39.4187C35.1631 45.8094 35.1631 52.1016 35.1631 58.2954C35.1631 70.6718 35.1631 82.6093 35.1631 93.9815C35.1631 105.354 35.1631 116.158 35.1631 126.272V130.044C35.1631 130.666 35.1631 131.288 35.1631 131.898C35.1838 132.503 35.3792 133.089 35.7257 133.586C36.0729 134.074 36.5505 134.456 37.104 134.686C37.3744 134.795 37.6581 134.869 37.9478 134.905C38.2291 134.93 38.5413 134.925 38.8395 134.925H42.4005H55.9019L96.637 134.947L107.711 134.964H110.591H111.573H110.591H107.711L96.637 134.978L55.9019 135.001H42.4005H38.8423C38.5441 135.001 38.246 135.001 37.9366 134.978C37.6317 134.942 37.3328 134.867 37.0477 134.753C36.4737 134.513 35.9786 134.116 35.6188 133.608C35.2546 133.096 35.0474 132.489 35.0225 131.862C35.0225 131.24 35.0225 130.624 35.0225 130.002V126.272C35.0225 116.146 35.0225 105.351 35.0225 93.9815C35.0225 82.6121 35.0225 70.6718 35.0225 58.2954C35.0225 52.1073 35.0225 45.815 35.0225 39.4187V29.7624C35 28.1422 35 26.5333 35 24.8821C35.0434 24.0352 35.4112 23.2375 36.0271 22.6545C36.6431 22.0716 37.4598 21.7482 38.3079 21.7515H111.227C111.588 21.7376 111.95 21.7659 112.304 21.8359C113.013 21.9956 113.649 22.3861 114.111 22.9461C114.574 23.5061 114.838 24.2039 114.861 24.93C114.861 26.3345 114.861 27.7287 114.861 29.1126C114.861 31.8841 114.861 34.6163 114.861 37.3091C114.861 42.6966 114.861 47.9209 114.861 52.9821C114.861 63.0941 114.861 72.5142 114.861 81.1101C114.861 98.3076 114.844 112.228 114.839 121.848C114.839 124.253 114.839 126.388 114.839 128.241C114.839 129.167 114.839 130.022 114.839 130.801C114.839 131.192 114.839 131.563 114.839 131.926C114.822 132.263 114.749 132.595 114.622 132.908C114.417 133.431 114.08 133.893 113.643 134.247C113.135 134.661 112.511 134.905 111.857 134.947L111.57 134.967Z" fill="#182D64"/>
<g opacity="0.3">
<path d="M42.6396 132.156L109.483 131.79L110.248 118.877L108.2 111.088L42.032 121.428L42.6396 132.156Z" fill="black"/>
</g>
<path d="M110.754 26.3828H39.1123V129.624H110.754V26.3828Z" fill="white"/>
<path d="M110.757 129.625C110.757 129.029 110.729 87.3121 110.69 26.3952L110.757 26.4627H39.121L39.1941 26.3895C39.1941 65.1584 39.1941 100.979 39.1801 129.619L39.121 129.56L110.766 129.619L39.121 129.679H39.0619V129.619C39.0619 100.968 39.0619 65.1472 39.0479 26.3895V26.3164H39.1294H110.766H110.831V26.3839C110.783 87.3121 110.757 129.029 110.757 129.625Z" fill="#263238"/>
<path d="M93.9873 32.1641H58.0537V35.4832H93.9873V32.1641Z" fill="#FF725E"/>
<path d="M58.8137 39.9277H43.1436V43.2468H58.8137V39.9277Z" fill="#E0E0E0"/>
<path d="M74.5513 45.834H43.1436V49.1531H74.5513V45.834Z" fill="#F5F5F5"/>
<path d="M92.2662 50.4395H60.8584V53.7586H92.2662V50.4395Z" fill="#F5F5F5"/>
<path d="M58.0852 50.3711H43.1436V53.6902H58.0852V50.3711Z" fill="#F5F5F5"/>
<path d="M92.4006 45.7305H77.459V49.0496H92.4006V45.7305Z" fill="#F5F5F5"/>
<path d="M105.427 45.7305H94.0605V49.0496H105.427V45.7305Z" fill="#F5F5F5"/>
<path d="M105.427 50.4277H94.0605V53.7468H105.427V50.4277Z" fill="#F5F5F5"/>
<path d="M105.121 100.574H43.1436V104.355H105.121V100.574Z" fill="#E0E0E0"/>
<path d="M105.121 56.2246H43.1436V60.005H105.121V56.2246Z" fill="#E0E0E0"/>
<path d="M67.8625 82.7598H43.1436V86.5402H67.8625V82.7598Z" fill="#E0E0E0"/>
<path d="M105.798 82.7598H74.8936V86.5402H105.798V82.7598Z" fill="#E0E0E0"/>
<path d="M67.8423 88.8445C67.8423 88.8895 62.3123 88.9233 55.4941 88.9233C48.6759 88.9233 43.1571 88.8895 43.1571 88.8445C43.1571 88.7995 48.6871 88.7657 55.5082 88.7657C62.3292 88.7657 67.8423 88.7995 67.8423 88.8445Z" fill="#263238"/>
<path d="M67.4317 91.7467C67.4317 91.7917 61.9946 91.8255 55.2889 91.8255C48.5831 91.8255 43.1572 91.7889 43.1572 91.7467C43.1572 91.7045 48.5944 91.668 55.3029 91.668C62.0115 91.668 67.4317 91.7017 67.4317 91.7467Z" fill="#263238"/>
<path d="M67.6286 94.6988C67.6286 94.7438 62.1465 94.7775 55.3817 94.7775C48.6169 94.7775 43.1572 94.7438 43.1572 94.6988C43.1572 94.6538 48.6422 94.6172 55.407 94.6172C62.1718 94.6172 67.6286 94.6538 67.6286 94.6988Z" fill="#263238"/>
<path d="M67.6286 97.5612C67.6286 97.6062 62.1465 97.6399 55.3817 97.6399C48.6169 97.6399 43.1572 97.6062 43.1572 97.5612C43.1572 97.5162 48.6422 97.4824 55.407 97.4824C62.1718 97.4824 67.6286 97.5162 67.6286 97.5612Z" fill="#263238"/>
<path d="M105.32 89.5395C105.32 89.5845 99.5931 89.6182 92.5302 89.6182C85.4672 89.6182 79.7403 89.5845 79.7403 89.5395C79.7403 89.4944 85.4644 89.4607 92.5302 89.4607C99.5959 89.4607 105.32 89.4804 105.32 89.5395Z" fill="#263238"/>
<path d="M77.7769 90.4497C77.755 90.2734 77.7438 90.0958 77.7432 89.9181C77.7432 89.5918 77.715 89.139 77.7094 88.5989L77.7769 88.6692H76.0133L76.0892 88.5905V89.0883C76.0892 89.2487 76.0892 89.409 76.0892 89.5665C76.0892 89.8731 76.0892 90.1656 76.0892 90.4385L76.0217 90.3682C76.5365 90.3682 76.9668 90.3907 77.279 90.4047C77.4484 90.4054 77.6175 90.4167 77.7854 90.4385C77.6319 90.4632 77.4766 90.4745 77.3212 90.4722C77.0146 90.4863 76.5646 90.5004 76.0217 90.5088H75.957V90.4385C75.957 90.1572 75.957 89.8759 75.957 89.5665V89.0883C75.957 89.0068 75.957 88.9224 75.957 88.8408V88.5905L76.033 88.5117H77.7966H77.8613V88.5792C77.8613 89.1418 77.8388 89.6228 77.8275 89.9434C77.8241 90.1133 77.8071 90.2826 77.7769 90.4497Z" fill="#263238"/>
<path d="M105.32 93.0808C105.32 93.1258 99.5931 93.1596 92.5302 93.1596C85.4672 93.1596 79.7403 93.1258 79.7403 93.0808C79.7403 93.0358 85.4644 93.0021 92.5302 93.0021C99.5959 93.0021 105.32 93.0358 105.32 93.0808Z" fill="#263238"/>
<path d="M77.7774 94.0055C77.7594 93.8299 77.7519 93.6533 77.7549 93.4767C77.7549 93.1504 77.7268 92.6976 77.7211 92.1575L77.7886 92.2278H76.025L76.101 92.1491V92.6469C76.101 92.8073 76.101 92.9676 76.101 93.1251C76.101 93.4317 76.101 93.7242 76.101 93.9971L76.0334 93.9268C76.5482 93.9268 76.9786 93.9493 77.2908 93.9633C77.4601 93.964 77.6292 93.9753 77.7971 93.9971C77.6436 94.0218 77.4884 94.033 77.333 94.0308C77.0264 94.0449 76.5763 94.059 76.0334 94.0674H75.9688V93.9971C75.9688 93.7158 75.9688 93.4345 75.9688 93.1251V92.6469C75.9688 92.5625 75.9688 92.481 75.9688 92.3994V92.1491L76.0447 92.0703H77.8083H77.873V92.1378C77.873 92.7004 77.8505 93.1814 77.8393 93.502C77.8319 93.6712 77.8112 93.8396 77.7774 94.0055Z" fill="#263238"/>
<path d="M105.32 96.6354C105.32 96.6804 99.593 96.7142 92.5301 96.7142C85.4671 96.7142 79.7402 96.6804 79.7402 96.6354C79.7402 96.5904 85.4643 96.5566 92.5301 96.5566C99.5958 96.5566 105.32 96.5904 105.32 96.6354Z" fill="#263238"/>
<path d="M77.7769 97.5611C77.755 97.3848 77.7438 97.2072 77.7432 97.0295C77.7432 96.7032 77.715 96.2504 77.7094 95.7103L77.7769 95.7806H76.0133L76.0892 95.7019V96.1997C76.0892 96.3601 76.0892 96.5204 76.0892 96.6779C76.0892 96.9845 76.0892 97.2771 76.0892 97.5499L76.0217 97.4796C76.5365 97.4796 76.9668 97.5021 77.279 97.5161C77.4484 97.5168 77.6175 97.5281 77.7854 97.5499C77.6319 97.5746 77.4766 97.5859 77.3212 97.5836C77.0146 97.5977 76.5646 97.6118 76.0217 97.6202H75.957V97.5499C75.957 97.2686 75.957 96.9873 75.957 96.6779V96.1997C75.957 96.1154 75.957 96.0338 75.957 95.9522V95.7272L76.033 95.6484H77.7966H77.8613V95.7159C77.8613 96.2785 77.8388 96.7595 77.8275 97.0802C77.8228 97.2415 77.8058 97.4023 77.7769 97.5611Z" fill="#263238"/>
<path d="M104.249 79.9763C104.249 79.9763 104.249 79.8722 104.249 79.6753C104.249 79.4784 104.249 79.1774 104.249 78.7893C104.249 78.0073 104.249 76.8569 104.249 75.3605C104.249 72.3676 104.234 67.9965 104.223 62.4694L104.271 62.52L43.2247 62.5369L43.3007 62.4553V79.9763L43.2247 79.9003L86.8232 79.9341L99.6243 79.9566H103.067H103.962H104.268H103.97L103.07 79.9763H99.644L86.857 79.9988L43.2219 80.0353H43.1572V79.9763C43.1572 74.3507 43.1572 68.4944 43.1572 62.4694V62.3906H43.2388L104.277 62.4216H104.322V62.4694C104.322 68.0078 104.302 72.3901 104.296 75.3886C104.296 76.8822 104.296 78.0298 104.296 78.8062C104.296 79.1915 104.296 79.484 104.296 79.6837C104.296 79.8835 104.249 79.9763 104.249 79.9763Z" fill="#263238"/>
<path d="M104.248 66.8648C104.248 66.907 90.6232 66.9435 73.8195 66.9435C57.0158 66.9435 43.3906 66.907 43.3906 66.8648C43.3906 66.8226 57.013 66.7832 73.8195 66.7832C90.626 66.7832 104.248 66.8198 104.248 66.8648Z" fill="#263238"/>
<path d="M104.248 71.2116C104.248 71.2566 90.6232 71.2931 73.8195 71.2931C57.0158 71.2931 43.3906 71.2566 43.3906 71.2116C43.3906 71.1666 57.013 71.1328 73.8195 71.1328C90.626 71.1328 104.248 71.1694 104.248 71.2116Z" fill="#263238"/>
<path d="M104.248 75.607C104.248 75.6492 90.6232 75.6857 73.8195 75.6857C57.0158 75.6857 43.3906 75.6492 43.3906 75.607C43.3906 75.5648 57.013 75.5254 73.8195 75.5254C90.626 75.5254 104.248 75.562 104.248 75.607Z" fill="#263238"/>
<path d="M50.3133 80.1194C50.2711 80.1194 50.2373 76.159 50.2373 71.276C50.2373 66.3929 50.2711 62.4297 50.3133 62.4297C50.3554 62.4297 50.3892 66.3901 50.3892 71.276C50.3892 76.1618 50.3554 80.1194 50.3133 80.1194Z" fill="#263238"/>
<path d="M70.9509 79.5878C70.9088 79.5878 70.875 75.8045 70.875 71.1494C70.875 66.4942 70.9088 62.7109 70.9509 62.7109C70.9931 62.7109 71.0269 66.4913 71.0269 71.1494C71.0269 75.8074 71.0044 79.5878 70.9509 79.5878Z" fill="#263238"/>
<path d="M92.6961 80.3827C92.6539 80.3827 92.6201 76.4842 92.6201 71.6631C92.6201 66.8419 92.6539 62.9434 92.6961 62.9434C92.7383 62.9434 92.772 66.8447 92.772 71.6631C92.772 76.4814 92.7383 80.3827 92.6961 80.3827Z" fill="#263238"/>
<path d="M103.596 41.286C103.596 41.3282 94.2775 41.3592 82.7815 41.3592C71.2856 41.3592 61.9668 41.3282 61.9668 41.286C61.9668 41.2438 71.2828 41.2129 82.7815 41.2129C94.2803 41.2129 103.596 41.2466 103.596 41.286Z" fill="#263238"/>
<path d="M74.2018 42.7626C74.2018 42.8048 71.4621 42.8357 68.0867 42.8357C64.7114 42.8357 61.9717 42.8048 61.9717 42.7626C61.9717 42.7204 64.7085 42.6895 68.0867 42.6895C71.4649 42.6895 74.2018 42.7232 74.2018 42.7626Z" fill="#263238"/>
<path d="M92.6204 107.563C92.6204 107.606 81.5436 107.636 67.8818 107.636C54.22 107.636 43.1572 107.606 43.1572 107.563C43.1572 107.521 54.2312 107.49 67.9099 107.49C81.5886 107.49 92.6204 107.524 92.6204 107.563Z" fill="#263238"/>
<path d="M83.347 110.047C83.3124 110.051 83.2775 110.051 83.2429 110.047H82.9391L81.769 110.061L77.4598 110.084L63.2467 110.106L49.0308 110.084L44.7244 110.073H43.5542H43.2476H43.1436C43.1782 110.069 43.213 110.069 43.2476 110.073H43.5542L44.7244 110.059L49.0308 110.036L63.2467 110.014L77.4598 110.036L81.769 110.059L82.9391 110.073H83.2429C83.2765 110.06 83.3114 110.052 83.347 110.047Z" fill="#263238"/>
<path d="M66.6023 112.532C66.5231 112.543 66.4432 112.548 66.3633 112.546H65.6797L63.1651 112.569L54.8729 112.605L46.5808 112.583L44.0662 112.56H43.3826C43.3027 112.562 43.2228 112.557 43.1436 112.546C43.2226 112.534 43.3026 112.528 43.3826 112.529H44.0662L46.5808 112.504L54.8729 112.484L63.1651 112.504L65.6797 112.529H66.3633C66.4429 112.523 66.5229 112.524 66.6023 112.532Z" fill="#263238"/>
<path d="M63.1279 118.38C63.1279 118.422 59.429 118.455 54.8667 118.455C50.3043 118.455 46.6055 118.422 46.6055 118.38C46.6055 118.337 50.3043 118.301 54.8667 118.301C59.429 118.301 63.1279 118.335 63.1279 118.38Z" fill="#263238"/>
<path d="M97.3683 124.753C97.3683 124.753 97.4217 124.66 97.5033 124.471C97.6124 124.204 97.6614 123.916 97.6468 123.628C97.6123 123.167 97.537 122.711 97.4217 122.263C97.2527 121.662 97.2153 121.032 97.312 120.415C97.4036 120.045 97.5717 119.697 97.8057 119.395C98.0397 119.093 98.3343 118.844 98.6706 118.663C99.0648 118.46 99.5046 118.361 99.9478 118.377C100.391 118.392 100.823 118.52 101.202 118.75C101.619 118.988 101.959 119.339 102.184 119.763C102.302 119.991 102.344 120.251 102.305 120.505C102.278 120.641 102.209 120.764 102.108 120.857C102.007 120.951 101.879 121.01 101.742 121.026C101.491 121.05 101.238 121.055 100.986 121.043H100.229C99.7226 121.043 99.2051 121.009 98.6847 120.961C97.6661 120.884 96.6629 120.667 95.7031 120.317C95.2474 120.162 94.758 120.036 94.3474 120.238C93.9367 120.441 93.6638 120.82 93.3207 121.127C93.1527 121.293 92.9427 121.411 92.7131 121.467C92.4809 121.511 92.2407 121.468 92.038 121.346C91.7024 121.096 91.3924 120.814 91.1126 120.503C90.9808 120.366 90.8203 120.26 90.6429 120.193C90.4766 120.136 90.2959 120.138 90.131 120.199C89.8271 120.373 89.5574 120.601 89.3349 120.871C89.1106 121.094 88.8357 121.26 88.5336 121.355C88.2315 121.449 87.911 121.47 87.5994 121.414C87.1286 121.329 86.7085 121.066 86.4265 120.68C86.2486 120.441 86.1292 120.163 86.0777 119.87C86.059 119.768 86.0533 119.664 86.0608 119.56C86.0608 119.56 86.0608 119.667 86.1086 119.861C86.1721 120.145 86.2969 120.412 86.4743 120.643C86.7512 121.003 87.1526 121.245 87.5994 121.324C87.8962 121.372 88.2002 121.348 88.486 121.255C88.7718 121.161 89.031 121.001 89.2421 120.787C89.4715 120.503 89.752 120.264 90.0691 120.083C90.2606 120.004 90.4741 119.996 90.671 120.061C90.8643 120.134 91.0398 120.247 91.1858 120.393C91.4603 120.697 91.7647 120.973 92.0943 121.217C92.2631 121.319 92.4629 121.355 92.6569 121.321C92.861 121.267 93.0474 121.161 93.1969 121.012C93.526 120.73 93.796 120.311 94.2573 120.092C94.4902 119.992 94.7457 119.956 94.9971 119.988C95.2445 120.02 95.4877 120.079 95.7228 120.162C96.6719 120.507 97.6637 120.721 98.6706 120.798C99.1854 120.846 99.7001 120.865 100.206 120.88H100.96C101.203 120.891 101.446 120.886 101.689 120.865C101.796 120.856 101.897 120.812 101.976 120.74C102.056 120.668 102.11 120.572 102.13 120.466C102.162 120.244 102.124 120.018 102.021 119.819C101.81 119.421 101.491 119.091 101.101 118.866C100.744 118.649 100.338 118.527 99.9206 118.51C99.5034 118.493 99.0888 118.583 98.7156 118.77C98.3929 118.941 98.1093 119.177 97.8831 119.464C97.6569 119.751 97.4931 120.081 97.4021 120.435C97.3035 121.036 97.3342 121.65 97.4921 122.238C97.6012 122.691 97.668 123.154 97.6918 123.619C97.7013 123.917 97.6406 124.213 97.5146 124.483C97.4768 124.578 97.4277 124.669 97.3683 124.753Z" fill="#263238"/>
<path d="M105.933 121.771C105.866 121.782 105.798 121.787 105.731 121.785H105.151L103.016 121.805C101.213 121.819 98.7238 121.853 95.9842 121.934C93.2445 122.016 90.7467 122.126 88.9522 122.216L86.82 122.32L86.2406 122.345C86.1733 122.352 86.1054 122.352 86.0381 122.345C86.1036 122.329 86.1705 122.32 86.2378 122.317L86.8172 122.264C87.3179 122.221 88.0464 122.165 88.9465 122.109C90.7467 121.991 93.2361 121.861 95.9785 121.78C98.721 121.698 101.222 121.684 103.025 121.698C103.925 121.698 104.656 121.715 105.16 121.729L105.739 121.749C105.804 121.749 105.869 121.757 105.933 121.771Z" fill="#263238"/>
<path d="M71.4201 119.501L69.6649 119.948L69.544 120.837L68.3457 121.141L69.1277 116.525L70.2838 116.244L73.1725 119.917L71.9518 120.227L71.4201 119.501ZM70.8576 118.725L69.9884 117.532L69.7915 118.995L70.8576 118.725Z" fill="#FF725E"/>
<path d="M76.5844 116.26C76.8235 117.203 76.2609 117.971 75.1274 118.258L74.4045 118.44L74.6857 119.526L73.51 119.824L72.458 115.673L74.3567 115.192C75.4818 114.913 76.3481 115.321 76.5844 116.26ZM75.3974 116.561C75.2989 116.176 75.0008 115.999 74.5142 116.134L73.8616 116.3L74.171 117.515L74.8208 117.349C75.3074 117.236 75.5043 116.95 75.3974 116.57V116.561Z" fill="#FF725E"/>
<path d="M80.8941 115.174C81.1332 116.117 80.5706 116.884 79.437 117.171L78.7142 117.357L78.9954 118.44L77.8225 118.738L76.7705 114.589L78.6663 114.108C79.7943 113.821 80.655 114.226 80.8941 115.174ZM79.724 115.475C79.6255 115.09 79.3245 114.927 78.8379 115.05L78.1853 115.216L78.4948 116.432L79.1473 116.266C79.6199 116.142 79.8055 115.855 79.724 115.475Z" fill="#FF725E"/>
<path d="M83.661 116.085L83.0197 116.248L83.301 117.351L82.1252 117.646L81.0732 113.497L82.9719 113.016C84.097 112.735 84.9634 113.134 85.2053 114.085C85.2855 114.357 85.2826 114.646 85.1969 114.917C85.1111 115.187 84.9466 115.425 84.7243 115.601L85.9506 116.678L84.6933 116.996L83.661 116.085ZM83.135 113.958L82.4825 114.124L82.7891 115.339L83.4416 115.174C83.9282 115.053 84.1139 114.766 84.0182 114.386C83.9226 114.006 83.6216 113.835 83.135 113.958Z" fill="#FF725E"/>
<path d="M85.7738 114.514C85.4588 113.268 86.207 112.106 87.5346 111.769C88.8623 111.431 90.0662 112.098 90.3868 113.344C90.7075 114.59 89.9565 115.749 88.6288 116.087C87.3012 116.424 86.0888 115.757 85.7738 114.514ZM89.1998 113.645C89.1319 113.43 89.0024 113.239 88.8273 113.096C88.6522 112.954 88.4391 112.865 88.2145 112.843C87.9898 112.82 87.7633 112.863 87.5631 112.967C87.3628 113.072 87.1975 113.232 87.0875 113.43C86.9775 113.627 86.9278 113.852 86.9443 114.077C86.9609 114.303 87.043 114.518 87.1806 114.697C87.3182 114.876 87.5053 115.011 87.7186 115.085C87.932 115.159 88.1624 115.169 88.3813 115.113C88.5347 115.076 88.6788 115.008 88.8045 114.912C88.9302 114.817 89.0347 114.696 89.1116 114.558C89.1885 114.42 89.236 114.268 89.2512 114.111C89.2663 113.954 89.2489 113.795 89.1998 113.645Z" fill="#FF725E"/>
<path d="M94.5442 110.072L93.8185 114.674L92.6624 114.955L89.8496 111.254L91.1182 110.933L92.9296 113.349L93.3937 110.356L94.5442 110.072Z" fill="#FF725E"/>
<path d="M98.9434 112.416L99.1712 113.325L95.8408 114.168L94.7888 110.02L98.0433 109.195L98.2739 110.101L96.1812 110.636L96.3584 111.333L98.2008 110.866L98.423 111.744L96.5806 112.211L96.7719 112.97L98.9434 112.416Z" fill="#FF725E"/>
<path d="M98.7715 109.01L100.74 108.512C102.116 108.163 103.272 108.723 103.584 110C103.896 111.277 103.168 112.312 101.792 112.661L99.8235 113.159L98.7715 109.01ZM101.503 111.735C101.661 111.709 101.811 111.649 101.944 111.56C102.077 111.471 102.19 111.355 102.274 111.219C102.358 111.083 102.413 110.93 102.434 110.771C102.454 110.613 102.441 110.451 102.394 110.298C102.212 109.581 101.629 109.283 100.926 109.454L100.184 109.643L100.746 111.918L101.503 111.735Z" fill="#FF725E"/>
<path d="M67.8315 124.466C67.3066 124.463 66.7972 124.288 66.3823 123.966C65.9673 123.645 65.6699 123.196 65.5363 122.688L64.1299 117.344C63.9711 116.736 64.0595 116.09 64.3758 115.547C64.6921 115.004 65.2104 114.608 65.8175 114.447L102.103 104.99C102.408 104.906 102.726 104.883 103.04 104.924C103.354 104.965 103.656 105.067 103.93 105.226C104.203 105.385 104.442 105.597 104.633 105.85C104.823 106.103 104.962 106.391 105.039 106.697L106.446 112.042C106.606 112.65 106.518 113.296 106.202 113.84C105.885 114.383 105.366 114.778 104.758 114.939L68.4728 124.396C68.2633 124.449 68.0475 124.472 67.8315 124.466ZM102.73 105.758C102.599 105.757 102.469 105.773 102.342 105.806L66.0566 115.265C65.862 115.315 65.6791 115.403 65.5186 115.524C65.358 115.645 65.2229 115.797 65.121 115.97C65.0191 116.143 64.9524 116.335 64.9247 116.534C64.897 116.733 64.9089 116.936 64.9596 117.13L66.366 122.474C66.4151 122.669 66.5028 122.853 66.6241 123.013C66.7454 123.174 66.8977 123.308 67.072 123.408C67.2449 123.511 67.4363 123.578 67.6352 123.606C67.8341 123.634 68.0365 123.622 68.2309 123.571L104.516 114.112C104.71 114.062 104.893 113.973 105.053 113.852C105.214 113.731 105.348 113.58 105.45 113.406C105.552 113.233 105.618 113.042 105.646 112.843C105.673 112.644 105.661 112.441 105.61 112.247L104.218 106.903C104.133 106.575 103.941 106.285 103.673 106.078C103.406 105.871 103.077 105.758 102.738 105.758H102.73Z" fill="#FF725E"/>
<path d="M60.093 19.0078H93.27C93.7423 19.0078 94.1951 19.1954 94.529 19.5293C94.8629 19.8632 95.0505 20.3161 95.0505 20.7883V29.6627H58.3125V20.7855C58.3132 20.3138 58.5012 19.8616 58.835 19.5283C59.1688 19.195 59.6213 19.0078 60.093 19.0078Z" fill="#F4EE80"/>
<path d="M81.3546 15H72.0049L73.0991 23.0137H80.1423L81.3546 15Z" fill="#F4EE80"/>
<path d="M92.6872 19.0078C92.6872 19.05 85.5202 19.0838 76.6824 19.0838C67.8445 19.0838 60.6719 19.05 60.6719 19.0078C60.6719 18.9656 67.8389 18.9375 76.6824 18.9375C85.5258 18.9375 92.6872 18.9628 92.6872 19.0078Z" fill="#455A64"/>
<path d="M59.1364 27.9382C59.0942 27.9382 59.0576 26.4334 59.0576 24.5629C59.0576 22.6924 59.0942 21.1875 59.1364 21.1875C59.1786 21.1875 59.2123 22.6952 59.2123 24.5629C59.2123 26.4306 59.1898 27.9382 59.1364 27.9382Z" fill="#455A64"/>
<path d="M93.8603 27.1454C93.7826 26.1292 93.7582 25.1095 93.7872 24.0907C93.76 23.0709 93.7863 22.0503 93.8659 21.0332C93.9081 21.0332 93.9419 22.4002 93.9419 24.0907C93.9419 25.7812 93.9025 27.1454 93.8603 27.1454Z" fill="#455A64"/>
<path d="M92.1 28.5631C92.1 28.6053 84.7417 28.6391 75.6676 28.6391C66.5935 28.6391 59.2352 28.6053 59.2352 28.5631C59.2352 28.5209 66.5907 28.4844 75.6676 28.4844C84.7445 28.4844 92.1 28.5209 92.1 28.5631Z" fill="#455A64"/>
<g opacity="0.3">
<path d="M95.0476 22.0586L96.5693 26.5675V28.7756H94.8535L95.0476 22.0586Z" fill="black"/>
</g>
</svg>
