<svg width="150" height="150" viewBox="0 0 150 150" fill="none" xmlns="http://www.w3.org/2000/svg">
<g style="mix-blend-mode:multiply" opacity="0.46">
<path d="M75 126.074C108.137 126.074 135 123.56 135 120.459C135 117.358 108.137 114.844 75 114.844C41.8629 114.844 15 117.358 15 120.459C15 123.56 41.8629 126.074 75 126.074Z" fill="#CACACA"/>
</g>
<path d="M133.774 83.3672L99.6411 73.697L107.894 65.2941C98.7412 55.935 87.2965 44.1704 86.9923 43.6139C86.4896 42.6856 77.6012 60.956 77.6012 60.956L53.6283 34.2953L44.8682 45.9461L25.7266 24.4303L43.5988 36.673L53.2538 24.0003L74.8085 46.0346L83.9985 27.1318L116.04 56.9974L124.909 47.9545L133.774 83.3672Z" fill="#FF5C5D"/>
<path d="M87.2099 76.4232C81.9263 67.3442 67.8022 71.4047 67.7491 71.4213C63.6853 76.6288 58.3651 84.6802 55.899 93.7825C51.623 109.544 56.8768 117.486 56.8768 117.486C56.8768 117.486 59.8104 123.599 76.9177 121.888C82.7516 121.305 88.0585 121.51 92.54 121.414C100.124 105.971 92.5036 85.5189 87.2099 76.4232Z" fill="#182D64"/>
<path d="M107.098 109.426C107.466 95.6197 94.7407 71.389 85.7147 65.3164H73.0458C71.1613 67.2485 69.3904 69.2883 67.7422 71.4255C67.7952 71.4255 81.9193 67.3483 87.203 76.4274C92.4867 85.5065 100.13 105.972 92.5331 121.418C101.238 121.233 106.82 119.903 107.098 109.426Z" fill="#0A1950"/>
<path d="M73.0455 65.316C73.0455 65.316 62.4384 49.7632 69.8999 50.0218C77.3613 50.2803 75.9824 52.9818 80.6628 52.4647C85.3432 51.9476 86.2481 48.6031 91.6511 50.6648C97.0542 52.7266 84.5742 66.7546 84.5742 66.7546L73.0455 65.316Z" fill="#182D64"/>
<path d="M84.1576 86.347C84.6385 86.347 85.0997 86.156 85.4397 85.816C85.7798 85.4759 85.9708 85.0147 85.9708 84.5339C85.9708 84.053 85.7798 83.5918 85.4397 83.2518C85.0997 82.9117 84.6385 82.7207 84.1576 82.7207H69.8247C69.3577 82.7407 68.9164 82.9403 68.593 83.2778C68.2696 83.6153 68.0891 84.0647 68.0891 84.5322C68.0891 84.9997 68.2696 85.4491 68.593 85.7866C68.9164 86.1241 69.3577 86.3237 69.8247 86.3437H73.935C74.7677 86.3397 75.5837 86.5771 76.2843 87.0272C76.9849 87.4772 77.5402 88.1206 77.8829 88.8795H69.8413C69.3743 88.8995 68.933 89.099 68.6096 89.4366C68.2862 89.7741 68.1057 90.2235 68.1057 90.691C68.1057 91.1584 68.2862 91.6078 68.6096 91.9454C68.933 92.2829 69.3743 92.4825 69.8413 92.5025H77.8829C77.5355 93.2579 76.9791 93.8981 76.2796 94.3474C75.58 94.7968 74.7664 95.0365 73.935 95.0383H69.8247C69.4618 95.0388 69.1074 95.1479 68.8071 95.3517C68.5069 95.5555 68.2745 95.8446 68.14 96.1816C68.0056 96.5187 67.9752 96.8883 68.0527 97.2428C68.1302 97.5974 68.3122 97.9205 68.5751 98.1707L78.8276 107.86C79.166 108.177 79.6132 108.353 80.0772 108.35C80.3245 108.349 80.569 108.298 80.7966 108.201C81.0242 108.105 81.2303 107.964 81.4031 107.787C81.5664 107.615 81.6941 107.412 81.779 107.191C81.8639 106.969 81.9043 106.733 81.8978 106.496C81.8914 106.259 81.8382 106.026 81.7413 105.809C81.6445 105.593 81.5059 105.397 81.3335 105.234L74.3726 98.6579C76.0911 98.5598 77.7319 97.9092 79.0507 96.803C80.3695 95.6968 81.2957 94.1942 81.6915 92.5191H84.1576C84.4021 92.5295 84.6461 92.4904 84.875 92.4041C85.1038 92.3178 85.3129 92.186 85.4895 92.0168C85.6662 91.8475 85.8067 91.6443 85.9028 91.4193C85.9988 91.1943 86.0483 90.9522 86.0483 90.7076C86.0483 90.4629 85.9988 90.2208 85.9028 89.9958C85.8067 89.7708 85.6662 89.5676 85.4895 89.3983C85.3129 89.2291 85.1038 89.0973 84.875 89.011C84.6461 88.9247 84.4021 88.8856 84.1576 88.8961H81.6782C81.4663 87.9939 81.0983 87.1358 80.591 86.3603H84.1576V86.347Z" fill="#E9F4F9"/>
<path d="M79.4663 121.683C79.4663 121.683 68.6072 121.683 65.7864 115.75C65.7864 115.75 65.256 120.42 69.5552 122.161C69.5718 122.167 77.1957 122.383 79.4663 121.683Z" fill="#3B448E"/>
<path d="M83.4014 61.7664C83.4014 61.7664 86.9581 56.4098 87.916 50.0024C87.916 50.0024 95.2515 49.3196 92.5567 54.9745C92.5567 54.9745 91.3832 58.687 86.8686 64.027L83.4014 61.7664Z" fill="#0A1950"/>
<path d="M73.1486 65.9004C72.8905 65.9042 72.6381 65.8243 72.4291 65.6729C72.22 65.5214 72.0656 65.3064 71.9888 65.0599C71.912 64.8135 71.9169 64.5488 72.0029 64.3054C72.0888 64.062 72.2512 63.8529 72.4658 63.7094C72.7144 63.5469 78.6544 59.7317 86.9147 62.6619C87.1989 62.7792 87.427 63.0014 87.5517 63.2825C87.6765 63.5635 87.6883 63.8817 87.5847 64.1712C87.4811 64.4606 87.2701 64.6991 86.9953 64.8372C86.7206 64.9752 86.4033 65.0022 86.1092 64.9126C79.019 62.3835 73.9906 65.5756 73.7817 65.7081C73.5929 65.8303 73.3735 65.8969 73.1486 65.9004Z" fill="#18186B"/>
<path d="M88.5229 67.8363C88.3886 67.8367 88.2553 67.8143 88.1285 67.77C77.7169 64.1238 71.0476 67.6573 70.9814 67.6938C70.7035 67.8364 70.3808 67.8647 70.0823 67.7727C69.7838 67.6807 69.5331 67.4755 69.3838 67.2012C69.2345 66.9268 69.1984 66.6049 69.2832 66.3043C69.3681 66.0037 69.5671 65.7481 69.8378 65.5922C70.146 65.4265 77.518 61.5284 88.9174 65.516C89.1839 65.6087 89.4089 65.7929 89.5525 66.0359C89.6961 66.2788 89.7489 66.5648 89.7016 66.843C89.6543 67.1212 89.51 67.3736 89.2942 67.5555C89.0784 67.7373 88.8051 67.8368 88.5229 67.8363Z" fill="#1C1980"/>
<path d="M81.3734 76.5268C81.2137 76.5275 81.0556 76.4948 80.9093 76.4307C80.7647 76.3698 80.6335 76.2811 80.5232 76.1695C80.413 76.0579 80.3258 75.9257 80.2667 75.7804C80.2076 75.635 80.1777 75.4795 80.1787 75.3226C80.1798 75.1657 80.2118 75.0106 80.2729 74.8661C83.3291 67.6499 80.7071 66.2213 80.6806 66.208L80.5579 66.1318L81.6286 64.0137C81.7645 64.07 82.9545 64.6037 83.6572 66.2876C84.5853 68.5482 84.1876 71.7469 82.4739 75.7976C82.3822 76.0136 82.229 76.198 82.0333 76.3277C81.8376 76.4573 81.6081 76.5266 81.3734 76.5268Z" fill="#1C1980"/>
<path d="M91.5058 79.9301C91.1916 79.9725 90.8733 79.8885 90.621 79.6964C90.3687 79.5044 90.2029 79.22 90.16 78.9058C89.8841 77.2814 89.4029 75.6987 88.7281 74.1956C87.2762 70.9472 85.2111 68.713 82.5925 67.5661C82.4491 67.5026 82.3196 67.4114 82.2114 67.2978C82.1032 67.1842 82.0184 67.0504 81.962 66.904C81.9055 66.7577 81.8784 66.6016 81.8822 66.4448C81.886 66.2879 81.9207 66.1334 81.9843 65.99C82.0478 65.8465 82.139 65.717 82.2526 65.6088C82.3662 65.5006 82.5 65.4159 82.6464 65.3594C82.7927 65.3029 82.9488 65.2758 83.1056 65.2797C83.2624 65.2835 83.417 65.3182 83.5604 65.3817C91.1147 68.7197 92.4737 78.1932 92.5301 78.5942C92.5697 78.9069 92.4843 79.2226 92.2926 79.4727C92.1008 79.7228 91.8181 79.8872 91.5058 79.9301Z" fill="#1C1980"/>
<path fill-rule="evenodd" clip-rule="evenodd" d="M27.1211 114.815C27.1211 114.815 45.793 113.751 64.4616 114.815H27.1211Z" fill="#F1E28E"/>
<path d="M27.1211 114.812V119.791H64.4616V114.812H27.1211Z" fill="#CA9A27"/>
<path d="M28.8027 121.363V114.037" stroke="#ECD757" stroke-width="1.87" stroke-miterlimit="10"/>
<path d="M31.6562 121.218V113.893" stroke="#ECD757" stroke-width="1.87" stroke-miterlimit="10"/>
<path d="M34.5107 121.078V113.752" stroke="#ECD757" stroke-width="1.87" stroke-miterlimit="10"/>
<path d="M37.3643 120.766V113.443" stroke="#ECD757" stroke-width="1.87" stroke-miterlimit="10"/>
<path d="M40.2197 121.005V113.68" stroke="#ECD757" stroke-width="1.87" stroke-miterlimit="10"/>
<path d="M43.0732 121.005V113.68" stroke="#ECD757" stroke-width="1.87" stroke-miterlimit="10"/>
<path d="M45.9268 121.376V114.051" stroke="#ECD757" stroke-width="1.87" stroke-miterlimit="10"/>
<path d="M48.7803 121.005V113.68" stroke="#ECD757" stroke-width="1.87" stroke-miterlimit="10"/>
<path d="M57.3429 121.334V114.011" stroke="#ECD757" stroke-width="1.87" stroke-miterlimit="10"/>
<path d="M51.6346 121.005V113.68" stroke="#ECD757" stroke-width="1.87" stroke-miterlimit="10"/>
<path d="M60.1963 120.996V113.674" stroke="#ECD757" stroke-width="1.87" stroke-miterlimit="10"/>
<path d="M54.4883 121.144V113.818" stroke="#ECD757" stroke-width="1.87" stroke-miterlimit="10"/>
<path d="M63.0508 120.902V113.58" stroke="#ECD757" stroke-width="1.87" stroke-miterlimit="10"/>
<path fill-rule="evenodd" clip-rule="evenodd" d="M25.5146 109.045C25.5146 109.045 44.1832 107.981 62.8518 109.045H25.5146Z" fill="#F1E28E"/>
<path d="M25.5176 109.041V114.02H62.8581V109.041H25.5176Z" fill="#CA9A27"/>
<path d="M27.198 115.587V108.262" stroke="#ECD757" stroke-width="1.87" stroke-miterlimit="10"/>
<path d="M30.0518 115.443V108.117" stroke="#ECD757" stroke-width="1.87" stroke-miterlimit="10"/>
<path d="M32.9062 115.302V107.977" stroke="#ECD757" stroke-width="1.87" stroke-miterlimit="10"/>
<path d="M35.7599 114.99V107.668" stroke="#ECD757" stroke-width="1.87" stroke-miterlimit="10"/>
<path d="M38.6143 115.23V107.904" stroke="#ECD757" stroke-width="1.87" stroke-miterlimit="10"/>
<path d="M41.4678 115.23V107.904" stroke="#ECD757" stroke-width="1.87" stroke-miterlimit="10"/>
<path d="M44.3213 115.598V108.275" stroke="#ECD757" stroke-width="1.87" stroke-miterlimit="10"/>
<path d="M47.1748 115.23V107.904" stroke="#ECD757" stroke-width="1.87" stroke-miterlimit="10"/>
<path d="M55.7383 115.559V108.236" stroke="#ECD757" stroke-width="1.87" stroke-miterlimit="10"/>
<path d="M50.0303 115.23V107.904" stroke="#ECD757" stroke-width="1.87" stroke-miterlimit="10"/>
<path d="M58.5918 115.221V107.898" stroke="#ECD757" stroke-width="1.87" stroke-miterlimit="10"/>
<path d="M52.8838 115.369V108.043" stroke="#ECD757" stroke-width="1.87" stroke-miterlimit="10"/>
<path d="M61.4463 115.126V107.801" stroke="#ECD757" stroke-width="1.87" stroke-miterlimit="10"/>
<path d="M57.5088 121.754C66.9203 121.754 74.5499 114.124 74.5499 104.713C74.5499 95.3014 66.9203 87.6719 57.5088 87.6719C48.0973 87.6719 40.4678 95.3014 40.4678 104.713C40.4678 114.124 48.0973 121.754 57.5088 121.754Z" fill="#ECD757"/>
<path d="M57.5077 90.9734H57.2061C60.7969 91.0523 64.2141 92.5342 66.7257 95.1016C69.2374 97.6691 70.6438 101.118 70.6438 104.71C70.6438 108.301 69.2374 111.75 66.7257 114.318C64.2141 116.885 60.7969 118.367 57.2061 118.446H57.5077C61.1517 118.446 64.6464 116.998 67.223 114.422C69.7997 111.845 71.2473 108.35 71.2473 104.706C71.2473 101.062 69.7997 97.5677 67.223 94.991C64.6464 92.4144 61.1517 90.9668 57.5077 90.9668V90.9734Z" fill="#F1E28E"/>
<path fill-rule="evenodd" clip-rule="evenodd" d="M59.6566 99.102C60.1495 99.7862 60.5135 100.554 60.7306 101.369H63.2399L62.2653 104.293H60.8765C60.4621 107.316 58.3672 109.679 55.3939 110.094L59.9119 116.471H56.3419L51.8471 110.173V107.253H54.2835C55.1329 107.252 55.9569 106.962 56.6196 106.431C57.2824 105.9 57.7444 105.158 57.9297 104.329H51.1875L52.162 101.406H57.7175C57.4314 100.732 56.9531 100.158 56.3423 99.7544C55.7315 99.3512 55.0154 99.1369 54.2835 99.1384H51.1875L52.162 96.2148H63.2266L62.2521 99.1384H59.6566V99.102Z" fill="#B68D24"/>
<path d="M58.2461 121.752C67.6576 121.752 75.2872 114.122 75.2872 104.711C75.2872 95.2995 67.6576 87.6699 58.2461 87.6699C48.8346 87.6699 41.2051 95.2995 41.2051 104.711C41.2051 114.122 48.8346 121.752 58.2461 121.752Z" fill="#CA9A27"/>
<path d="M57.5078 121.752C66.9194 121.752 74.5489 114.122 74.5489 104.711C74.5489 95.2995 66.9194 87.6699 57.5078 87.6699C48.0963 87.6699 40.4668 95.2995 40.4668 104.711C40.4668 114.122 48.0963 121.752 57.5078 121.752Z" fill="#ECD757"/>
<path d="M57.5072 118.452C65.0953 118.452 71.2467 112.3 71.2467 104.712C71.2467 97.1241 65.0953 90.9727 57.5072 90.9727C49.919 90.9727 43.7676 97.1241 43.7676 104.712C43.7676 112.3 49.919 118.452 57.5072 118.452Z" fill="#CA9A27"/>
<path d="M44.6891 104.711C44.6896 101.147 46.0748 97.7228 48.5523 95.1606C51.0298 92.5984 54.4058 91.0989 57.9679 90.9785H57.5072C53.8632 90.9785 50.3685 92.4261 47.7918 95.0027C45.2151 97.5794 43.7676 101.074 43.7676 104.718C43.7676 108.362 45.2151 111.857 47.7918 114.433C50.3685 117.01 53.8632 118.458 57.5072 118.458H57.9679C54.4035 118.337 51.0255 116.836 48.5477 114.271C46.0698 111.706 44.6862 108.278 44.6891 104.711Z" fill="#B68D24"/>
<path fill-rule="evenodd" clip-rule="evenodd" d="M60.2917 98.4927C60.7833 99.1777 61.1471 99.9457 61.3656 100.76H63.8749L62.9004 103.684H61.5115C61.0972 106.707 58.9989 109.07 56.0256 109.484L60.5469 115.869H57.0035L52.5087 109.571V106.647H54.9483C55.7984 106.647 56.623 106.357 57.2859 105.824C57.9489 105.292 58.4105 104.55 58.5945 103.72H51.8358L52.8103 100.796H58.3658C58.0797 100.123 57.6013 99.5484 56.9906 99.1452C56.3798 98.7419 55.6636 98.5276 54.9317 98.5292H51.8358L52.8103 95.6056H63.8749L62.9004 98.5292H60.2917V98.4927Z" fill="#ECD757"/>
</svg>
