<svg width="150" height="150" viewBox="0 0 150 150" fill="none" xmlns="http://www.w3.org/2000/svg">
<g style="mix-blend-mode:multiply" opacity="0.46">
<path d="M72 128C106.794 128 135 125.538 135 122.5C135 119.462 106.794 117 72 117C37.2061 117 9 119.462 9 122.5C9 125.538 37.2061 128 72 128Z" fill="#CACACA"/>
</g>
<path d="M97.497 35.4512H44.1391C43.0659 35.4512 42.1958 36.3212 42.1958 37.3945V105.007C42.1958 106.08 43.0659 106.95 44.1391 106.95H97.497C98.5703 106.95 99.4403 106.08 99.4403 105.007V37.3945C99.4403 36.3212 98.5703 35.4512 97.497 35.4512Z" fill="#182D64"/>
<g style="mix-blend-mode:multiply">
<path d="M96.4796 40.5529H47.5984V103.983H96.4796V40.5529Z" fill="#A7C6D8"/>
</g>
<path d="M95.2589 39.4844H46.3777V102.915H95.2589V39.4844Z" fill="#FAFAFA"/>
<path d="M77.891 31.1211V26H63.7486V31.1211L57.1386 33.39V41.8483H84.4976V33.39L77.891 31.1211ZM75.517 31.562H66.1328V27.5601H75.5034L75.517 31.562Z" fill="#F4EE80"/>
<g style="mix-blend-mode:multiply">
<path d="M59.8823 39.1079V34.1733L63.7486 31.121L57.1386 33.3899V41.8482H84.4976V39.1079H59.8823Z" fill="#BCBEC0"/>
</g>
<path d="M63.8843 47.6406H51.0815V60.7486H63.8843V47.6406Z" fill="white"/>
<path d="M61.1881 56.591C61.169 56.4581 61.1122 56.3335 61.0244 56.2319C60.9367 56.1303 60.8216 56.056 60.6929 56.0178L59.2482 55.5261L58.6377 55.2988C58.2849 55.5252 57.8925 55.6828 57.4812 55.7635C57.0708 55.6832 56.6795 55.5255 56.3281 55.2988L55.7143 55.5261L54.2695 56.0178C54.1399 56.0539 54.024 56.1276 53.9365 56.2296C53.8489 56.3317 53.7937 56.4575 53.7777 56.591L53.3267 59.0769H61.6459L61.1881 56.591Z" fill="#B3D8F3"/>
<path d="M59.682 52.0571C59.6515 53.5493 58.6442 54.7363 57.4335 54.716C56.2227 54.6956 55.2561 53.4645 55.2833 51.9757C55.3104 50.4868 56.3007 49.293 57.5318 49.3168C58.7629 49.3405 59.7091 50.5648 59.682 52.0571Z" fill="#B3D8F3"/>
<path d="M63.8843 64.6504H51.0815V77.7584H63.8843V64.6504Z" fill="white"/>
<path d="M61.1881 73.5949C61.1682 73.4623 61.1111 73.3381 61.0235 73.2366C60.9358 73.1352 60.8212 73.0607 60.6929 73.0217L59.2482 72.5334L58.6377 72.3027C58.2857 72.5306 57.893 72.6883 57.4812 72.7674C57.0703 72.6887 56.6787 72.5309 56.3281 72.3027L55.7143 72.5334L54.2695 73.0217C54.1414 73.0605 54.0271 73.135 53.94 73.2365C53.8528 73.3381 53.7966 73.4624 53.7777 73.5949L53.3267 76.0808H61.6459L61.1881 73.5949Z" fill="#B3D8F3"/>
<path d="M59.682 69.0727C59.6515 70.5649 58.6442 71.7553 57.4335 71.7316C56.2227 71.7079 55.2561 70.4835 55.2833 68.9913C55.3104 67.499 56.3007 66.3086 57.5318 66.3324C58.7629 66.3561 59.7091 67.5703 59.682 69.0727Z" fill="#B3D8F3"/>
<path d="M63.8843 81.6543H51.0815V94.7623H63.8843V81.6543Z" fill="white"/>
<path d="M61.1881 90.6013C61.1682 90.4687 61.1111 90.3444 61.0235 90.243C60.9358 90.1415 60.8212 90.067 60.6929 90.0281L59.2482 89.5397L58.6377 89.3125C58.285 89.5382 57.8925 89.6948 57.4812 89.7737C57.0709 89.6952 56.6794 89.5386 56.3281 89.3125L55.7143 89.5397L54.2695 90.0281C54.1414 90.0668 54.0271 90.1414 53.94 90.2429C53.8528 90.3445 53.7966 90.4688 53.7777 90.6013L53.3267 93.0872H61.6459L61.1881 90.6013Z" fill="#B3D8F3"/>
<path d="M59.682 86.0667C59.6515 87.559 58.6442 88.7494 57.4335 88.7256C56.2227 88.7019 55.2561 87.4776 55.2833 85.9853C55.3104 84.4931 56.3007 83.3061 57.5318 83.3264C58.7629 83.3468 59.7091 84.5745 59.682 86.0667Z" fill="#B3D8F3"/>
<path d="M90.5548 49.5103C90.5548 49.6416 90.5026 49.7675 90.4097 49.8604C90.3169 49.9533 90.1909 50.0054 90.0596 50.0054H66.8179C66.6866 50.0054 66.5606 49.9533 66.4678 49.8604C66.3749 49.7675 66.3228 49.6416 66.3228 49.5103C66.3223 49.445 66.3348 49.3802 66.3595 49.3197C66.3842 49.2593 66.4206 49.2043 66.4666 49.1579C66.5126 49.1116 66.5673 49.0748 66.6276 49.0497C66.6879 49.0246 66.7526 49.0117 66.8179 49.0117H90.0596C90.1249 49.0117 90.1896 49.0246 90.2499 49.0497C90.3102 49.0748 90.3649 49.1116 90.411 49.1579C90.457 49.2043 90.4934 49.2593 90.5181 49.3197C90.5427 49.3802 90.5552 49.445 90.5548 49.5103Z" fill="#A1D5F3"/>
<path d="M90.5548 52.6338C90.5552 52.6991 90.5427 52.7639 90.5181 52.8244C90.4934 52.8848 90.457 52.9398 90.411 52.9861C90.3649 53.0325 90.3102 53.0693 90.2499 53.0944C90.1896 53.1195 90.1249 53.1324 90.0596 53.1324H66.8179C66.7526 53.1324 66.6879 53.1195 66.6276 53.0944C66.5673 53.0693 66.5126 53.0325 66.4666 52.9861C66.4206 52.9398 66.3842 52.8848 66.3595 52.8244C66.3348 52.7639 66.3223 52.6991 66.3228 52.6338C66.3228 52.5025 66.3749 52.3766 66.4678 52.2837C66.5606 52.1908 66.6866 52.1387 66.8179 52.1387H90.0596C90.1909 52.1387 90.3169 52.1908 90.4097 52.2837C90.5026 52.3766 90.5548 52.5025 90.5548 52.6338Z" fill="#A1D5F3"/>
<path d="M90.5548 55.7569C90.5552 55.8222 90.5427 55.8869 90.5181 55.9474C90.4934 56.0079 90.457 56.0629 90.411 56.1092C90.3649 56.1555 90.3102 56.1923 90.2499 56.2174C90.1896 56.2425 90.1249 56.2554 90.0596 56.2554H66.8179C66.7526 56.2554 66.6879 56.2425 66.6276 56.2174C66.5673 56.1923 66.5126 56.1555 66.4666 56.1092C66.4206 56.0629 66.3842 56.0079 66.3595 55.9474C66.3348 55.8869 66.3223 55.8222 66.3228 55.7569C66.3228 55.6255 66.3749 55.4996 66.4678 55.4067C66.5606 55.3139 66.6866 55.2617 66.8179 55.2617H90.0596C90.1909 55.2617 90.3169 55.3139 90.4097 55.4067C90.5026 55.4996 90.5548 55.6255 90.5548 55.7569Z" fill="#A1D5F3"/>
<path d="M90.5547 58.897C90.5547 59.0283 90.5026 59.1543 90.4097 59.2471C90.3169 59.34 90.1909 59.3921 90.0596 59.3921H66.8179C66.6866 59.3921 66.5606 59.34 66.4678 59.2471C66.3749 59.1543 66.3227 59.0283 66.3227 58.897C66.3223 58.8317 66.3348 58.7669 66.3594 58.7065C66.3841 58.646 66.4205 58.591 66.4666 58.5447C66.5126 58.4983 66.5673 58.4615 66.6276 58.4365C66.6879 58.4114 66.7526 58.3984 66.8179 58.3984H90.0596C90.1249 58.3984 90.1896 58.4114 90.2499 58.4365C90.3102 58.4615 90.3649 58.4983 90.4109 58.5447C90.4569 58.591 90.4933 58.646 90.518 58.7065C90.5427 58.7669 90.5552 58.8317 90.5547 58.897Z" fill="#A1D5F3"/>
<path d="M90.5548 66.5147C90.5552 66.58 90.5427 66.6447 90.5181 66.7052C90.4934 66.7657 90.457 66.8207 90.411 66.867C90.3649 66.9133 90.3102 66.9501 90.2499 66.9752C90.1896 67.0003 90.1249 67.0132 90.0596 67.0132H66.8179C66.7526 67.0132 66.6879 67.0003 66.6276 66.9752C66.5673 66.9501 66.5126 66.9133 66.4666 66.867C66.4206 66.8207 66.3842 66.7657 66.3595 66.7052C66.3348 66.6447 66.3223 66.58 66.3228 66.5147C66.3228 66.3834 66.3749 66.2574 66.4678 66.1646C66.5606 66.0717 66.6866 66.0195 66.8179 66.0195H90.0596C90.1909 66.0195 90.3169 66.0717 90.4097 66.1646C90.5026 66.2574 90.5548 66.3834 90.5548 66.5147Z" fill="#A1D5F3"/>
<path d="M90.5548 69.6377C90.5552 69.703 90.5427 69.7678 90.5181 69.8283C90.4934 69.8887 90.457 69.9437 90.411 69.9901C90.3649 70.0364 90.3102 70.0732 90.2499 70.0983C90.1896 70.1234 90.1249 70.1363 90.0596 70.1363H66.8179C66.7526 70.1363 66.6879 70.1234 66.6276 70.0983C66.5673 70.0732 66.5126 70.0364 66.4666 69.9901C66.4206 69.9437 66.3842 69.8887 66.3595 69.8283C66.3348 69.7678 66.3223 69.703 66.3228 69.6377C66.3228 69.5064 66.3749 69.3805 66.4678 69.2876C66.5606 69.1947 66.6866 69.1426 66.8179 69.1426H90.0596C90.1909 69.1426 90.3169 69.1947 90.4097 69.2876C90.5026 69.3805 90.5548 69.5064 90.5548 69.6377Z" fill="#A1D5F3"/>
<path d="M90.5548 72.7642C90.5548 72.8955 90.5026 73.0214 90.4097 73.1143C90.3169 73.2072 90.1909 73.2593 90.0596 73.2593H66.8179C66.6866 73.2593 66.5606 73.2072 66.4678 73.1143C66.3749 73.0214 66.3228 72.8955 66.3228 72.7642C66.3223 72.6989 66.3348 72.6341 66.3595 72.5736C66.3842 72.5132 66.4206 72.4582 66.4666 72.4118C66.5126 72.3655 66.5673 72.3287 66.6276 72.3036C66.6879 72.2785 66.7526 72.2656 66.8179 72.2656H90.0596C90.1249 72.2656 90.1896 72.2785 90.2499 72.3036C90.3102 72.3287 90.3649 72.3655 90.411 72.4118C90.457 72.4582 90.4934 72.5132 90.5181 72.5736C90.5427 72.6341 90.5552 72.6989 90.5548 72.7642Z" fill="#A1D5F3"/>
<path d="M90.5548 75.8892C90.5548 76.0205 90.5026 76.1464 90.4097 76.2393C90.3169 76.3322 90.1909 76.3843 90.0596 76.3843H66.8179C66.6866 76.3843 66.5606 76.3322 66.4678 76.2393C66.3749 76.1464 66.3228 76.0205 66.3228 75.8892C66.3223 75.8239 66.3348 75.7591 66.3595 75.6986C66.3842 75.6382 66.4206 75.5832 66.4666 75.5368C66.5126 75.4905 66.5673 75.4537 66.6276 75.4286C66.6879 75.4035 66.7526 75.3906 66.8179 75.3906H90.0596C90.1249 75.3906 90.1896 75.4035 90.2499 75.4286C90.3102 75.4537 90.3649 75.4905 90.411 75.5368C90.457 75.5832 90.4934 75.6382 90.5181 75.6986C90.5427 75.7591 90.5552 75.8239 90.5548 75.8892Z" fill="#A1D5F3"/>
<path d="M90.5548 83.5186C90.5552 83.5839 90.5427 83.6487 90.5181 83.7091C90.4934 83.7696 90.457 83.8246 90.411 83.8709C90.3649 83.9172 90.3102 83.954 90.2499 83.9791C90.1896 84.0042 90.1249 84.0171 90.0596 84.0171H66.8179C66.7526 84.0171 66.6879 84.0042 66.6276 83.9791C66.5673 83.954 66.5126 83.9172 66.4666 83.8709C66.4206 83.8246 66.3842 83.7696 66.3595 83.7091C66.3348 83.6487 66.3223 83.5839 66.3228 83.5186C66.3228 83.3873 66.3749 83.2613 66.4678 83.1685C66.5606 83.0756 66.6866 83.0234 66.8179 83.0234H90.0596C90.1909 83.0234 90.3169 83.0756 90.4097 83.1685C90.5026 83.2613 90.5548 83.3873 90.5548 83.5186Z" fill="#A1D5F3"/>
<path d="M90.5548 86.6436C90.5552 86.7089 90.5427 86.7737 90.5181 86.8341C90.4934 86.8946 90.457 86.9496 90.411 86.9959C90.3649 87.0422 90.3102 87.079 90.2499 87.1041C90.1896 87.1292 90.1249 87.1421 90.0596 87.1421H66.8179C66.7526 87.1421 66.6879 87.1292 66.6276 87.1041C66.5673 87.079 66.5126 87.0422 66.4666 86.9959C66.4206 86.9496 66.3842 86.8946 66.3595 86.8341C66.3348 86.7737 66.3223 86.7089 66.3228 86.6436C66.3228 86.5123 66.3749 86.3863 66.4678 86.2935C66.5606 86.2006 66.6866 86.1484 66.8179 86.1484H90.0596C90.1909 86.1484 90.3169 86.2006 90.4097 86.2935C90.5026 86.3863 90.5548 86.5123 90.5548 86.6436Z" fill="#A1D5F3"/>
<path d="M90.5548 89.7603C90.5548 89.8916 90.5026 90.0175 90.4097 90.1104C90.3169 90.2033 90.1909 90.2554 90.0596 90.2554H66.8179C66.6866 90.2554 66.5606 90.2033 66.4678 90.1104C66.3749 90.0175 66.3228 89.8916 66.3228 89.7603C66.3223 89.695 66.3348 89.6302 66.3595 89.5697C66.3842 89.5093 66.4206 89.4543 66.4666 89.4079C66.5126 89.3616 66.5673 89.3248 66.6276 89.2997C66.6879 89.2746 66.7526 89.2617 66.8179 89.2617H90.0596C90.1249 89.2617 90.1896 89.2746 90.2499 89.2997C90.3102 89.3248 90.3649 89.3616 90.411 89.4079C90.457 89.4543 90.4934 89.5093 90.5181 89.5697C90.5427 89.6302 90.5552 89.695 90.5548 89.7603Z" fill="#A1D5F3"/>
<path d="M90.5548 92.8936C90.5552 92.9589 90.5427 93.0237 90.5181 93.0841C90.4934 93.1446 90.457 93.1996 90.411 93.2459C90.3649 93.2922 90.3102 93.329 90.2499 93.3541C90.1896 93.3792 90.1249 93.3921 90.0596 93.3921H66.8179C66.7526 93.3921 66.6879 93.3792 66.6276 93.3541C66.5673 93.329 66.5126 93.2922 66.4666 93.2459C66.4206 93.1996 66.3842 93.1446 66.3595 93.0841C66.3348 93.0237 66.3223 92.9589 66.3228 92.8936C66.3228 92.7623 66.3749 92.6363 66.4678 92.5435C66.5606 92.4506 66.6866 92.3984 66.8179 92.3984H90.0596C90.1909 92.3984 90.3169 92.4506 90.4097 92.5435C90.5026 92.6363 90.5548 92.7623 90.5548 92.8936Z" fill="#A1D5F3"/>
<g style="mix-blend-mode:multiply">
<path d="M50.9935 46.8465C46.9782 44.6399 42.2712 44.0518 37.8364 45.2027C33.4016 46.3535 29.5745 49.1563 27.1389 53.037C24.7033 56.9178 23.8435 61.5828 24.7355 66.0769C25.6275 70.5709 28.2038 74.5539 31.9369 77.2103L29.7155 81.28L27.6636 80.1575L16.0513 101.368L23.933 105.678L35.542 84.4511L33.4902 83.3149L35.7082 79.2452C39.9567 80.9462 44.6944 80.9607 48.9532 79.2858C53.212 77.6108 56.6705 74.3728 58.622 70.2334C60.5735 66.094 60.8707 61.3657 59.4529 57.0145C58.035 52.6633 55.0091 49.0178 50.9935 46.8227V46.8465ZM54.4833 69.2302C53.1733 71.6245 51.1827 73.5765 48.7632 74.8396C46.3438 76.1026 43.6042 76.6198 40.8908 76.3258C38.1774 76.0319 35.6121 74.9399 33.5193 73.188C31.4264 71.4362 29.9001 69.1031 29.1332 66.4837C28.3664 63.8644 28.3934 61.0765 29.2109 58.4726C30.0285 55.8686 31.5998 53.5656 33.7262 51.8546C35.8526 50.1437 38.4386 49.1017 41.1572 48.8604C43.8758 48.6191 46.6049 49.1894 48.9993 50.4991C52.2095 52.2549 54.5907 55.214 55.6192 58.7255C56.6476 62.237 56.2391 66.0131 54.4833 69.2234V69.2302Z" fill="#705CA4"/>
</g>
<path d="M31.3531 74.7889L28.2866 80.3945L32.0594 82.4584L35.1258 76.8527L31.3531 74.7889Z" fill="#2578BD"/>
<path opacity="0.5" d="M53.4354 67.6601C52.1253 70.0544 50.1347 72.0065 47.7153 73.2695C45.2958 74.5325 42.5562 75.0498 39.8428 74.7558C37.1294 74.4618 34.5641 73.3699 32.4713 71.618C30.3785 69.8661 28.8521 67.533 28.0852 64.9137C27.3184 62.2944 27.3454 59.5065 28.163 56.9025C28.9805 54.2986 30.5518 51.9955 32.6782 50.2846C34.8046 48.5736 37.3906 47.5316 40.1092 47.2904C42.8278 47.0491 45.5569 47.6194 47.9514 48.9291C49.5418 49.7985 50.9453 50.9727 52.0817 52.3847C53.2181 53.7967 54.0652 55.4188 54.5744 57.1583C55.0837 58.8978 55.2453 60.7206 55.0498 62.5226C54.8544 64.3245 54.3058 66.0703 53.4354 67.6601Z" fill="#CBE9FA"/>
<g style="mix-blend-mode:multiply" opacity="0.5">
<path d="M38.9981 47.4375C37.1952 47.7277 35.4679 48.3729 33.9162 49.3356C32.3646 50.2983 31.0194 51.5594 29.9586 53.0457C28.8979 54.5321 28.1427 56.2142 27.7368 57.9946C27.3309 59.775 27.2824 61.6182 27.5941 63.4175C27.9058 65.2167 28.5715 66.9362 29.5526 68.4764C30.5337 70.0165 31.8107 71.3465 33.3096 72.3895C34.8086 73.4324 36.4996 74.1675 38.2846 74.5522C40.0697 74.9368 41.9134 74.9634 43.7088 74.6303C42.0063 65.592 40.5955 56.4961 38.9981 47.4375Z" fill="#CBE9FA"/>
</g>
<path d="M49.9354 45.2843C46.8178 43.572 43.2623 42.8232 39.7189 43.1326C36.1755 43.442 32.8036 44.7957 30.0299 47.0223C27.2562 49.249 25.2055 52.2485 24.1373 55.6411C23.0692 59.0338 23.0315 62.6671 24.0292 66.0812C25.027 69.4953 27.0151 72.5366 29.7421 74.8202C32.4691 77.1038 35.8123 78.527 39.3485 78.9097C42.8847 79.2923 46.455 78.6173 49.6074 76.9699C52.7597 75.3226 55.3525 72.777 57.0575 69.6554C59.3447 65.4791 59.8792 60.5653 58.5436 55.9949C57.208 51.4245 54.1115 47.5718 49.9354 45.2843ZM34.7043 73.1418C32.31 71.8318 30.358 69.8412 29.0949 67.4217C27.8319 65.0023 27.3147 62.2626 27.6087 59.5492C27.9026 56.8358 28.9946 54.2705 30.7465 52.1777C32.4983 50.0849 34.8314 48.5586 37.4508 47.7917C40.0701 47.0248 42.858 47.0519 45.4619 47.8694C48.0659 48.6869 50.3689 50.2583 52.0799 52.3847C53.7908 54.5111 54.8328 57.0971 55.0741 59.8156C55.3154 62.5342 54.7451 65.2633 53.4354 67.6578C52.566 69.2482 51.3918 70.6517 49.9798 71.7881C48.5677 72.9245 46.9456 73.7716 45.2062 74.2809C43.4667 74.7902 41.6439 74.9517 39.8419 74.7562C38.04 74.5608 36.2942 74.0122 34.7043 73.1418Z" fill="#FF5C5D"/>
<g style="mix-blend-mode:multiply" opacity="0.3">
<path d="M49.9354 45.2843C46.8178 43.572 43.2623 42.8232 39.7189 43.1326C36.1755 43.442 32.8036 44.7957 30.0299 47.0223C27.2562 49.249 25.2055 52.2485 24.1373 55.6411C23.0692 59.0338 23.0315 62.6671 24.0292 66.0812C25.027 69.4953 27.0151 72.5366 29.7421 74.8202C32.4691 77.1038 35.8123 78.527 39.3485 78.9097C42.8847 79.2923 46.455 78.6173 49.6074 76.9699C52.7597 75.3226 55.3525 72.777 57.0575 69.6554C59.3447 65.4791 59.8792 60.5653 58.5436 55.9949C57.208 51.4245 54.1115 47.5718 49.9354 45.2843ZM33.6564 75.0749C30.8789 73.5561 28.6144 71.2475 27.1494 68.4412C25.6843 65.635 25.0846 62.4573 25.426 59.3101C25.7675 56.163 27.0348 53.1878 29.0676 50.7611C31.1004 48.3344 33.8074 46.5652 36.846 45.6773C39.8846 44.7895 43.1182 44.8229 46.1378 45.7734C49.1574 46.7239 51.8272 48.5486 53.8094 51.0169C55.7916 53.4851 56.9971 56.4858 57.2735 59.6394C57.5498 62.7929 56.8845 65.9576 55.3618 68.7329C53.3229 72.4507 49.8916 75.207 45.8216 76.3962C41.7517 77.5854 37.3761 77.1101 33.6564 75.0749Z" fill="#FF5C5D"/>
</g>
<path d="M26.6115 78.5764L15 99.8027L22.8788 104.113L34.4903 82.8863L26.6115 78.5764Z" fill="#FF5C5D"/>
<g style="mix-blend-mode:multiply">
<path d="M19.0664 99.2864L29.5223 80.1687L26.6124 78.5781L15.0034 99.8053L22.8818 104.112L24.0383 102.006L19.0664 99.2864Z" fill="#BCBEC0"/>
</g>
<path d="M49.7726 68.0547C49.2841 68.7143 48.7258 69.3192 48.1074 69.8589" stroke="white" stroke-width="3" stroke-miterlimit="10"/>
<path d="M46.0521 51.0564C48.7321 52.5247 50.7196 54.9968 51.5781 57.9297C52.4366 60.8625 52.0958 64.0161 50.6306 66.6978" stroke="white" stroke-width="3" stroke-miterlimit="10"/>
<g style="mix-blend-mode:multiply">
<path d="M135 48.3223H76.8706V123.755H135V48.3223Z" fill="#705CA4"/>
</g>
<path d="M132.545 45.873H74.415V121.306H132.545V45.873Z" fill="#FAFAFA"/>
<path d="M95.235 60.9668H80.0107V76.554H95.235V60.9668Z" fill="white"/>
<path d="M92.0268 71.6077C92.0033 71.4506 91.9357 71.3035 91.8318 71.1834C91.7279 71.0633 91.5921 70.9752 91.44 70.9294L89.7206 70.3494L88.9948 70.0781C88.5815 70.3455 88.1211 70.532 87.6382 70.6275C87.1552 70.5322 86.6948 70.3457 86.2816 70.0781L85.5524 70.3494L83.833 70.9294C83.6809 70.9752 83.5451 71.0633 83.4412 71.1834C83.3373 71.3035 83.2697 71.4506 83.2462 71.6077L82.7036 74.5616H92.5999L92.0268 71.6077Z" fill="#B3D8F3"/>
<path d="M90.2363 66.2166C90.2023 67.987 89.0052 69.4046 87.5638 69.3775C86.1224 69.3503 84.9761 67.892 85.01 66.1183C85.0439 64.3445 86.2377 62.9303 87.6825 62.9574C89.1273 62.9845 90.2702 64.4429 90.2363 66.2166Z" fill="#B3D8F3"/>
<path d="M126.952 63.1873C126.952 63.3438 126.89 63.4939 126.779 63.6045C126.669 63.7152 126.518 63.7774 126.362 63.7774H98.7249C98.6473 63.7778 98.5703 63.7629 98.4985 63.7334C98.4267 63.7039 98.3615 63.6604 98.3066 63.6055C98.2517 63.5506 98.2083 63.4854 98.1788 63.4136C98.1493 63.3418 98.1343 63.2649 98.1348 63.1873C98.1343 63.1095 98.1493 63.0324 98.1787 62.9604C98.2082 62.8884 98.2516 62.8229 98.3064 62.7678C98.3613 62.7126 98.4265 62.6689 98.4983 62.639C98.5701 62.6091 98.6471 62.5937 98.7249 62.5938H126.362C126.44 62.5937 126.517 62.6091 126.589 62.639C126.66 62.6689 126.726 62.7126 126.78 62.7678C126.835 62.8229 126.879 62.8884 126.908 62.9604C126.938 63.0324 126.952 63.1095 126.952 63.1873Z" fill="#A1D5F3"/>
<path d="M126.952 66.9009C126.952 67.0574 126.89 67.2075 126.779 67.3182C126.668 67.4289 126.518 67.491 126.362 67.491H98.7247C98.6471 67.4915 98.5702 67.4765 98.4984 67.447C98.4266 67.4175 98.3613 67.3741 98.3064 67.3192C98.2515 67.2643 98.2081 67.1991 98.1786 67.1273C98.1491 67.0555 98.1341 66.9785 98.1346 66.9009C98.1341 66.8233 98.1491 66.7464 98.1786 66.6746C98.2081 66.6028 98.2515 66.5375 98.3064 66.4826C98.3613 66.4278 98.4266 66.3843 98.4984 66.3548C98.5702 66.3253 98.6471 66.3104 98.7247 66.3108H126.362C126.518 66.3108 126.668 66.373 126.779 66.4836C126.89 66.5943 126.952 66.7444 126.952 66.9009Z" fill="#A1D5F3"/>
<path d="M126.952 70.6175C126.952 70.774 126.89 70.9241 126.779 71.0347C126.669 71.1454 126.518 71.2076 126.362 71.2076H98.7249C98.6473 71.208 98.5703 71.1931 98.4985 71.1636C98.4267 71.1341 98.3615 71.0906 98.3066 71.0357C98.2517 70.9809 98.2083 70.9156 98.1788 70.8438C98.1493 70.772 98.1343 70.6951 98.1348 70.6175C98.1343 70.5398 98.1493 70.4629 98.1788 70.3911C98.2083 70.3193 98.2517 70.2541 98.3066 70.1992C98.3615 70.1443 98.4267 70.1009 98.4985 70.0714C98.5703 70.0419 98.6473 70.0269 98.7249 70.0274H126.362C126.439 70.0274 126.516 70.0426 126.588 70.0723C126.659 70.1019 126.724 70.1454 126.779 70.2002C126.834 70.255 126.877 70.32 126.907 70.3916C126.937 70.4632 126.952 70.54 126.952 70.6175Z" fill="#A1D5F3"/>
<path d="M126.952 74.3323C126.952 74.4101 126.938 74.4872 126.908 74.5592C126.879 74.6312 126.835 74.6966 126.78 74.7518C126.726 74.8069 126.66 74.8507 126.589 74.8806C126.517 74.9104 126.44 74.9258 126.362 74.9258H98.7249C98.6471 74.9258 98.5701 74.9104 98.4983 74.8806C98.4265 74.8507 98.3613 74.8069 98.3064 74.7518C98.2516 74.6966 98.2082 74.6312 98.1787 74.5592C98.1493 74.4872 98.1343 74.4101 98.1348 74.3323C98.1343 74.2547 98.1493 74.1777 98.1788 74.106C98.2083 74.0342 98.2517 73.9689 98.3066 73.914C98.3615 73.8591 98.4267 73.8157 98.4985 73.7862C98.5703 73.7567 98.6473 73.7417 98.7249 73.7422H126.362C126.518 73.7422 126.669 73.8044 126.779 73.915C126.89 74.0257 126.952 74.1758 126.952 74.3323Z" fill="#A1D5F3"/>
<path d="M126.952 81.6194C126.953 81.6972 126.938 81.7743 126.908 81.8463C126.879 81.9183 126.835 81.9837 126.78 82.0389C126.726 82.094 126.66 82.1378 126.589 82.1677C126.517 82.1975 126.44 82.2129 126.362 82.2129H80.3059C80.1485 82.2129 79.9975 82.1504 79.8862 82.0391C79.7749 81.9278 79.7124 81.7768 79.7124 81.6194C79.7133 81.4626 79.7762 81.3125 79.8874 81.2019C79.9986 81.0914 80.1491 81.0293 80.3059 81.0293H126.362C126.519 81.0293 126.669 81.0915 126.779 81.2021C126.89 81.3128 126.952 81.4629 126.952 81.6194Z" fill="#A1D5F3"/>
<path d="M126.952 85.3264C126.952 85.4039 126.937 85.4807 126.907 85.5523C126.878 85.6239 126.834 85.6889 126.779 85.7437C126.724 85.7985 126.659 85.842 126.588 85.8716C126.516 85.9013 126.439 85.9166 126.362 85.9166H80.3059C80.1491 85.9166 79.9986 85.8545 79.8874 85.7439C79.7762 85.6334 79.7133 85.4833 79.7124 85.3264C79.7133 85.1696 79.7762 85.0195 79.8874 84.909C79.9986 84.7984 80.1491 84.7363 80.3059 84.7363H126.362C126.519 84.7363 126.669 84.7985 126.779 84.9092C126.89 85.0198 126.952 85.1699 126.952 85.3264Z" fill="#A1D5F3"/>
<path d="M126.952 89.0413C126.953 89.1191 126.938 89.1962 126.908 89.2682C126.879 89.3401 126.835 89.4056 126.78 89.4608C126.726 89.5159 126.66 89.5597 126.589 89.5896C126.517 89.6194 126.44 89.6348 126.362 89.6348H80.3059C80.1485 89.6348 79.9975 89.5723 79.8862 89.461C79.7749 89.3497 79.7124 89.1987 79.7124 89.0413C79.7133 88.8845 79.7762 88.7344 79.8874 88.6238C79.9986 88.5132 80.1491 88.4512 80.3059 88.4512H126.362C126.519 88.4512 126.669 88.5133 126.779 88.624C126.89 88.7347 126.952 88.8848 126.952 89.0413Z" fill="#A1D5F3"/>
<path d="M126.952 92.7581C126.952 92.9146 126.89 93.0647 126.779 93.1754C126.669 93.286 126.519 93.3482 126.362 93.3482H80.3059C80.1491 93.3482 79.9986 93.2861 79.8874 93.1756C79.7762 93.065 79.7133 92.9149 79.7124 92.7581C79.7133 92.6013 79.7762 92.4512 79.8874 92.3406C79.9986 92.23 80.1491 92.168 80.3059 92.168H126.362C126.519 92.168 126.669 92.2301 126.779 92.3408C126.89 92.4515 126.952 92.6016 126.952 92.7581Z" fill="#A1D5F3"/>
<path d="M126.952 97.8987C126.952 97.9762 126.937 98.0529 126.907 98.1245C126.878 98.1961 126.834 98.2612 126.779 98.316C126.724 98.3708 126.659 98.4142 126.588 98.4439C126.516 98.4736 126.439 98.4888 126.362 98.4888H80.3059C80.1491 98.4888 79.9986 98.4268 79.8874 98.3162C79.7762 98.2056 79.7133 98.0555 79.7124 97.8987C79.7133 97.7419 79.7762 97.5918 79.8874 97.4812C79.9986 97.3707 80.1491 97.3086 80.3059 97.3086H126.362C126.519 97.3086 126.669 97.3708 126.779 97.4814C126.89 97.5921 126.952 97.7422 126.952 97.8987Z" fill="#A1D5F3"/>
<path d="M126.952 101.631C126.952 101.787 126.89 101.937 126.779 102.048C126.669 102.159 126.519 102.221 126.362 102.221H80.3059C80.1491 102.221 79.9986 102.159 79.8874 102.048C79.7762 101.938 79.7133 101.787 79.7124 101.631C79.7124 101.473 79.7749 101.322 79.8862 101.211C79.9975 101.1 80.1485 101.037 80.3059 101.037H126.362C126.44 101.037 126.517 101.052 126.589 101.082C126.66 101.112 126.726 101.156 126.78 101.211C126.835 101.266 126.879 101.332 126.908 101.404C126.938 101.476 126.953 101.553 126.952 101.631Z" fill="#A1D5F3"/>
<path d="M126.952 105.326C126.952 105.483 126.89 105.633 126.779 105.744C126.669 105.854 126.519 105.917 126.362 105.917H80.3059C80.1491 105.917 79.9986 105.854 79.8874 105.744C79.7762 105.633 79.7133 105.483 79.7124 105.326C79.7133 105.17 79.7762 105.02 79.8874 104.909C79.9986 104.798 80.1491 104.736 80.3059 104.736H126.362C126.519 104.736 126.669 104.798 126.779 104.909C126.89 105.02 126.952 105.17 126.952 105.326Z" fill="#A1D5F3"/>
<path d="M126.952 109.043C126.952 109.2 126.89 109.35 126.779 109.46C126.669 109.571 126.519 109.633 126.362 109.633H80.3059C80.1491 109.633 79.9986 109.571 79.8874 109.461C79.7762 109.35 79.7133 109.2 79.7124 109.043C79.7124 108.965 79.7278 108.888 79.7576 108.817C79.7875 108.745 79.8313 108.679 79.8864 108.625C79.9416 108.57 80.0071 108.526 80.079 108.497C80.151 108.468 80.2281 108.453 80.3059 108.453H126.362C126.44 108.453 126.517 108.468 126.588 108.497C126.66 108.527 126.725 108.57 126.78 108.625C126.835 108.68 126.879 108.745 126.908 108.817C126.938 108.889 126.953 108.966 126.952 109.043Z" fill="#A1D5F3"/>
<path d="M117.89 54.7487C117.891 54.8265 117.876 54.9036 117.846 54.9756C117.817 55.0476 117.773 55.113 117.719 55.1682C117.664 55.2234 117.599 55.2671 117.527 55.297C117.455 55.3269 117.378 55.3422 117.3 55.3422H89.663C89.5852 55.3422 89.5082 55.3269 89.4364 55.297C89.3646 55.2671 89.2994 55.2234 89.2445 55.1682C89.1897 55.113 89.1463 55.0476 89.1169 54.9756C89.0874 54.9036 89.0725 54.8265 89.0729 54.7487C89.0711 54.6703 89.085 54.5922 89.1139 54.5192C89.1428 54.4463 89.186 54.3798 89.2411 54.3238C89.2961 54.2679 89.3618 54.2235 89.4343 54.1934C89.5068 54.1633 89.5845 54.148 89.663 54.1484H117.3C117.457 54.1484 117.607 54.2106 117.717 54.3213C117.828 54.432 117.89 54.5821 117.89 54.7386V54.7487Z" fill="#A1D5F3"/>
</svg>
