<svg width="500" height="350" viewBox="0 0 500 350" fill="none" xmlns="http://www.w3.org/2000/svg">
<mask id="mask0_0_593" style="mask-type:alpha" maskUnits="userSpaceOnUse" x="0" y="0" width="500" height="350">
<rect width="500" height="350" rx="40" fill="white"/>
</mask>
<g mask="url(#mask0_0_593)">
<g filter="url(#filter0_d_0_593)">
<path fill-rule="evenodd" clip-rule="evenodd" d="M131.359 80.4037C186.575 25.683 263.509 -5.51893 334.939 25.1558C423.836 63.3316 511.895 140.642 492.205 235.365C473.849 323.673 359.481 326.975 269.941 337.84C194.873 346.949 107.131 353.026 71.2878 286.441C33.7984 216.8 75.1815 136.077 131.359 80.4037Z" fill="white"/>
</g>
<path d="M316.657 89.9393H200.606C196.733 89.9393 193.593 93.0791 193.593 96.9522V262.638C193.593 266.512 196.733 269.651 200.606 269.651H316.657C320.53 269.651 323.67 266.512 323.67 262.638V96.9522C323.67 93.0791 320.53 89.9393 316.657 89.9393Z" fill="#182D64"/>
<path d="M295.305 255.677H203.705V103.91H313.552V221.447L295.305 255.677Z" fill="#FEFFFF"/>
<path d="M292.294 96.6699H224.957C223.446 96.6699 222.222 97.8944 222.222 99.4048V106.7C222.222 108.21 223.446 109.435 224.957 109.435H292.294C293.804 109.435 295.029 108.21 295.029 106.7V99.4048C295.029 97.8944 293.804 96.6699 292.294 96.6699Z" stroke="#949494" stroke-width="3" stroke-miterlimit="10"/>
<path d="M287.934 92.9141H229.316V100.993H287.934V92.9141Z" fill="#323141"/>
<path d="M232.566 125.078H212.581V145.063H232.566V125.078Z" stroke="#E3E3E3" stroke-width="3" stroke-miterlimit="10"/>
<path d="M281.53 129.816H242.137V132.489H281.53V129.816Z" fill="#B8B8B8"/>
<path d="M257.919 137.658H242.137V140.33H257.919V137.658Z" fill="#B8B8B8"/>
<path d="M288.248 137.658H262.11V140.33H288.248V137.658Z" fill="#B8B8B8"/>
<path d="M304.676 129.816H288.248V132.489H304.676V129.816Z" fill="#B8B8B8"/>
<path d="M216.068 132.237L222.479 136.202C225.776 130.199 229.926 124.705 234.799 119.893" stroke="#F7674A" stroke-width="3" stroke-linecap="round" stroke-linejoin="round"/>
<path d="M232.566 158.551H212.581V178.535H232.566V158.551Z" stroke="#E3E3E3" stroke-width="3" stroke-miterlimit="10"/>
<path d="M281.53 163.287H242.137V165.959H281.53V163.287Z" fill="#B8B8B8"/>
<path d="M257.919 171.127H242.137V173.799H257.919V171.127Z" fill="#B8B8B8"/>
<path d="M288.248 171.127H262.11V173.799H288.248V171.127Z" fill="#B8B8B8"/>
<path d="M304.676 163.287H288.248V165.959H304.676V163.287Z" fill="#B8B8B8"/>
<path d="M216.068 165.706L222.479 169.664C225.774 163.66 229.924 158.167 234.798 153.355" stroke="#F7674A" stroke-width="3" stroke-linecap="round" stroke-linejoin="round"/>
<path d="M232.566 192.016H212.581V212H232.566V192.016Z" stroke="#E3E3E3" stroke-width="3" stroke-miterlimit="10"/>
<path d="M281.53 196.752H242.137V199.424H281.53V196.752Z" fill="#B8B8B8"/>
<path d="M257.919 204.592H242.137V207.264H257.919V204.592Z" fill="#B8B8B8"/>
<path d="M288.248 204.592H262.11V207.264H288.248V204.592Z" fill="#B8B8B8"/>
<path d="M304.676 196.752H288.248V199.424H304.676V196.752Z" fill="#B8B8B8"/>
<path d="M216.068 199.173L222.479 203.137C225.773 197.132 229.923 191.638 234.799 186.828" stroke="#F7674A" stroke-width="3" stroke-linecap="round" stroke-linejoin="round"/>
<path d="M232.566 225.48H212.581V245.465H232.566V225.48Z" stroke="#E3E3E3" stroke-width="3" stroke-miterlimit="10"/>
<path d="M281.529 230.215H242.137V232.887H281.529V230.215Z" fill="#B8B8B8"/>
<path d="M257.919 238.057H242.137V240.729H257.919V238.057Z" fill="#B8B8B8"/>
<path d="M288.248 238.057H262.11V240.729H288.248V238.057Z" fill="#B8B8B8"/>
<path d="M304.676 230.215H288.248V232.887H304.676V230.215Z" fill="#B8B8B8"/>
<path d="M216.068 232.638L222.479 236.602C225.776 230.599 229.926 225.106 234.798 220.293" stroke="#F7674A" stroke-width="3" stroke-linecap="round" stroke-linejoin="round"/>
<path d="M295.304 255.675L284.942 235.471C284.942 235.471 301.834 232.648 313.552 221.445C313.552 221.445 308.464 241.7 295.304 255.675Z" fill="#DFE0E0"/>
<path d="M358.634 260.889L357.693 268.674L359.957 268.893L360.127 267.344C360.127 267.344 361.413 270.342 370.006 269.514C370.145 269.499 370.275 269.438 370.375 269.341C370.475 269.244 370.54 269.116 370.56 268.978C370.579 268.84 370.552 268.699 370.482 268.578C370.413 268.457 370.305 268.363 370.176 268.31C366.676 266.93 361.149 266.955 361.708 260.883L358.634 260.889Z" fill="#191E21"/>
<path d="M330.676 261.61L330.626 269.451L328.355 269.382V267.826C328.355 267.826 326.699 270.605 318.275 268.736C318.139 268.702 318.019 268.623 317.933 268.513C317.847 268.403 317.8 268.267 317.8 268.127C317.8 267.987 317.847 267.852 317.933 267.741C318.019 267.631 318.139 267.553 318.275 267.519C321.919 266.591 327.402 267.306 327.609 261.215L330.676 261.61Z" fill="#191E21"/>
<path d="M345.982 176.144L356.808 262.707H362.077L357.366 158.336H331.648L326.913 262.719H332.746L342.03 176.282C344.162 177.254 344.175 176.878 345.982 176.144Z" fill="#082947"/>
<path d="M333.248 158.35L328.606 262.721" stroke="#445059" stroke-width="0.25" stroke-miterlimit="10"/>
<path d="M355.277 158.35L360.728 262.451" stroke="#445059" stroke-width="0.25" stroke-miterlimit="10"/>
<path d="M336.178 158.381C336.178 158.381 337.238 169.803 332.696 170.732" stroke="#445059" stroke-width="0.25" stroke-miterlimit="10"/>
<path d="M352.33 158.35C352.33 158.35 351.314 170.832 355.931 170.732" stroke="#445059" stroke-width="0.25" stroke-miterlimit="10"/>
<path d="M333.104 161.512C333.104 161.512 344.094 165.821 355.448 161.512" stroke="#445059" stroke-width="0.25" stroke-miterlimit="10"/>
<path d="M337.457 173.719L342.048 176.284L339.752 177.175" stroke="#445059" stroke-width="0.25" stroke-miterlimit="10"/>
<path d="M350.379 173.348L345.982 176.145L349.174 177.444" stroke="#445059" stroke-width="0.25" stroke-miterlimit="10"/>
<path d="M344.175 158.35C344.113 158.506 344.175 176.848 344.175 176.848" stroke="#445059" stroke-width="0.25" stroke-miterlimit="10"/>
<path d="M342.049 158.35L341.41 169.051H345.982" stroke="#445059" stroke-width="0.25" stroke-miterlimit="10"/>
<path d="M338.404 108.589L350.886 108.451V160.778C350.886 160.778 341.026 162.584 337.457 160.527L338.404 108.589Z" fill="#F5F5F5"/>
<path d="M349.739 135.932C346.602 141.74 342.425 146.877 338.247 151.971" stroke="#949494" stroke-width="0.25" stroke-miterlimit="10"/>
<path d="M349.846 141.438C348.81 146.655 347.1 151.716 344.759 156.492" stroke="#949494" stroke-width="0.25" stroke-miterlimit="10"/>
<path d="M337.457 158.351C337.457 158.351 344.733 159.192 350.886 157.943" stroke="#949494" stroke-width="0.25" stroke-miterlimit="10"/>
<path d="M338.373 105.854L351.213 105.703L350.529 111.468L345.084 108.513L338.467 111.606L338.373 105.854Z" fill="white"/>
<path d="M341.333 110.264L345.084 108.514L347.92 110.05L345.981 114.172L347.938 146.382L344.143 152.435L340.775 145.585L343.353 114.172L341.333 110.264Z" fill="#54546E"/>
<path d="M341.352 99.6495L341.265 107.628H349.062L348.271 99.5742L341.352 99.6495Z" fill="#F88E57"/>
<path d="M352.248 90.0084C353.835 85.9626 354.274 81.2267 354.757 76.9174C353.94 76.5771 353.088 76.3289 352.217 76.1772C351.745 76.0608 351.251 76.0738 350.787 76.2148C350.335 76.3905 349.438 76.7417 349.532 77.2185C349.48 76.908 349.345 76.6173 349.142 76.3767C348.939 76.1362 348.675 75.9546 348.378 75.851C347.783 75.6472 347.154 75.564 346.527 75.6064C342.552 75.6007 338.588 76.0383 334.71 76.9111C335.216 81.0929 335.722 85.2558 336.228 89.4C338.649 90.7921 341.372 91.5749 344.163 91.6809C346.954 91.7869 349.728 91.2129 352.248 90.0084Z" fill="#744527"/>
<path d="M338.254 93.088C337.2 93.2072 336.021 93.3013 335.174 92.6615C334.734 92.2878 334.451 91.7626 334.38 91.1899C334.309 90.6171 334.456 90.0387 334.792 89.5691C335.158 89.1149 335.667 88.7978 336.237 88.6692C336.806 88.5406 337.402 88.6079 337.928 88.8603C337.928 89.1363 337.966 89.4374 337.991 89.7573C338.016 90.0772 338.06 90.5288 338.097 90.9302C338.135 91.3317 338.173 91.6767 338.204 92.0342C338.204 92.2036 338.235 92.373 338.248 92.536C338.26 92.6991 338.248 92.9124 338.254 93.088Z" fill="#F89D6E"/>
<path d="M338.203 92.5371H337.633C337.093 92.5446 336.557 92.451 336.052 92.2611C335.908 92.2084 335.777 92.125 335.669 92.0167C335.561 91.9084 335.477 91.7777 335.425 91.6338C335.389 91.5247 335.378 91.4089 335.393 91.2951C335.43 91.0044 335.541 90.728 335.715 90.4928C335.89 90.2576 336.123 90.0716 336.391 89.9528C336.872 89.7441 337.403 89.6767 337.921 89.7583C337.952 90.1347 337.99 90.5298 338.028 90.9313C337.756 90.8728 337.477 90.8517 337.2 90.8686C337.057 90.8652 336.915 90.8907 336.783 90.9435C336.65 90.9964 336.53 91.0754 336.428 91.1759C336.393 91.2136 336.366 91.2581 336.349 91.3066C336.331 91.3552 336.324 91.4068 336.328 91.4582C336.359 91.6589 336.591 91.753 336.792 91.8032C337.235 91.9054 337.683 91.9829 338.134 92.0353C338.203 92.1984 338.203 92.374 338.203 92.5371Z" fill="#F88E57"/>
<path d="M351.038 92.4989C352.098 92.5992 353.271 92.662 354.105 92.0033C354.538 91.6197 354.81 91.0874 354.868 90.5121C354.926 89.9368 354.766 89.3607 354.419 88.8984C354.041 88.4588 353.527 88.1582 352.959 88.0446C352.39 87.9309 351.8 88.0106 351.282 88.2711C351.282 88.5471 351.282 88.8482 351.238 89.1681C351.195 89.488 351.188 89.9459 351.157 90.3411C351.126 90.7362 351.1 91.0938 351.075 91.4513C351.075 91.6207 351.075 91.7901 351.044 91.9531C351.013 92.1162 351.044 92.3232 351.038 92.4989Z" fill="#F89D6E"/>
<path d="M351.057 91.9482L351.627 91.9105C352.165 91.9064 352.698 91.8 353.196 91.5969C353.34 91.5454 353.471 91.4624 353.58 91.3539C353.688 91.2454 353.771 91.1142 353.823 90.9696C353.845 90.8557 353.845 90.7386 353.823 90.6247C353.779 90.3353 353.661 90.0621 353.481 89.8314C353.301 89.6007 353.064 89.4203 352.794 89.3074C352.308 89.1091 351.775 89.0526 351.257 89.1443C351.257 89.5207 351.207 89.9221 351.176 90.3173C351.448 90.2578 351.726 90.2325 352.004 90.242C352.147 90.2323 352.29 90.253 352.424 90.3027C352.558 90.3525 352.68 90.4301 352.782 90.5306C352.819 90.5672 352.847 90.6114 352.866 90.6601C352.884 90.7088 352.892 90.7609 352.888 90.8128C352.888 91.0136 352.631 91.1139 352.43 91.1641C351.99 91.2772 351.544 91.3652 351.094 91.4276C351.075 91.6157 351.069 91.7851 351.057 91.9482Z" fill="#F88E57"/>
<path d="M345.806 81.9928C345.419 82.2544 344.969 82.4079 344.502 82.4377C344.036 82.4675 343.57 82.3724 343.153 82.1621C341.189 80.9891 336.566 79.6844 336.617 83.6425L338.498 99.0105C338.498 99.0105 338.542 102.686 342.017 102.661C342.695 102.669 343.356 102.458 343.904 102.059C344.451 101.66 344.854 101.094 345.053 100.447C345.053 100.447 346.12 102.605 348.34 102.598C350.849 102.598 351.037 98.8662 351.037 98.8662L352.549 83.4606C352.549 83.4606 353.672 77.6082 345.806 81.9928Z" fill="#F89D6E"/>
<path d="M344.833 93.159C344.755 93.1456 344.679 93.1224 344.607 93.09C344.802 92.6509 344.996 92.2119 345.184 91.7728C345.473 91.1455 344.501 90.5559 344.212 91.2145C343.924 91.8731 343.685 92.4251 343.416 93.0273C343.358 93.1361 343.336 93.2606 343.354 93.3825C343.372 93.5044 343.429 93.6173 343.516 93.7048C343.885 94.0346 344.352 94.235 344.846 94.2756C345.147 94.3132 345.398 93.987 345.398 93.711C345.393 93.564 345.331 93.4245 345.226 93.3217C345.121 93.2188 344.98 93.1606 344.833 93.159Z" fill="#F88E57"/>
<path d="M341.572 89.0629C341.449 89.0658 341.327 89.093 341.214 89.1429C341.101 89.1929 340.999 89.2646 340.913 89.354C340.828 89.4434 340.761 89.5487 340.716 89.664C340.672 89.7793 340.65 89.9022 340.653 90.0257C340.656 90.1493 340.683 90.2711 340.733 90.3841C340.783 90.4972 340.855 90.5993 340.944 90.6846C341.034 90.77 341.139 90.8368 341.254 90.8815C341.37 90.9261 341.493 90.9476 341.616 90.9447C341.866 90.9389 342.103 90.8341 342.275 90.6536C342.447 90.473 342.541 90.2314 342.535 89.9818C342.529 89.7323 342.424 89.4953 342.244 89.3229C342.063 89.1506 341.822 89.0571 341.572 89.0629Z" fill="#612B14"/>
<path d="M348.522 89.0629C348.272 89.0687 348.035 89.1734 347.863 89.354C347.69 89.5346 347.597 89.7762 347.603 90.0257C347.608 90.2753 347.713 90.5123 347.894 90.6846C348.074 90.857 348.316 90.9505 348.566 90.9447C348.815 90.9389 349.052 90.8341 349.224 90.6536C349.397 90.473 349.49 90.2314 349.484 89.9818C349.479 89.7323 349.374 89.4953 349.193 89.3229C349.013 89.1506 348.771 89.0571 348.522 89.0629Z" fill="#612B14"/>
<path d="M343.617 81.1071C343.314 81.3367 343.074 81.6384 342.919 81.9847C342.763 82.3309 342.697 82.7107 342.726 83.0892C342.719 83.466 342.806 83.8387 342.977 84.1744C343.157 84.4656 343.401 84.7111 343.692 84.8918C343.982 85.0724 344.311 85.1833 344.652 85.2157C345.333 85.2753 346.019 85.2116 346.678 85.0275C346.267 84.9758 345.88 84.8052 345.564 84.5366C345.249 84.2681 345.019 83.9132 344.903 83.5158C344.851 83.3143 344.84 83.1046 344.871 82.8989C344.901 82.6932 344.972 82.4956 345.079 82.3176C345.187 82.1396 345.328 81.9847 345.496 81.8619C345.664 81.7392 345.854 81.651 346.057 81.6026C345.694 81.1988 345.209 80.9237 344.677 80.8185C344.303 80.8139 343.936 80.9139 343.617 81.1071Z" fill="#744527"/>
<path d="M349.608 87.1349C349.088 87.0621 348.559 87.1247 348.071 87.3168C348.031 87.3355 347.997 87.3652 347.973 87.4024C347.95 87.4397 347.937 87.4828 347.937 87.5269C347.937 87.571 347.95 87.6142 347.973 87.6514C347.997 87.6886 348.031 87.7184 348.071 87.7371C348.544 87.9371 349.061 88.0085 349.57 87.9441C349.707 87.9545 349.843 87.9286 349.967 87.8691C350.09 87.8097 350.196 87.7187 350.273 87.6053C350.323 87.3921 350.034 87.1788 349.608 87.1349Z" fill="#633A21"/>
<path d="M341.685 87.2441C341.17 87.1874 340.648 87.2674 340.173 87.4762C340.133 87.4937 340.099 87.5227 340.075 87.5594C340.051 87.5962 340.038 87.6392 340.038 87.6832C340.038 87.7271 340.051 87.7701 340.075 87.8069C340.099 87.8436 340.133 87.8726 340.173 87.8902C340.661 88.0754 341.188 88.1315 341.704 88.0532C342.049 88.0532 342.331 87.8651 342.363 87.6894C342.394 87.5138 342.118 87.2503 341.685 87.2441Z" fill="#633A21"/>
<path d="M342.243 96.0253C342.243 96.0253 345.612 94.9652 347.638 95.9625C347.638 95.9625 347.211 99.4313 344.966 99.607C342.72 99.7826 342.243 96.0253 342.243 96.0253Z" fill="#F3FFFF"/>
<path d="M359.675 110.215L376.085 140.161L396.96 153.753L395.994 157.768L372.44 147.079L356.42 123.168L359.675 110.215Z" fill="#FF5C5D"/>
<path d="M359.48 114.172L358.866 126.818L362.077 123.361" stroke="#534F6B" stroke-width="0.25" stroke-miterlimit="10"/>
<path d="M376.084 140.16L374.823 142.732" stroke="#534F6B" stroke-width="0.25" stroke-miterlimit="10"/>
<path d="M338.404 108.588L328.757 110.213L331.893 148.369L328.061 162.113C328.061 162.113 332.853 165.945 337.369 164.082L338.404 108.588Z" fill="#FF5C5D"/>
<path d="M328.412 160.953C331.142 162.544 334.331 163.161 337.457 162.703" stroke="#534F6B" stroke-width="0.25" stroke-miterlimit="10"/>
<path d="M333.944 151.087L328.374 150.453L327.904 151.996L333.499 152.906L333.944 151.087Z" fill="#414054"/>
<path d="M338.404 108.588C338.404 108.588 332.759 109.403 333.248 117.621L335.807 119.019L333.925 120.048C333.925 120.048 332.182 139.493 337.438 147.077L338.404 108.588Z" fill="#3D3C4F"/>
<path d="M350.887 108.451V164.773C350.887 164.773 356.168 166.655 359.668 162.591L357.649 151.494L359.656 110.214L350.887 108.451Z" fill="#FF5C5D"/>
<path d="M350.887 163.425C353.879 163.705 356.884 163.035 359.474 161.512" stroke="#534F6B" stroke-width="0.25" stroke-miterlimit="10"/>
<path d="M353.634 151.087L359.204 150.453L359.674 151.996L354.079 152.906L353.634 151.087Z" fill="#414054"/>
<path d="M350.887 108.451C350.887 108.451 356.287 109.599 355.779 117.81L353.22 119.215L355.102 120.238C355.102 120.238 356.162 139.482 350.906 147.078L350.887 108.451Z" fill="#3D3C4F"/>
<path d="M329.221 147.078C330.125 147.713 330.89 148.526 331.467 149.468C332.094 150.842 330.808 152.404 329.246 154.348C329.617 154.589 329.951 154.883 330.237 155.22C330.379 155.393 330.481 155.595 330.534 155.813C330.587 156.03 330.591 156.256 330.545 156.475C330.438 156.901 326.944 155.678 327.408 153.401C327.578 152.489 328.04 151.656 328.726 151.03L327.17 149.656L329.221 147.078Z" fill="#F89D6E"/>
<path d="M328.757 110.215L315.365 141.051L325.859 151.088L329.221 147.079L322.578 139.747L333.248 122.026L328.757 110.215Z" fill="#FF5C5D"/>
<path d="M329.409 115.006L330.175 127.325L327.904 125.525" stroke="#534F6B" stroke-width="0.25" stroke-miterlimit="10"/>
<path d="M322.579 139.738H319.844" stroke="#534F6B" stroke-width="0.25" stroke-miterlimit="10"/>
<path d="M400.655 154.751C400.714 154.602 400.714 154.435 400.655 154.286C400.59 154.211 400.504 154.156 400.408 154.128C400.312 154.1 400.211 154.101 400.115 154.13C399.934 154.187 399.775 154.302 399.664 154.456C399.476 154.696 399.356 154.982 399.315 155.284C399.274 155.586 399.314 155.893 399.431 156.175C399.595 156.57 400.686 157.586 401.062 156.858C401.207 156.582 400.868 156.231 400.767 155.949C400.624 155.566 400.585 155.153 400.655 154.751Z" fill="#F88E57"/>
<path d="M383.554 267.486L372.601 266.329C371.462 266.209 370.419 265.641 369.699 264.751C368.979 263.862 368.642 262.722 368.762 261.584L370.086 249.052L389.623 251.116L388.3 263.648C388.179 264.786 387.612 265.83 386.722 266.55C385.832 267.27 384.693 267.606 383.554 267.486Z" fill="#CC3E1F"/>
<path d="M368.864 259.736L388.416 261.831C388.628 261.853 388.833 261.916 389.021 262.018C389.208 262.119 389.373 262.257 389.507 262.422C389.641 262.588 389.741 262.778 389.802 262.982C389.862 263.186 389.882 263.4 389.859 263.612C389.837 263.824 389.774 264.029 389.672 264.217C389.571 264.404 389.433 264.569 389.268 264.703C389.102 264.837 388.912 264.937 388.708 264.998C388.503 265.058 388.289 265.078 388.077 265.055L368.526 262.96C368.314 262.938 368.108 262.874 367.921 262.773C367.734 262.672 367.568 262.534 367.434 262.369C367.3 262.203 367.2 262.013 367.14 261.809C367.08 261.604 367.06 261.39 367.083 261.178C367.105 260.967 367.168 260.761 367.27 260.574C367.371 260.387 367.509 260.221 367.674 260.087C367.84 259.953 368.03 259.853 368.234 259.793C368.438 259.733 368.653 259.713 368.864 259.736Z" fill="#F7674A"/>
<path d="M370.245 252.679L388.712 254.661C388.924 254.683 389.129 254.747 389.316 254.848C389.503 254.949 389.669 255.087 389.803 255.252C389.937 255.418 390.037 255.608 390.097 255.812C390.158 256.017 390.177 256.231 390.154 256.443C390.109 256.871 389.895 257.264 389.559 257.534C389.224 257.805 388.795 257.931 388.367 257.885L369.9 255.916C369.688 255.894 369.483 255.83 369.295 255.729C369.108 255.627 368.943 255.49 368.809 255.324C368.675 255.159 368.575 254.969 368.514 254.764C368.454 254.56 368.435 254.346 368.457 254.134C368.478 253.921 368.542 253.714 368.643 253.525C368.744 253.337 368.882 253.17 369.048 253.035C369.214 252.899 369.406 252.798 369.611 252.737C369.816 252.676 370.032 252.656 370.245 252.679Z" fill="#F7674A"/>
<path d="M370.111 249.051L389.655 251.115L403.609 119.014L384.066 116.949L370.111 249.051Z" fill="#D96E20"/>
<path d="M384.066 116.959L370.112 249.061L376.244 249.708L390.198 117.607L384.066 116.959Z" fill="#FCAE3F"/>
<path d="M376.243 249.698L383.523 250.467L397.477 118.366L390.198 117.597L376.243 249.698Z" fill="#EF8E1D"/>
<path d="M370.677 243.434L370.083 249.061L389.626 251.125L390.22 245.498L370.677 243.434Z" fill="#D9CEDC"/>
<path d="M403.635 119.021L396.27 105.09C396.174 104.908 396.035 104.753 395.865 104.637C395.694 104.522 395.498 104.451 395.294 104.429C395.089 104.407 394.883 104.436 394.692 104.513C394.501 104.59 394.333 104.713 394.2 104.87L384.089 116.958L403.635 119.021Z" fill="#FBCC7C"/>
<path d="M394.199 104.87L391.188 108.471L398.465 109.242L396.269 105.09C396.173 104.908 396.034 104.753 395.864 104.637C395.693 104.522 395.497 104.451 395.293 104.429C395.088 104.407 394.882 104.436 394.691 104.513C394.5 104.59 394.331 104.713 394.199 104.87Z" fill="#0F1628"/>
<path d="M399.375 155.979C399.018 155.887 398.656 155.818 398.29 155.772C398.113 155.741 397.932 155.751 397.759 155.802C397.587 155.853 397.43 155.944 397.299 156.067C397.175 156.217 397.106 156.405 397.104 156.6C397.117 156.754 397.163 156.904 397.24 157.038C397.317 157.173 397.423 157.289 397.55 157.378C397.403 157.361 397.255 157.39 397.125 157.459C396.996 157.528 396.89 157.636 396.822 157.767C396.777 157.901 396.778 158.046 396.826 158.179C396.874 158.313 396.965 158.426 397.086 158.5C396.948 158.558 396.825 158.644 396.722 158.752C396.619 158.86 396.54 158.988 396.49 159.128C396.414 159.397 396.753 159.755 397.06 159.837C396.919 159.865 396.791 159.936 396.692 160.041C396.593 160.145 396.529 160.278 396.508 160.42C396.521 160.606 396.587 160.785 396.698 160.935C396.809 161.085 396.961 161.2 397.136 161.267C397.502 161.426 397.892 161.524 398.29 161.555L399.331 161.7C399.695 161.75 400.14 161.769 400.316 161.499C400.492 161.229 400.209 160.834 400.316 160.514C400.423 160.194 400.68 160.144 400.818 159.931C401.188 159.366 400.466 158.544 400.874 158.005C400.99 157.881 401.118 157.77 401.257 157.672C402.141 156.882 400.586 156.286 399.375 155.979Z" fill="#F89D6E"/>
<path d="M195.124 129.44C196.952 129.125 198.693 128.431 200.236 127.401C200.781 127.001 201.155 126.41 201.283 125.746C201.411 125.082 201.283 124.394 200.926 123.82C202.268 122.565 205.003 120.445 204.765 120.012C204.138 118.808 196.78 124.623 194.327 126.567C194.559 127.483 194.867 128.524 195.124 129.44Z" fill="#E68450"/>
<path d="M199.778 123.839C199.591 123.944 199.422 124.077 199.276 124.234C199.202 124.311 199.144 124.403 199.108 124.503C199.071 124.604 199.056 124.711 199.063 124.817C199.066 124.878 199.082 124.938 199.11 124.992C199.138 125.046 199.178 125.094 199.226 125.131C199.321 125.186 199.429 125.215 199.539 125.215C199.65 125.215 199.758 125.186 199.853 125.131C200.293 124.954 200.714 124.731 201.108 124.466C201.421 124.253 201.672 123.695 201.258 123.444C200.844 123.193 200.11 123.638 199.778 123.839Z" fill="#F88E57"/>
<path d="M200.387 124.71C200.2 124.815 200.031 124.949 199.885 125.106C199.74 125.264 199.663 125.474 199.672 125.689C199.676 125.751 199.692 125.811 199.72 125.866C199.748 125.921 199.787 125.97 199.835 126.009C199.93 126.064 200.039 126.093 200.149 126.093C200.259 126.093 200.367 126.064 200.462 126.009C200.903 125.833 201.324 125.61 201.717 125.344C202.037 125.131 202.288 124.572 201.867 124.321C201.447 124.071 200.72 124.51 200.387 124.71Z" fill="#F88E57"/>
<path d="M200.995 125.582C200.808 125.687 200.639 125.82 200.493 125.977C200.348 126.138 200.271 126.35 200.28 126.567C200.284 126.627 200.301 126.686 200.329 126.74C200.357 126.794 200.396 126.842 200.443 126.88C200.538 126.935 200.647 126.964 200.757 126.964C200.867 126.964 200.975 126.935 201.07 126.88C201.511 126.703 201.931 126.48 202.325 126.215C202.639 126.002 202.889 125.45 202.469 125.199C202.049 124.948 201.334 125.381 200.995 125.582Z" fill="#F88E57"/>
<path d="M199.521 123.957C199.163 127.094 198.178 128.731 195.13 129.44C194.559 128.63 194.898 127.376 194.333 126.567C195.731 125.219 197.033 123.775 198.228 122.245C198.724 121.687 200.286 122.245 200.951 123.556C201.34 124.321 202.243 125.256 200.951 125.168C200.254 125.118 199.922 124.484 199.521 123.957Z" fill="#F89D6E"/>
<path d="M176.162 132.105C176.162 132.105 190.966 126.403 194.353 124.641L196.611 130.148C196.611 130.148 182.184 135.887 177.567 137.989L176.162 132.105Z" fill="#77A4E5"/>
<path d="M155.418 111.994C161.981 110.121 168.821 109.414 175.629 109.906C175.942 106.374 175.629 76.6604 162.042 79.5898C148.769 82.4501 154.678 110.138 155.418 111.994Z" fill="#633A21"/>
<path d="M176.03 114.655C174.884 114.848 173.719 114.894 172.561 114.793C172.793 109.957 176.952 83.3356 162.356 83.7307C150.319 84.0444 158.517 114.737 157.551 115.163C155.487 116.079 153.405 114.918 153.26 114.254C151.194 104.816 149.978 95.2113 149.629 85.5561C149.516 81.3032 150.99 74.7295 152.175 74.0834C153.787 73.1989 158.9 74.7483 160.524 75.6578C161.829 74.6918 166 70.5644 169.237 70.8718C175.265 71.499 179.003 91.6092 176.03 114.655Z" fill="#744527"/>
<path d="M187.033 160.714C187.353 165.519 179.75 171.058 175.598 168.505C176.501 161.724 173.691 129.834 168.215 104.486C169.043 104.329 169.882 104.23 170.724 104.191C172.524 104.191 176.865 106.788 176.677 109.937C174.971 138.409 187.403 155.194 187.033 160.714Z" fill="#267DFF"/>
<path d="M162.607 266.366C162.607 266.366 158.273 264.271 157.495 261.831C155.55 255.759 165.568 229.527 165.919 226.208L160.324 225.029C160.324 225.029 154.729 255.828 152.721 257.02C151.429 257.804 151.241 258.18 151.241 258.18C151.241 258.18 157.482 267.784 162.607 266.366Z" fill="#E19865"/>
<path d="M151.24 258.199C151.24 258.199 155.92 263.958 158.899 265.325C161.879 266.692 164.2 266.059 165.172 267.332C163.565 267.967 161.813 268.148 160.11 267.853C158.046 267.502 152.884 262.923 152.884 262.923L152.677 267.614C152.673 267.695 152.642 267.771 152.588 267.831C152.534 267.89 152.462 267.929 152.382 267.941C152.337 267.946 152.291 267.942 152.247 267.929C152.203 267.917 152.162 267.895 152.127 267.867C152.091 267.838 152.061 267.803 152.04 267.763C152.018 267.723 152.004 267.679 151.999 267.633C151.887 266.454 151.466 262.615 150.645 261.743C149.672 260.696 150.136 259.259 151.24 258.199Z" fill="#332B29"/>
<path d="M192.998 265.357C192.998 265.357 188.262 264.51 186.857 262.365C183.35 257.039 184.191 230.186 183.633 226.887L177.931 227.263C177.931 227.263 180.772 257.999 180.553 259.141C180.444 259.663 180.205 260.148 179.857 260.552C179.857 260.552 188.45 268.098 192.998 265.357Z" fill="#E19865"/>
<path d="M179.856 260.553C179.856 260.553 185.915 264.837 189.152 265.351C192.389 265.866 194.452 264.636 195.726 265.602C194.35 266.653 192.712 267.304 190.99 267.484C188.907 267.704 182.704 264.674 182.704 264.674L183.764 269.253C183.784 269.33 183.775 269.412 183.739 269.484C183.703 269.555 183.643 269.611 183.569 269.642C183.527 269.659 183.482 269.668 183.437 269.668C183.391 269.668 183.346 269.659 183.304 269.642C183.262 269.624 183.224 269.599 183.192 269.566C183.16 269.534 183.135 269.496 183.118 269.454C182.691 268.35 181.236 264.774 180.232 264.141C179.015 263.375 179.078 261.87 179.856 260.553Z" fill="#332B29"/>
<path d="M160.825 154.55C158.256 157.815 156.339 161.544 155.18 165.533C153.367 171.981 163.755 205.954 163.755 205.954L152.997 254.034L157.683 255.565C157.683 255.565 173.07 210.257 173.898 195.491L179.292 256.6L185.132 256.305C185.132 256.305 182.403 176.19 181.801 168.933C181.199 161.675 181.262 154.299 181.262 154.299L160.825 154.55Z" fill="#607377"/>
<path d="M173.898 195.489L173.176 167.55C173.176 167.55 179.198 164.019 178.389 154.309" stroke="#7B9599" stroke-width="0.25" stroke-miterlimit="10"/>
<path d="M159.433 156.492C159.433 156.492 165.16 164.747 181.306 157.59" stroke="#7B9599" stroke-width="0.25" stroke-miterlimit="10"/>
<path d="M164.256 156.178C164.256 156.178 159.552 163.768 158.812 168.378C158.072 172.988 168.127 205.01 168.127 205.01L155.073 254.709" stroke="#7B9599" stroke-width="0.25" stroke-miterlimit="10"/>
<path d="M160.368 163.586C160.368 163.586 163.818 166.616 167.142 156.881" stroke="#7B9599" stroke-width="0.25" stroke-miterlimit="10"/>
<path d="M151.378 106.83C153.041 109.841 159.263 129.349 158.843 134.198C157.984 144.272 156.378 153.016 156.428 154.133C162.393 159.966 176.018 159.496 181.261 154.264C179.9 148.381 175.93 136.306 174.487 129.581C173.552 125.441 176.168 121.678 176.306 115.148C176.369 112.012 176.074 108.123 169.325 104.334C169.325 104.334 159.238 104.961 151.378 106.843" fill="white"/>
<path d="M156.647 152.047C160.078 155.009 164.54 156.495 169.061 156.181C176.908 155.773 180.709 152.047 180.709 152.047" stroke="#949494" stroke-width="0.25" stroke-miterlimit="10"/>
<path d="M165.549 159.404C164.175 166.304 152.865 171.711 147.038 163.606C148.368 161.185 155.707 141.025 151.379 106.832C154.404 106.033 157.49 105.485 160.606 105.195C165.028 131.415 166.991 152.127 165.549 159.404Z" fill="#267DFF"/>
<path d="M161.867 98.2777C161.867 98.2777 165.367 116.562 168.34 115.904C171.313 115.245 166.778 97.9766 166.778 97.9766L161.867 98.2777Z" fill="#F88E57"/>
<path d="M152.752 84.1523C152.752 91.1276 159.733 100.618 164.588 100.656C169.651 100.693 176.318 90.7386 172.078 81.1666C168.051 72.0837 152.752 77.1458 152.752 84.1523Z" fill="#F89D6E"/>
<path d="M162.889 83.1856C166.315 85.2703 170.212 86.4569 174.218 86.6356C175.115 82.3514 172.901 73.8331 161.716 75.4138C148.544 77.2956 151.134 89.0882 151.611 90.5748C155.864 89.6904 160.976 86.6669 162.889 83.1856Z" fill="#744527"/>
<path d="M160.907 86.7424C161.157 86.7424 161.258 87.0686 161.289 87.3195C161.317 87.4115 161.317 87.5098 161.289 87.6018C161.22 87.7586 161.026 87.7962 160.863 87.8213C159.941 87.9531 158.159 88.4486 158.015 88.1789C157.883 87.2442 160.85 86.7362 160.907 86.7424Z" fill="#633A21"/>
<path d="M166.96 86.7615C166.715 86.8242 166.678 87.1504 166.697 87.3888C166.691 87.4856 166.715 87.5819 166.766 87.6648C166.86 87.8028 167.06 87.8028 167.23 87.7965C168.158 87.7526 170.002 87.9219 170.09 87.6146C169.996 86.6862 166.96 86.7489 166.96 86.7615Z" fill="#633A21"/>
<path d="M164.952 92.399C164.491 92.2999 164.01 92.3712 163.597 92.5997C163.321 92.7628 163.56 93.1454 163.836 93.0764C164.159 92.9816 164.498 92.9518 164.833 92.9886C165.216 93.0451 165.341 92.468 164.952 92.399Z" fill="#F88E57"/>
<path d="M166.577 95.1172L162.186 95.619C162.293 96.286 162.553 96.9192 162.945 97.4694C163.224 97.7253 163.558 97.9147 163.921 98.0233C164.283 98.132 164.666 98.1571 165.04 98.0967C165.354 98.0433 165.651 97.9151 165.906 97.723C166.16 97.5309 166.364 97.2804 166.502 96.9927C166.655 96.3793 166.681 95.7409 166.577 95.1172Z" fill="white"/>
<path d="M160.687 89.641C160.563 89.6443 160.441 89.6719 160.328 89.7222C160.216 89.7725 160.114 89.8446 160.029 89.9343C159.944 90.024 159.877 90.1296 159.833 90.245C159.789 90.3604 159.768 90.4834 159.771 90.607C159.774 90.7305 159.802 90.8522 159.852 90.9651C159.902 91.078 159.974 91.1799 160.064 91.2649C160.154 91.35 160.259 91.4165 160.375 91.4607C160.49 91.505 160.613 91.5261 160.737 91.5228C160.986 91.5161 161.223 91.4106 161.395 91.2294C161.567 91.0483 161.659 90.8063 161.653 90.5568C161.646 90.3072 161.54 90.0705 161.359 89.8988C161.178 89.7271 160.936 89.6343 160.687 89.641Z" fill="#612B14"/>
<path d="M167.976 89.1372C167.727 89.143 167.49 89.2477 167.317 89.4283C167.145 89.6088 167.051 89.8505 167.057 90.1C167.063 90.3496 167.168 90.5866 167.348 90.7589C167.529 90.9312 167.77 91.0248 168.02 91.019C168.27 91.0131 168.507 90.9084 168.679 90.7279C168.851 90.5473 168.945 90.3056 168.939 90.0561C168.933 89.8066 168.828 89.5696 168.648 89.3972C168.467 89.2249 168.226 89.1313 167.976 89.1372Z" fill="#612B14"/>
<path d="M171.288 137.21L170.924 162.489L152.275 161.391L153.931 136.576L171.288 137.21Z" fill="#A6754B"/>
<path d="M155.073 138.598L153.881 159.875L169.839 160.508V139.344L155.073 138.598Z" fill="white"/>
<path d="M158.498 137.568L158.454 139.764L166.904 140.184V137.989L158.498 137.568Z" fill="#805A38"/>
<path d="M163.378 149.309C164.745 150.031 168.929 149.974 169.65 149.868C170.196 149.786 170.403 149.29 170.234 149.165C170.304 149.203 170.382 149.225 170.462 149.229C170.542 149.234 170.622 149.22 170.696 149.19C170.77 149.161 170.837 149.115 170.891 149.056C170.946 148.997 170.987 148.928 171.011 148.851C171.037 148.726 171.019 148.596 170.961 148.482C170.903 148.368 170.808 148.277 170.692 148.224C170.82 148.23 170.948 148.193 171.052 148.118C171.157 148.043 171.233 147.934 171.269 147.81C171.325 147.559 171.212 147.026 170.974 146.926C171.3 147.014 171.601 146.631 171.557 146.298C171.464 145.926 171.242 145.6 170.93 145.376C171.355 145.356 171.776 145.286 172.184 145.169C172.29 145.129 172.38 145.055 172.44 144.959C172.5 144.862 172.527 144.749 172.517 144.636C172.454 144.316 172.053 144.222 171.727 144.203C170.269 144.196 168.815 144.367 167.398 144.711C166.382 145.082 164.839 146.38 163.403 146.286C163.206 147.283 163.197 148.309 163.378 149.309Z" fill="#F88E57"/>
<path d="M164.52 145.214L163.723 150.233C163.723 150.233 140.389 148.483 140.614 145.547C143.236 111.831 151.378 106.832 151.378 106.832C157.224 110.219 153.342 122.457 153.342 122.457C153.342 122.457 148.455 137.43 147.069 143.157L164.52 145.214Z" fill="#267DFF"/>
<path d="M161.867 105.036C161.867 105.036 165.26 118.943 168.905 118.247C172.173 117.619 169.325 104.334 169.325 104.334" stroke="#949494" stroke-width="0.25" stroke-miterlimit="10"/>
<path d="M152.275 108.883C152.275 108.883 156.371 114.585 152.696 124.439" stroke="#534F6B" stroke-width="0.25" stroke-miterlimit="10"/>
</g>
<defs>
<filter id="filter0_d_0_593" x="38.9073" y="-4.91339" width="478.084" height="370.285" filterUnits="userSpaceOnUse" color-interpolation-filters="sRGB">
<feFlood flood-opacity="0" result="BackgroundImageFix"/>
<feColorMatrix in="SourceAlpha" type="matrix" values="0 0 0 0 0 0 0 0 0 0 0 0 0 0 0 0 0 0 127 0" result="hardAlpha"/>
<feOffset dx="2" dy="2"/>
<feGaussianBlur stdDeviation="10"/>
<feComposite in2="hardAlpha" operator="out"/>
<feColorMatrix type="matrix" values="0 0 0 0 0 0 0 0 0 0 0 0 0 0 0 0 0 0 0.05 0"/>
<feBlend mode="normal" in2="BackgroundImageFix" result="effect1_dropShadow_0_593"/>
<feBlend mode="normal" in="SourceGraphic" in2="effect1_dropShadow_0_593" result="shape"/>
</filter>
</defs>
</svg>
