<svg width="40" height="48" viewBox="0 0 40 48" fill="none" xmlns="http://www.w3.org/2000/svg">
<path d="M17.2515 26.6561C17.2319 26.6509 17.2019 26.6587 17.1758 26.66C17.2097 26.6821 17.2436 26.7055 17.2776 26.7276C17.2815 26.6847 17.275 26.66 17.2515 26.6561Z" fill="#B2B2B2"/>
<path d="M17.0316 26.5697C17.0668 26.6087 17.0903 26.6568 17.153 26.6594C17.1595 26.6607 17.166 26.6607 17.1738 26.6607C17.1229 26.6269 17.0734 26.5944 17.0225 26.5605C17.0264 26.5631 17.029 26.5671 17.0316 26.5697Z" fill="#575757"/>
<path d="M21.3134 29.8786C21.8561 31.061 21.75 32.488 20.8768 33.3426C20.8309 33.3869 20.7746 33.4207 20.7208 33.4558C20.5831 33.5495 20.5294 33.6327 20.4009 33.742C20.2724 33.8512 20.0574 33.967 19.9132 34.0529C19.769 34.14 19.6051 34.192 19.4307 34.209C18.7228 34.2441 18.0568 34.2077 17.4524 34.0672C17.3016 34.0307 17.1522 33.993 17.0067 33.9527C16.9188 33.928 16.8336 33.8981 16.7497 33.8681C16.6946 33.8473 16.6409 33.8278 16.5871 33.8083C16.4508 33.7576 16.3171 33.7081 16.186 33.6522C16.0562 33.5924 15.9316 33.5247 15.8097 33.461C15.7782 33.4441 15.7507 33.4272 15.7205 33.4103C14.9129 33.02 14.1381 32.5713 13.4026 32.0704C13.2886 32.0262 13.1837 31.9651 13.0932 31.887C13.0487 31.8493 13.0093 31.8064 12.9687 31.7648C12.8992 31.6919 12.8323 31.6165 12.7681 31.5384C12.6658 31.4174 12.5479 31.3134 12.4338 31.2041C12.3184 31.0974 12.2201 30.9778 12.1152 30.862C12.0182 30.7553 11.9264 30.6474 11.8399 30.5381C11.5436 30.1687 11.2971 29.7797 11.0716 29.3921C10.521 28.3814 10.2142 27.3902 10.0123 26.4744C9.83534 25.6692 9.73832 24.9109 9.67408 24.1824C9.6649 24.0783 9.65704 23.9756 9.64917 23.8728C9.58755 23.0507 9.56526 22.2637 9.55478 21.4976C9.53642 19.9652 9.56789 18.52 9.56658 17.1074C9.56789 15.6947 9.53642 14.2495 9.55478 12.7172C9.56526 11.951 9.58755 11.164 9.64917 10.3419C9.65704 10.2418 9.6649 10.1403 9.67408 10.0389C9.73832 9.3104 9.83534 8.55334 10.0123 7.74815C10.2142 6.83239 10.521 5.84118 11.0716 4.83046C11.2971 4.44282 11.5436 4.05388 11.8386 3.68446C11.9264 3.57389 12.0182 3.46592 12.1152 3.35926C12.2201 3.24479 12.3184 3.12512 12.4338 3.01845C12.5479 2.90918 12.6658 2.80512 12.7681 2.68415C12.8323 2.6061 12.8992 2.53065 12.9687 2.45781C13.0093 2.41618 13.0487 2.37326 13.0932 2.33553C13.1837 2.25748 13.2886 2.19635 13.4026 2.15212C14.1381 1.65131 14.9129 1.20254 15.7205 0.812299C15.7507 0.795389 15.7782 0.777178 15.8097 0.761568C15.9316 0.697829 16.0562 0.630188 16.186 0.570351C16.3171 0.514417 16.4508 0.464987 16.5871 0.414256C16.6409 0.394744 16.6946 0.375232 16.7497 0.354419C16.8336 0.324501 16.9188 0.293281 17.0067 0.269867C17.1522 0.229542 17.3016 0.191819 17.4524 0.155397C18.0568 0.014911 18.7228 -0.0228121 19.4307 0.0123094C19.6051 0.0305205 19.769 0.0812516 19.9132 0.169706C20.0574 0.255558 20.2724 0.371329 20.4009 0.480596C20.5294 0.589863 20.5831 0.673114 20.7208 0.765471C20.7746 0.801893 20.8309 0.835714 20.8768 0.879941C21.75 1.73456 21.8561 3.16154 21.3134 4.34396C20.9647 5.10623 20.3616 5.67338 19.6497 5.99467C19.5199 6.05451 19.3862 6.10524 19.2485 6.14687C18.551 6.42654 17.7395 6.60735 17.2544 7.16149C17.2466 7.17059 17.2387 7.1797 17.2308 7.1888C17.1482 7.28636 17.0381 7.45287 16.9673 7.63498C16.9398 7.70652 16.9136 7.78847 16.8677 7.87563C16.8664 7.87823 16.8651 7.88213 16.8624 7.88603C16.848 7.90945 16.8323 7.93286 16.8166 7.95758C16.6723 8.22424 16.5242 8.62619 16.4167 9.12569C16.3197 9.56276 16.2502 10.0675 16.2043 10.6047C16.1978 10.6788 16.1912 10.753 16.186 10.8284C16.1388 11.4528 16.1178 12.1149 16.1086 12.7991C16.0916 14.1663 16.123 15.6206 16.1217 17.1074C16.123 18.5942 16.0916 20.0485 16.1086 21.4156C16.1178 22.0985 16.1388 22.7619 16.186 23.3863C16.1912 23.4644 16.1978 23.5411 16.2043 23.6179C16.2502 24.1551 16.3197 24.6598 16.4167 25.0969C16.5242 25.5951 16.6723 25.9983 16.8166 26.265C16.8336 26.2923 16.8506 26.3183 16.8664 26.3443C16.869 26.3469 16.869 26.3482 16.8703 26.3495C16.9136 26.4354 16.9398 26.5173 16.9673 26.5876C17.0381 26.7684 17.1482 26.9349 17.2308 27.0338L17.2544 27.0611C17.7395 27.6152 18.551 27.796 19.2485 28.0757C19.3862 28.1173 19.5199 28.1681 19.6497 28.2279C20.3616 28.5492 20.9647 29.1163 21.3134 29.8786Z" fill="white"/>
<path d="M18.2067 12.8255C18.1975 13.6125 18.2041 14.4268 18.2106 15.2879C18.2159 15.8798 18.2211 16.4924 18.2198 17.1064C18.2198 17.5539 18.2172 17.9975 18.2145 18.4345C20.5154 18.4605 22.731 19.1435 24.6294 20.4169C26.082 21.3912 28.0564 21.0114 29.0371 19.5701C30.019 18.1288 29.6362 16.1698 28.1836 15.1968C25.2325 13.2183 21.791 12.1621 18.2211 12.1348C18.2145 12.3494 18.2106 12.5783 18.2067 12.8255Z" fill="white"/>
<path d="M29.0393 40.5599C28.0573 39.1186 26.0842 38.7401 24.6303 39.7131C22.6926 41.0126 20.4258 41.6994 18.0751 41.6994C11.6091 41.6994 6.34931 36.4806 6.34931 30.0651C6.34931 28.1672 6.80948 26.3747 7.62494 24.7903C7.61052 24.6512 7.59609 24.5094 7.58298 24.365C7.5725 24.2531 7.56463 24.1426 7.55545 24.0281C7.48466 23.0772 7.46499 22.1914 7.45581 21.5227C7.44402 20.5693 7.45188 19.6535 7.45844 18.769C7.46368 18.1953 7.46761 17.6542 7.4663 17.1065C7.4663 16.5979 7.46237 16.0906 7.45844 15.5586C2.94326 18.8223 0 24.1087 0 30.0651C0 39.955 8.10871 48.0005 18.0751 48.0005C21.6975 48.0005 25.194 46.9403 28.1858 44.9345C29.6397 43.9602 30.0212 42.0012 29.0393 40.5599Z" fill="white"/>
<path d="M16.1152 18.5946C16.1191 18.1042 16.123 17.6086 16.1217 17.1078C16.123 15.621 16.0916 14.1667 16.1086 12.7996C16.1112 12.6097 16.1152 12.4223 16.1191 12.2363C13.7658 12.4887 11.5462 13.1911 9.55084 14.2552C9.55478 15.2308 9.56789 16.1764 9.56658 17.1091C9.56789 18.5218 9.53642 19.967 9.55478 21.4993C9.5574 21.6892 9.56133 21.8791 9.56526 22.0717C11.2775 20.2779 13.5573 19.0239 16.1152 18.5946Z" fill="white"/>
<path d="M28.2357 29.8786C27.6929 31.061 27.7991 32.488 28.6722 33.3426C28.7181 33.3869 28.7745 33.4207 28.8283 33.4558C28.9659 33.5495 29.0197 33.6327 29.1481 33.742C29.2766 33.8512 29.4916 33.967 29.6359 34.0529C29.7801 34.14 29.9439 34.192 30.1183 34.209C30.8263 34.2441 31.4923 34.2077 32.0966 34.0672C32.2474 34.0307 32.3969 33.993 32.5424 33.9527C32.6302 33.928 32.7155 33.8981 32.7994 33.8681C32.8544 33.8473 32.9082 33.8278 32.9619 33.8083C33.0983 33.7576 33.232 33.7081 33.3631 33.6522C33.4929 33.5924 33.6174 33.5247 33.7394 33.461C33.7708 33.4441 33.7984 33.4272 33.8285 33.4103C34.6361 33.02 35.4109 32.5713 36.1464 32.0704C36.2605 32.0262 36.3654 31.9651 36.4558 31.887C36.5004 31.8493 36.5397 31.8064 36.5804 31.7648C36.6498 31.6919 36.7167 31.6165 36.7809 31.5384C36.8832 31.4174 37.0012 31.3134 37.1153 31.2041C37.2306 31.0974 37.329 30.9778 37.4338 30.862C37.5309 30.7553 37.6226 30.6474 37.7092 30.5381C38.0055 30.1687 38.2519 29.7797 38.4774 29.3921C39.0281 28.3814 39.3348 27.3902 39.5367 26.4744C39.7137 25.6692 39.8107 24.9109 39.875 24.1824C39.8842 24.0783 39.892 23.9756 39.8999 23.8728C39.9615 23.0507 39.9838 22.2637 39.9943 21.4976C40.0126 19.9652 39.9812 18.52 39.9825 17.1074C39.9812 15.6947 40.0126 14.2495 39.9943 12.7172C39.9838 11.951 39.9615 11.164 39.8999 10.3419C39.892 10.2418 39.8842 10.1403 39.875 10.0389C39.8107 9.3104 39.7137 8.55334 39.5367 7.74815C39.3348 6.83239 39.0281 5.84118 38.4774 4.83046C38.2519 4.44282 38.0055 4.05388 37.7105 3.68446C37.6226 3.57389 37.5309 3.46592 37.4338 3.35926C37.329 3.24479 37.2306 3.12512 37.1153 3.01845C37.0012 2.90918 36.8832 2.80512 36.7809 2.68415C36.7167 2.6061 36.6498 2.53065 36.5804 2.45781C36.5397 2.41618 36.5004 2.37326 36.4558 2.33553C36.3654 2.25748 36.2605 2.19635 36.1464 2.15212C35.4109 1.65131 34.6361 1.20254 33.8285 0.812299C33.7984 0.795389 33.7708 0.777178 33.7394 0.761568C33.6174 0.697829 33.4929 0.630188 33.3631 0.570351C33.232 0.514417 33.0983 0.464987 32.9619 0.414256C32.9082 0.394744 32.8544 0.375232 32.7994 0.354419C32.7155 0.324501 32.6302 0.293281 32.5424 0.269867C32.3969 0.229542 32.2474 0.191819 32.0966 0.155397C31.4923 0.014911 30.8263 -0.0228121 30.1183 0.0123094C29.9439 0.0305205 29.7801 0.0812516 29.6359 0.169706C29.4916 0.255558 29.2766 0.371329 29.1481 0.480596C29.0197 0.589863 28.9659 0.673114 28.8283 0.765471C28.7745 0.801893 28.7181 0.835714 28.6722 0.879941C27.7991 1.73456 27.6929 3.16154 28.2357 4.34396C28.5844 5.10623 29.1875 5.67338 29.8994 5.99467C30.0292 6.05451 30.1629 6.10524 30.3005 6.14687C30.998 6.42654 31.8095 6.60735 32.2946 7.16149C32.3025 7.17059 32.3103 7.1797 32.3182 7.1888C32.4008 7.28636 32.5109 7.45287 32.5817 7.63498C32.6093 7.70652 32.6355 7.78847 32.6814 7.87563C32.6827 7.87823 32.684 7.88213 32.6866 7.88603C32.701 7.90945 32.7168 7.93286 32.7325 7.95758C32.8767 8.22424 33.0249 8.62619 33.1324 9.12569C33.2294 9.56276 33.2989 10.0675 33.3447 10.6047C33.3513 10.6788 33.3579 10.753 33.3631 10.8284C33.4103 11.4528 33.4313 12.1149 33.4405 12.7991C33.4575 14.1663 33.426 15.6206 33.4273 17.1074C33.426 18.5942 33.4575 20.0485 33.4405 21.4156C33.4313 22.0985 33.4103 22.7619 33.3631 23.3863C33.3579 23.4644 33.3513 23.5411 33.3447 23.6179C33.2989 24.1551 33.2294 24.6598 33.1324 25.0969C33.0249 25.5951 32.8767 25.9983 32.7325 26.265C32.7155 26.2923 32.6984 26.3183 32.6827 26.3443C32.6801 26.3469 32.6801 26.3482 32.6787 26.3495C32.6355 26.4354 32.6093 26.5173 32.5817 26.5876C32.5109 26.7684 32.4008 26.9349 32.3182 27.0338L32.2946 27.0611C31.8095 27.6152 30.998 27.796 30.3005 28.0757C30.1629 28.1173 30.0292 28.1681 29.8994 28.2279C29.1875 28.5492 28.5844 29.1163 28.2357 29.8786Z" fill="#FF5C5D"/>
</svg>
