<svg width="430" height="280" viewBox="0 0 430 280" fill="none" xmlns="http://www.w3.org/2000/svg">
<path d="M420.103 71.1119C409.259 50.2915 385.457 34.6257 362.279 39.4273C348.404 42.3022 334.61 51.9559 321.31 47.1139C311.724 43.6237 306.307 33.7178 298.253 27.5039C285.848 17.9411 268.238 18.052 253.115 22.3392C237.992 26.6263 224.158 34.5046 209.216 39.3769C183.763 47.6788 155.349 46.781 130.479 36.8752C119.565 32.5275 109.345 26.5356 98.2297 22.7023C87.114 18.8792 74.5081 17.3862 63.785 22.1778C53.062 26.9592 45.3595 39.4777 49.0849 50.5235C49.8299 52.7225 50.9878 54.8913 50.8368 57.2115C50.5952 60.9236 46.9705 63.6472 43.2954 64.4744C39.6305 65.3016 35.8044 64.7569 32.0387 64.8577C15.1637 65.2814 0.0809773 80.5135 0.000428433 97.2183C-0.0700518 111.068 8.56881 123.244 15.9491 135.016C23.3294 146.788 29.9646 160.91 25.5646 174.064C22.9568 181.862 16.8351 187.965 12.8278 195.157C2.43703 213.809 7.9949 238.493 22.5038 254.229C37.0126 269.956 58.7407 277.662 80.1767 279.488C101.623 281.324 123.129 277.884 144.374 274.485C165.619 271.085 187.146 267.706 208.572 269.653L207.424 269.038C249.299 279.276 293.098 281.728 335.869 276.24C344.82 275.09 355.1 272.619 358.886 264.508C362.077 257.659 359.208 249.629 359.872 242.114C360.819 231.28 369.035 222.413 377.986 216.119C386.937 209.824 397.096 205.134 405.171 197.76C420.959 183.325 426.315 160.991 428.661 139.848C431.249 116.566 430.917 91.9425 420.073 71.1119H420.103Z" fill="#FF928E"/>
<path d="M44.3019 98.9144C44.3019 83.69 54.9014 71.3682 70.5682 71.3682C86.0835 71.3682 96.5274 83.5259 96.5274 98.9144C96.5274 113.997 85.93 126.463 70.2611 126.463C54.7437 126.463 44.3019 114.305 44.3019 98.9144ZM133.547 72.5989H151.826L73.3343 180.324H55.0549L133.547 72.5989ZM80.3999 98.9144C80.3999 91.6817 76.4054 85.3761 70.2611 85.3761C63.8097 85.3761 60.4335 91.5299 60.4335 98.9144C60.4335 106.147 64.426 112.453 70.5703 112.453C77.0196 112.457 80.3999 106.147 80.3999 98.9144ZM110.352 154.009C110.352 138.774 120.951 126.463 136.618 126.463C152.133 126.463 162.577 138.62 162.577 154.009C162.577 169.09 151.98 181.555 136.311 181.555C120.798 181.555 110.352 169.397 110.352 154.009ZM146.45 154.009C146.45 146.776 142.455 140.471 136.311 140.471C129.859 140.471 126.483 146.624 126.483 154.009C126.483 161.242 130.476 167.547 136.62 167.547C143.071 167.551 146.45 161.242 146.45 154.009Z" fill="#F9F9F9"/>
<path d="M290.83 146.75L224.653 125.633L252.756 37.2425L264.596 0L330.771 21.1176L308.663 90.657L290.83 146.75Z" fill="#DBF5EC"/>
<path d="M285.713 137.206L234.337 120.819L270.238 7.89746L321.614 24.2931L285.713 137.206ZM241.139 121.254L279.884 133.619C280.509 133.818 281.168 133.892 281.822 133.837C282.476 133.782 283.113 133.598 283.696 133.296C284.279 132.994 284.797 132.58 285.22 132.078C285.644 131.575 285.964 130.994 286.163 130.367L318.007 30.2109C318.21 29.5731 318.285 28.9014 318.229 28.2344C318.172 27.5673 317.985 26.9179 317.678 26.3232C317.372 25.7285 316.951 25.2003 316.44 24.7685C315.93 24.3368 315.339 24.01 314.702 23.8069L276.112 11.4871C275.481 11.2846 274.815 11.2089 274.154 11.2642C273.493 11.3196 272.849 11.505 272.26 11.8098C271.67 12.1147 271.147 12.5329 270.719 13.0407C270.291 13.5485 269.967 14.1358 269.766 14.7691L237.91 114.995C237.51 116.254 237.625 117.621 238.231 118.794C238.836 119.968 239.882 120.852 241.139 121.254Z" fill="url(#paint0_linear_0_5)"/>
<path d="M264.154 68.1368C265.024 65.3977 266.686 62.9788 268.928 61.1859C271.171 59.3931 273.894 58.3068 276.753 58.0644C279.612 57.8221 282.478 58.4346 284.99 59.8245C287.501 61.2145 289.545 63.3193 290.862 65.8729C292.18 68.4265 292.712 71.3142 292.391 74.1707C292.07 77.0272 290.911 79.7242 289.06 81.9207C287.209 84.1172 284.75 85.7145 281.993 86.5105C279.236 87.3066 276.305 87.2656 273.572 86.3929C271.757 85.8138 270.074 84.8822 268.618 83.6513C267.163 82.4204 265.963 80.9143 265.089 79.2191C264.214 77.5238 263.681 75.6726 263.521 73.7711C263.361 71.8696 263.576 69.955 264.154 68.1368Z" fill="url(#paint1_linear_0_5)"/>
<path d="M296.855 172.726L250.553 120.864L319.565 59.019L348.645 32.96L394.945 84.8217L340.651 133.477L296.855 172.726Z" fill="#DBF5EC"/>
<path d="M297.285 161.901L261.338 121.639L349.504 42.6309L385.453 82.8907L297.285 161.901ZM266.983 125.481L294.091 155.839C294.975 156.828 296.215 157.425 297.539 157.499C298.862 157.572 300.16 157.116 301.148 156.231L379.341 86.1522C380.346 85.2505 380.953 83.9858 381.028 82.6361C381.103 81.2864 380.64 79.9621 379.74 78.9544L352.739 48.719C351.847 47.7199 350.596 47.1168 349.26 47.0422C347.924 46.9675 346.613 47.4275 345.616 48.321L267.366 118.445C266.879 118.881 266.483 119.409 266.2 119.999C265.916 120.589 265.752 121.228 265.716 121.882C265.679 122.535 265.772 123.189 265.988 123.807C266.204 124.424 266.539 124.993 266.975 125.481H266.983Z" fill="url(#paint2_linear_0_5)"/>
<path d="M313.724 91.4307C315.862 89.5131 318.519 88.2739 321.36 87.8699C324.202 87.4658 327.098 87.915 329.685 89.1606C332.271 90.4063 334.43 92.3924 335.889 94.8678C337.349 97.3431 338.042 100.196 337.883 103.067C337.723 105.937 336.718 108.696 334.993 110.994C333.268 113.291 330.902 115.025 328.194 115.975C325.486 116.925 322.557 117.049 319.778 116.332C316.999 115.614 314.496 114.087 312.583 111.943C310.022 109.071 308.703 105.297 308.917 101.451C309.131 97.6043 310.86 94.0005 313.724 91.4307Z" fill="url(#paint3_linear_0_5)"/>
<path d="M166.49 63.9989C173.158 54.7355 189.323 64.5199 189.323 64.5199C189.323 64.5199 194.333 87.0283 197.604 88.7534C200.876 90.4785 197.072 68.6717 197.072 68.6717C203.964 70.5362 217.841 85.1022 217.841 85.1022C217.841 85.1022 208.847 105.76 212.44 106.626C216.033 107.492 219.473 87.9267 219.473 87.9267C225.181 92.2918 228.359 102.08 228.359 102.08C231.262 117.167 211.775 120.131 211.775 120.131C211.775 120.131 208.814 127.341 210.165 137.434C210.48 139.066 210.64 140.725 210.644 142.387L208.89 141.725C208.925 141.2 208.939 140.683 208.927 140.18V140.17V140.149C208.908 139.832 208.882 139.38 208.843 138.828C208.701 137.573 208.638 136.66 208.613 136.014C208.249 132.107 207.551 126.933 206.347 125.448C206.602 125.258 206.83 125.034 207.027 124.784L206.347 125.448C200.929 130.742 185.498 126.152 177.777 121.272C170.056 116.392 174.593 115.405 180.541 113.272C186.489 111.139 195.549 115.709 198.905 115.258C202.26 114.806 198.749 111.77 193.01 110.086C187.271 108.402 182.38 112.946 173.046 110.404C163.711 107.863 163.232 88.2919 163.232 88.2919C168.726 92.5749 181.176 93.3482 182.413 91.3687C183.649 89.3893 167.057 83.3689 164.719 81.7443C162.381 80.1197 159.821 73.2583 166.49 63.9989Z" fill="url(#paint4_linear_0_5)"/>
<path d="M396.534 219.291C398.956 204.038 374.596 198.342 374.596 198.342C374.596 198.342 348.782 215.468 344.089 214.069C339.396 212.67 363.421 195.088 363.421 195.088C355.196 190.422 328.502 191.513 328.502 191.513C328.502 191.513 317.579 220.001 313.39 217.464C309.201 214.926 324.319 192.719 324.319 192.719C314.864 191.589 302.698 198.1 302.698 198.1C285.826 209.997 301.361 231.178 301.361 231.178C301.361 231.178 297.367 240.971 286.64 249.481C286.64 249.481 284.421 250.946 281.546 253.834L283.815 254.841C284.276 254.3 284.747 253.787 285.23 253.309C285.23 253.309 285.23 253.309 285.23 253.299L285.25 253.278C285.566 252.989 286.014 252.577 286.569 252.076C287.877 250.991 288.798 250.173 289.423 249.561C293.428 246.115 298.935 241.752 301.458 241.443C301.398 241.018 301.393 240.587 301.443 240.161C301.443 240.571 301.443 240.995 301.458 241.443C301.574 251.699 320.37 261.732 332.198 264.253C344.026 266.773 340.688 261.555 337.111 253.894C333.535 246.232 320.732 242.159 317.999 238.569C315.265 234.979 321.422 235.326 328.385 239.092C335.349 242.858 335.69 251.855 346.843 258.168C357.995 264.482 376.796 245.939 376.796 245.939C367.62 244.932 355.2 233.984 355.913 230.893C356.625 227.802 377.853 237.56 381.561 238.183C385.269 238.807 394.111 234.542 396.534 219.291Z" fill="url(#paint5_linear_0_5)"/>
<path d="M245.228 147.182V269.366L159.516 269.853V147.182H245.228Z" fill="#77A4E5"/>
<path d="M311.81 147.305H245.228V269.487H311.81V147.305Z" fill="#DAE3FE"/>
<path d="M267.014 97.1611L238.931 155.088H231.602L164.418 145.751L159.266 155.088H153.613L198.094 97.3724L267.014 97.1611Z" fill="#E65924"/>
<path d="M270.382 97.1611L242.297 155.088H156.979L201.461 97.3724L270.382 97.1611Z" fill="#77A4E5"/>
<path d="M321.084 158.301H243.64L197.866 97.1611L223.635 97.1652L273.977 97.1734L321.084 158.301Z" fill="#182D64"/>
<path d="M321.084 158.3H306.896L223.635 97.165L273.977 97.1732L321.084 158.3Z" fill="#182D64"/>
<path d="M263.73 221.417C263.601 221.597 263.534 221.813 263.537 222.035C263.54 222.256 263.613 222.471 263.746 222.647C263.768 222.676 263.787 222.708 263.801 222.742C268.871 225.792 284.071 238.126 284.071 246.829V264.85H238.192V246.825C238.192 238.071 253.601 225.533 258.556 222.649C258.687 222.471 258.759 222.256 258.761 222.034C258.76 221.807 258.688 221.586 258.556 221.402C253.587 218.452 238.19 206.018 238.19 197.255V179.229H284.067V197.255C284.071 205.995 268.713 218.506 263.73 221.417Z" fill="#EAF7F9"/>
<path d="M238.002 264.854H284.014C284.367 264.854 284.716 264.923 285.042 265.059C285.369 265.194 285.665 265.392 285.915 265.642C286.164 265.892 286.362 266.189 286.497 266.516C286.632 266.843 286.702 267.193 286.702 267.547V269.493H235.199V267.662C235.2 266.917 235.495 266.203 236.021 265.677C236.546 265.15 237.259 264.854 238.002 264.854Z" fill="#267DFF"/>
<path d="M278.117 191.209C275.337 191.25 270.556 191.753 262.821 193.708C257.524 195.047 248.393 194.038 243.575 193.345C243.176 193.287 242.77 193.317 242.383 193.43C241.997 193.544 241.639 193.74 241.335 194.004C241.03 194.269 240.786 194.596 240.619 194.963C240.451 195.33 240.365 195.729 240.365 196.132V198.21C240.365 203.933 255.733 216.329 259.797 219.506C260.101 219.744 260.347 220.048 260.516 220.395C260.685 220.743 260.773 221.124 260.773 221.51V253.329C260.771 253.865 260.639 254.392 260.39 254.866C260.14 255.34 259.78 255.747 259.34 256.051C256.142 258.291 250.757 264.851 250.757 264.851H271.127C271.127 264.851 265.665 258.521 262.598 256.172C262.252 255.907 261.971 255.566 261.779 255.174C261.586 254.783 261.486 254.353 261.486 253.916V221.5C261.486 221.116 261.572 220.737 261.738 220.39C261.905 220.044 262.146 219.74 262.446 219.5C266.43 216.302 281.463 203.862 281.463 198.143V194.51C281.463 194.072 281.376 193.638 281.208 193.235C281.039 192.831 280.792 192.464 280.48 192.157C280.169 191.85 279.8 191.608 279.394 191.445C278.988 191.282 278.554 191.202 278.117 191.209Z" fill="#FF5C5D"/>
<path d="M235.199 176.369H286.702V178.215C286.702 178.956 286.408 179.667 285.885 180.191C285.362 180.715 284.653 181.009 283.913 181.009H237.887C237.174 181.009 236.491 180.725 235.986 180.22C235.482 179.715 235.199 179.03 235.199 178.316V176.369Z" fill="#267DFF"/>
<path d="M343.97 183.233H303.671C303.211 183.232 302.77 183.048 302.444 182.722C302.119 182.396 301.936 181.954 301.935 181.493C301.936 181.033 302.12 180.591 302.445 180.265C302.77 179.939 303.211 179.756 303.671 179.754H343.97C344.43 179.756 344.871 179.939 345.196 180.265C345.521 180.591 345.705 181.033 345.706 181.493C345.705 181.954 345.522 182.396 345.197 182.722C344.871 183.048 344.43 183.232 343.97 183.233Z" fill="#002822"/>
<path d="M299.791 269.481H299.746C299.659 269.482 299.573 269.464 299.493 269.429C299.413 269.394 299.342 269.343 299.283 269.278C299.224 269.214 299.18 269.138 299.152 269.055C299.124 268.973 299.114 268.885 299.122 268.798L306.757 183.23H309.799L300.143 269.178C300.131 269.262 300.089 269.34 300.024 269.396C299.959 269.451 299.877 269.482 299.791 269.481Z" fill="#002822"/>
<path d="M347.87 269.481H347.915C348.001 269.48 348.086 269.461 348.165 269.425C348.243 269.39 348.313 269.338 348.371 269.274C348.429 269.21 348.472 269.135 348.5 269.053C348.527 268.971 348.537 268.884 348.53 268.798L340.895 183.23H337.852L347.508 269.178C347.52 269.264 347.564 269.343 347.631 269.399C347.698 269.455 347.783 269.484 347.87 269.481Z" fill="#002822"/>
<path d="M290.113 129.143C290.111 129.494 289.971 129.83 289.724 130.078C289.477 130.326 289.142 130.466 288.792 130.468H244.961C244.611 130.467 244.275 130.327 244.028 130.079C243.78 129.831 243.641 129.494 243.64 129.143C243.642 128.793 243.782 128.458 244.03 128.21C244.277 127.963 244.611 127.822 244.961 127.82H288.792C289.142 127.822 289.477 127.962 289.724 128.21C289.971 128.457 290.111 128.793 290.113 129.143Z" fill="#45391D"/>
<path d="M212.892 136.818V165.228H189.415V137.167C189.415 135.717 189.7 134.281 190.254 132.941C190.807 131.602 191.619 130.384 192.643 129.359C193.666 128.334 194.881 127.52 196.218 126.966C197.555 126.411 198.989 126.125 200.436 126.125H202.227C202.504 126.125 202.778 126.125 203.046 126.156C205.727 126.363 208.23 127.577 210.055 129.553C211.881 131.53 212.894 134.125 212.892 136.818Z" fill="#002822"/>
<path d="M212.892 136.819V165.229H192.876V137.168C192.876 134.386 193.923 131.706 195.809 129.664C197.694 127.622 200.28 126.368 203.048 126.152C205.729 126.36 208.232 127.574 210.057 129.552C211.882 131.53 212.895 134.125 212.892 136.819Z" fill="#182D64"/>
<path d="M212.892 141.373H189.415V143.525H212.892V141.373Z" fill="#EAF7F9"/>
<path d="M202.228 165.229V141.707H200.08V165.229H202.228Z" fill="#EAF7F9"/>
<path d="M199.758 179.484L181.427 217.291H125.742L154.774 179.622L199.758 179.484Z" fill="#E65924"/>
<path d="M201.427 179.484L183.096 217.291H127.411L156.443 179.622L201.427 179.484Z" fill="#77A4E5"/>
<path d="M182.975 217.291V270.004L127.411 269.419V217.291H182.975Z" fill="#77A4E5"/>
<path d="M230.027 217.291V269.419L182.975 270.004V217.291H230.027Z" fill="#DAE3FE"/>
<path d="M235.199 219.526H184.652L154.774 179.619L169.831 179.623L204.451 179.629L235.199 219.526Z" fill="#182D64"/>
<path d="M235.199 219.526H225.605L169.831 179.623L204.451 179.629L235.199 219.526Z" fill="#182D64"/>
<path d="M164.418 223.549V249.599H142.896V223.877C142.896 221.192 143.96 218.617 145.855 216.719C147.75 214.82 150.32 213.754 153 213.754H154.638C154.892 213.754 155.141 213.754 155.389 213.783C157.845 213.972 160.14 215.083 161.814 216.893C163.488 218.704 164.418 221.081 164.418 223.549Z" fill="#002822"/>
<path d="M164.418 223.547V249.598H146.069V223.875C146.07 221.326 147.031 218.871 148.759 217C150.487 215.129 152.856 213.979 155.393 213.781C157.848 213.971 160.142 215.083 161.815 216.893C163.488 218.704 164.418 221.08 164.418 223.547Z" fill="#182D64"/>
<path d="M164.42 227.734H142.896V229.708H164.42V227.734Z" fill="#EAF7F9"/>
<path d="M154.641 249.602V228.037H152.672V249.602H154.641Z" fill="#EAF7F9"/>
<path d="M235.199 219.525H184.652V220.904H235.199V219.525Z" fill="#E65924"/>
<path d="M184.652 220.905L153.953 180.686L154.774 179.619L184.652 219.526V220.905Z" fill="#E65924"/>
<path d="M320.558 158.303H243.64V160.674H320.558V158.303Z" fill="#E65924"/>
<path d="M333.244 123.584C333.244 123.584 333.805 125.074 333.938 125.974C334.018 126.511 333.842 127.857 334.589 128.009C335.387 128.171 335.762 125.609 335.674 125.184C335.576 124.719 335.287 123.108 334.769 122.992C334.251 122.875 333.244 123.584 333.244 123.584Z" fill="#D8A982"/>
<path d="M333.488 123.76C333.488 123.76 333.174 124.837 333.174 125.237C333.174 125.637 332.937 126.812 333.174 126.878C333.488 126.974 334.024 125.534 334.024 125.534L333.488 123.76Z" fill="#D8A982"/>
<path d="M289.503 111.126C289.001 110.769 287.865 109.987 287.804 110.162C287.78 110.362 287.836 110.563 287.959 110.722C287.269 110.463 286.571 110.295 284.917 110.613C284.751 110.642 284.593 110.705 284.452 110.797C284.311 110.89 284.191 111.01 284.098 111.15C283.93 111.413 283.866 111.741 284.288 112.004C285.132 112.529 284.888 112.209 286.059 112.98C287.23 113.751 288.668 113.942 289.525 113.405L290.678 113.212L290.819 111.315C290.819 111.315 290.17 111.237 289.503 111.126Z" fill="#F5C99D"/>
<path d="M319.679 95.2123C319.679 95.2123 316.967 98.439 313.508 97.0892C313.508 97.0892 312.765 95.2882 312.755 93.959C312.755 93.7949 312.755 93.637 312.755 93.4872C312.737 91.9919 312.687 91.1529 312.687 91.1529C312.845 91.0873 317.972 88.9786 317.968 89.155C317.867 93.198 319.679 95.2123 319.679 95.2123Z" fill="#F5C99D"/>
<path d="M317.442 90.1175C316.946 91.0344 315.251 92.8313 312.733 93.4877C312.714 91.9923 312.665 91.1534 312.665 91.1534C312.819 91.1144 317.587 89.8447 317.442 90.1175Z" fill="#D8A982"/>
<path d="M311.599 90.9972C311.599 90.9972 317.364 92.3551 318.15 88.7408C318.936 85.1265 320.214 82.8742 316.568 81.8548C312.921 80.8353 311.902 82.0599 311.347 83.1963C310.792 84.3327 310.12 90.55 311.599 90.9972Z" fill="#F5C99D"/>
<path d="M317.956 89.7277C318.034 89.779 319.275 90.1606 321.625 85.4714C321.885 84.8747 321.999 84.2244 321.958 83.5746C321.916 82.9249 321.72 82.2945 321.385 81.7361C320.526 80.331 317.477 79.2233 314.944 78.7433C312.412 78.2633 311.804 79.6889 311.208 81.1228C310.581 82.6304 308.773 83.8694 308.773 83.8694C310.958 85.1001 313.589 83.3443 314.506 83.6314C315.423 83.9186 315.735 85.3586 315.806 85.8181C315.878 86.2775 315.98 86.6632 317.127 86.2509C318.273 85.8386 317.645 87.8775 317.461 88.2673C317.454 88.2673 317.299 89.3072 317.956 89.7277Z" fill="#031162"/>
<path d="M332.808 179.753H336.288C337.021 179.753 337.834 179.019 338.039 177.675C338.244 176.332 339.746 175.597 340.072 174.496C340.397 173.394 338.729 171.848 338.729 171.848L338.45 171.489L338.16 171.115L335.396 171.765C335.396 171.765 335.326 172.426 335.283 173.265C335.254 173.88 335.238 174.574 335.283 175.189C335.365 176.656 334.874 178.235 333.571 178.52C332.269 178.805 332.808 179.753 332.808 179.753Z" fill="#45391D"/>
<path d="M308.505 179.752H317.759C317.829 179.741 317.898 179.722 317.964 179.694C318.578 179.385 318.388 177.015 318.314 176.283C318.3 176.148 318.289 176.078 318.289 176.078C318.289 176.078 315.034 173.471 314.588 175.463C314.574 175.524 314.558 175.586 314.539 175.647C313.974 177.516 311.449 178.363 309.991 178.601C308.869 178.775 308.579 179.426 308.505 179.752Z" fill="#45391D"/>
<path d="M310.37 126.291C310.37 126.291 310.863 132.469 311.445 139.893C312.235 149.979 313.183 162.368 313.288 164.713C313.449 168.789 314.107 175.308 314.107 175.308C314.107 175.308 315.65 176.858 318.742 176.204C318.742 176.204 321.498 166.898 322.284 157.052L322.321 156.565C323.054 146.541 324.192 125.434 324.192 125.434L310.37 126.291Z" fill="#847D3D"/>
<path d="M310.37 126.291C310.37 126.291 310.863 132.469 311.445 139.893L322.27 157.054L322.306 156.567C323.039 146.543 324.178 125.436 324.178 125.436L310.37 126.291Z" fill="#45391D"/>
<path d="M312.626 127.027C312.626 127.027 321.534 149.398 327.39 159.91C333.246 170.423 335.078 173.356 335.078 173.356C335.078 173.356 338.432 172.011 338.737 171.1C338.737 171.1 336.497 150.805 332.576 145.857C330.359 143.061 327.756 134.672 327.634 131.738C327.511 128.805 326.841 122.998 326.841 122.998L312.626 127.027Z" fill="#847D3D"/>
<path d="M333.977 124.008C332.99 124.326 332.833 124.254 332.833 124.254C332.833 124.254 328.034 115.501 327.548 114.699C327.063 113.897 317.36 104.884 317.36 104.884L319.854 95.5693C319.854 95.5693 330.888 109.887 332.079 111.94C334.049 115.335 335.204 123.222 335.204 123.222C334.869 123.585 334.446 123.855 333.977 124.008Z" fill="#FF7042"/>
<path d="M308.49 108.542C308.525 110.455 308.635 112.605 308.785 114.79C308.785 114.919 308.803 115.048 308.812 115.177C308.908 116.531 309.016 117.887 309.131 119.21C309.178 119.739 309.229 120.264 309.282 120.779V120.849C309.282 121.04 309.309 121.259 309.332 121.44C309.817 126.394 310.327 130.307 310.423 130.367C310.533 130.445 310.668 130.48 310.802 130.465C312.098 130.301 315.967 130.597 319.135 129.905C321.796 129.341 324.108 128.264 326.546 126.828C326.87 126.638 327.607 126.129 327.547 125.749C327.488 125.339 327.38 124.724 327.24 123.973C326.761 121.337 325.932 116.806 325.649 111.502C325.594 110.513 325.512 109.536 325.41 108.578C325.165 106.223 324.733 103.891 324.118 101.604C323.031 97.6863 321.436 94.6874 319.434 93.5141C319.174 93.3664 317.765 94.2649 316.473 95.0956C315.383 95.7953 314.088 96.1027 312.8 95.9674L311.723 97.1592C310.421 98.675 309.035 100.696 308.652 103.567C308.623 103.778 308.599 104.004 308.578 104.244C308.475 105.674 308.446 107.109 308.49 108.542Z" fill="#FF5C5D"/>
<path d="M308.49 108.542C308.525 110.456 308.636 112.605 308.785 114.79C308.785 114.919 308.803 115.048 308.812 115.178C316.219 110.533 317.36 102.035 317.36 102.035C313.715 102.195 310.822 103.034 308.59 104.234C308.483 105.667 308.45 107.105 308.49 108.542Z" fill="#FF7042"/>
<path d="M289.787 112.204C289.711 111.102 290.278 110.92 290.278 110.92C290.278 110.92 301.445 108.893 302.395 108.593C303.345 108.294 311.461 99.8346 311.461 99.8346C311.461 99.8346 314.573 96.3187 317.12 97.0941C319.333 97.769 320.191 99.5002 320.494 101.147C320.662 102.109 320.537 103.098 320.135 103.988C319.734 104.877 319.074 105.624 318.242 106.132C314.432 108.472 306.801 113.088 305.006 113.615C301.007 114.79 290.264 113.709 290.264 113.709C289.992 113.251 289.828 112.736 289.787 112.204Z" fill="#FF5C5D"/>
<mask id="mask0_0_5" style="mask-type:alpha" maskUnits="userSpaceOnUse" x="253" y="100" width="35" height="29">
<rect x="253.729" y="100.875" width="34.2332" height="27.2361" fill="#D9D9D9"/>
</mask>
<g mask="url(#mask0_0_5)">
<path d="M270.952 129.937C278.679 129.937 284.942 123.657 284.942 115.911C284.942 108.165 278.679 101.885 270.952 101.885C263.226 101.885 256.963 108.165 256.963 115.911C256.963 123.657 263.226 129.937 270.952 129.937Z" fill="url(#paint6_linear_0_5)"/>
<path d="M269.732 129.937C277.458 129.937 283.721 123.657 283.721 115.911C283.721 108.165 277.458 101.885 269.732 101.885C262.005 101.885 255.742 108.165 255.742 115.911C255.742 123.657 262.005 129.937 269.732 129.937Z" fill="url(#paint7_linear_0_5)"/>
<path d="M269.732 128.858C266.328 128.858 263.126 127.528 260.719 125.114C258.311 122.7 256.985 119.49 256.985 116.077C256.985 112.664 258.311 109.453 260.719 107.039C263.126 104.626 266.328 103.296 269.732 103.296C273.136 103.296 276.339 104.626 278.746 107.039C281.153 109.453 282.479 112.664 282.479 116.077C282.479 119.49 281.153 122.7 278.746 125.114C276.339 127.528 273.136 128.858 269.732 128.858ZM269.732 104.06C263.122 104.06 257.747 109.449 257.747 116.077C257.747 122.704 263.122 128.093 269.732 128.093C276.342 128.093 281.717 122.704 281.717 116.077C281.717 109.449 276.342 104.06 269.732 104.06Z" fill="url(#paint8_linear_0_5)"/>
<path d="M274.543 111.256L272.433 110.954C272.675 111.484 272.796 112.079 272.799 112.733L274.829 113.019L274.012 114.94L272.506 114.727C272.209 115.716 271.696 116.461 270.963 116.965C270.234 117.468 269.245 117.755 267.999 117.817L271.674 123.691L271.656 123.835L268.311 123.361L264.233 116.921L264.474 115.128L266.867 115.469C268.113 115.646 268.967 115.253 269.425 114.294L264.445 113.585L265.251 111.664L269.644 112.288C269.428 111.425 268.765 110.907 267.648 110.734L264.899 110.345L265.845 107.968L275.353 109.316L274.543 111.256Z" fill="url(#paint9_linear_0_5)"/>
</g>
<path d="M197.023 98.7632C196.937 98.8739 243.641 160.672 243.641 160.672V158.301L197.858 97.1611L197.023 98.7632Z" fill="#E65924"/>
<path d="M100.811 175.623C100.872 175.368 95.2828 178.15 95.0064 178.466C92.3898 181.374 93.1351 185.171 94.6338 185.208C95.594 185.233 95.4077 186.833 95.4077 186.833L106.114 182.295C106.114 182.295 104.816 174.765 100.811 175.623Z" fill="#070707"/>
<path d="M102.119 176.202C102.119 176.202 102.502 172.023 97.8441 172.023C97.8441 172.023 99.2548 172.407 99.9857 173.176C99.9857 173.176 97.0129 171.427 93.78 174.114C90.5471 176.801 92.5515 183.535 91.5729 184.813C90.5942 186.091 86.7594 186.349 87.2262 190.485C87.693 194.62 99.3817 199.799 98.6303 203.219C98.6303 203.219 103.21 196.474 99.9366 193.397C99.9366 193.397 101.532 194.903 101.695 196.694C101.695 196.694 102.127 193.207 99.9079 192.081C97.9444 191.098 96.3331 187.484 96.5112 186.833C96.6894 186.183 102.119 176.202 102.119 176.202Z" fill="#070707"/>
<path d="M97.8888 195.867C97.1702 192.4 92.6843 191.327 90.5611 194.156C90.1593 194.687 89.905 195.316 89.824 195.977C89.3388 199.912 95.6182 215.938 96.517 217.388C98.155 220.03 107.794 229.08 107.794 229.08L109.571 228.002C109.571 228.002 102.733 216.404 101.674 215.319C100.452 214.069 99.2524 202.459 97.8888 195.867Z" fill="#D8A982"/>
<path d="M117.638 269.334C128.85 269.334 137.939 260.221 137.939 248.979C137.939 237.738 128.85 228.625 117.638 228.625C106.426 228.625 97.3373 237.738 97.3373 248.979C97.3373 260.221 106.426 269.334 117.638 269.334Z" fill="url(#paint10_linear_0_5)"/>
<path d="M115.867 269.334C127.079 269.334 136.168 260.221 136.168 248.979C136.168 237.738 127.079 228.625 115.867 228.625C104.655 228.625 95.5658 237.738 95.5658 248.979C95.5658 260.221 104.655 269.334 115.867 269.334Z" fill="url(#paint11_linear_0_5)"/>
<path d="M115.866 267.768C110.927 267.768 106.28 265.838 102.786 262.336C99.2928 258.833 97.368 254.174 97.368 249.221C97.368 244.268 99.2928 239.609 102.786 236.106C106.28 232.604 110.927 230.674 115.866 230.674C120.806 230.674 125.453 232.604 128.947 236.106C132.44 239.609 134.365 244.268 134.365 249.221C134.365 254.174 132.44 258.833 128.947 262.336C125.453 265.838 120.806 267.768 115.866 267.768ZM115.866 231.783C106.274 231.783 98.474 239.604 98.474 249.221C98.474 258.838 106.274 266.659 115.866 266.659C125.459 266.659 133.259 258.838 133.259 249.221C133.259 239.604 125.459 231.783 115.866 231.783Z" fill="url(#paint12_linear_0_5)"/>
<path d="M122.848 242.223L119.786 241.785C120.137 242.553 120.312 243.417 120.318 244.366L123.263 244.782L122.077 247.57L119.892 247.261C119.461 248.695 118.717 249.777 117.654 250.507C116.595 251.238 115.16 251.653 113.352 251.744L118.685 260.269L118.659 260.476L113.804 259.789L107.886 250.443L108.237 247.842L111.709 248.337C113.517 248.593 114.756 248.023 115.42 246.631L108.194 245.603L109.364 242.814L115.739 243.721C115.426 242.468 114.463 241.716 112.842 241.466L108.854 240.9L110.226 237.451L124.024 239.408L122.848 242.223Z" fill="url(#paint13_linear_0_5)"/>
<path d="M107.118 228.013C107.118 228.013 109.713 226.307 110.693 226.417C111.674 226.528 114.516 227.344 114.551 227.763C114.585 228.181 111.385 228.444 111.17 228.672C110.955 228.899 108.783 230.354 107.995 229.902C107.206 229.451 107.118 228.013 107.118 228.013Z" fill="#D8A982"/>
<path d="M89.0318 266.548L86.7162 266.207C86.7162 266.207 78.936 260.004 77.7669 248.433C77.645 247.244 77.6265 246.047 77.7117 244.856C77.7298 244.719 77.7017 244.58 77.6318 244.462C77.3841 244.08 76.7637 243.12 75.9222 241.756C75.0807 240.392 73.6701 237.871 72.1181 235.02C69.3111 229.892 66.0414 223.738 64.9194 221.789C61.3446 215.556 63.0767 211.365 63.0767 211.365C63.0767 211.365 73.0456 210.376 75.7707 207.982L76.7555 209.502C76.7555 209.502 78.9155 219.082 78.8132 219.127L79.1367 220.122C80.8422 225.393 82.8015 231.98 83.8703 237.352C84.4722 240.372 84.7896 243.001 84.6197 244.794C84.5603 245.41 84.6319 246.353 84.7957 247.52C85.7539 254.386 89.0318 266.548 89.0318 266.548Z" fill="#3FA880"/>
<path d="M93.8923 269.482H84.2264C84.2264 269.482 83.995 268.007 84.5007 266.887C84.9839 265.813 85.6739 265.78 84.5888 264.096C85.203 264.73 87.1767 264.99 88.5731 264.803C88.745 265.08 89.6766 266.947 90.2499 267.357C90.8805 267.813 93.6977 267.651 93.8923 269.482Z" fill="#002822"/>
<path d="M79.1302 220.118C78.2867 224.782 76.2925 232.546 72.1137 235.016C69.3067 229.888 66.037 223.734 64.915 221.785C61.3402 215.552 63.0723 211.361 63.0723 211.361C63.0723 211.361 73.0412 210.372 75.7663 207.979L76.7511 209.498C76.7511 209.498 78.9112 219.078 78.8088 219.123L79.1302 220.118Z" fill="#518551"/>
<path d="M96.8552 193.717C96.8552 193.717 98.2208 195.14 98.8452 196.845C98.8452 196.845 96.6668 203.118 91.5728 203.903C91.5728 203.895 95.6021 193.715 96.8552 193.717Z" fill="#267DFF"/>
<path d="M72.3514 212.08L72.3842 210.269C68.7848 210.724 59.9686 205.961 59.9686 205.961C59.9686 205.961 56.1993 208.472 55.6854 215.641C55.4336 219.14 53.8427 233.94 53.6646 238.36C53.5991 239.962 53.5786 241.105 53.5704 241.562C53.5622 241.7 53.5081 241.831 53.4169 241.934C52.682 242.874 52.0298 243.877 51.4677 244.931C45.9725 255.175 48.845 269.094 48.845 269.094L50.1226 268.768C50.1226 268.768 54.7682 254.34 57.8147 248.098C58.1905 247.266 58.6516 246.475 59.1906 245.739C60.3331 244.35 61.5369 241.991 62.7224 239.15C64.9746 233.782 67.1448 226.697 68.6988 221.212C68.7971 221.232 72.3514 212.08 72.3514 212.08Z" fill="#3FA880"/>
<path d="M93.4273 199.997C87.5389 198.643 91.3 190.356 91.642 190.5C92.4609 190.334 94.2504 188.898 95.8515 186.096L96.0685 186.284L99.6842 189.46C99.6842 189.46 98.8489 190.691 98.1446 191.905C97.5959 192.853 97.1209 193.786 97.2028 194.106C97.4935 194.334 94.9977 200.356 93.4273 199.997Z" fill="#F5C99D"/>
<path d="M99.6844 189.461C99.6844 189.461 98.849 190.691 98.1447 191.906C95.8925 190.517 95.8925 187.727 96.0686 186.283L99.6844 189.461Z" fill="#D8A982"/>
<path d="M99.787 191.049C99.787 191.049 94.3286 188.007 96.2716 184.63C98.2146 181.254 98.8206 178.585 102.387 180.386C105.954 182.187 105.884 183.874 105.51 185.147C105.135 186.421 101.255 191.754 99.787 191.049Z" fill="#F5C99D"/>
<path d="M106.429 183.176C106.179 181.677 105.42 181.535 104.889 181.633C102.875 178.294 99.5803 179.599 99.5803 179.599C98.4899 180.935 96.9701 181.85 95.2807 182.187C95.2807 182.187 95.9134 183.367 98.5238 184.099C99.3203 184.321 100.225 184.187 101.097 183.894C99.9321 184.527 98.686 184.998 97.3937 185.293C100.833 185.609 104.105 182.458 104.445 182.122C104.603 182.61 104.881 183.631 104.715 184.378C104.488 185.393 103.589 187.233 104.138 187.471C104.136 187.471 106.806 185.432 106.429 183.176Z" fill="#070707"/>
<path d="M56.5311 269.484H46.8673C46.8673 269.484 46.636 268.009 47.1396 266.889C47.6228 265.814 48.3804 265.326 48.2002 264.027C48.8144 264.661 49.8135 265.369 51.2119 265.182C51.3839 265.459 52.3175 266.948 52.8888 267.359C53.5153 267.814 56.3366 267.652 56.5311 269.484Z" fill="#002822"/>
<path d="M94.1198 206.56C92.877 206.994 91.1306 207.232 89.3452 207.427C86.8044 207.704 84.1816 207.895 82.8058 208.453C82.3041 208.658 81.9704 208.9 81.866 209.216C81.2702 211.011 78.6434 213.78 78.6434 213.78C61.8156 213.013 59.9689 205.961 59.9689 205.961C71.2911 192.771 90.4611 188.952 90.4611 188.952C90.4611 188.952 91.8308 188.371 95.2786 191.116C97.5799 192.95 97.2769 193.653 97.2769 193.653C97.2769 193.653 97.7806 205.284 94.1198 206.56Z" fill="#267DFF"/>
<path d="M89.3453 207.433C86.8045 207.71 84.1817 207.901 82.8059 208.459C82.2449 200.049 86.2046 193.725 86.2046 193.725C86.2046 193.725 88.7884 204.25 89.3453 207.433Z" fill="#45391D"/>
<path d="M91.9615 192.09C91.9615 192.09 85.592 192.72 85.0822 196.865C84.5724 201.011 91.1876 217.899 92.1356 219.429C93.8595 222.212 104.011 231.755 104.011 231.755L105.882 230.618C105.882 230.618 98.6771 218.397 97.5612 217.255C95.8189 215.458 94.1175 193.526 91.9615 192.09Z" fill="#F5C99D"/>
<path d="M85.2644 199.358C85.2828 199.453 91.1425 201.278 94.9159 199.358C94.9159 199.358 95.7226 190.64 91.2183 191.112C86.714 191.584 84.0523 193.008 83.9356 195.168C83.8189 197.328 85.2644 199.358 85.2644 199.358Z" fill="#267DFF"/>
<path d="M103.44 230.543C103.44 230.543 105.725 228.443 106.716 228.392C107.707 228.34 110.638 228.691 110.739 229.099C110.839 229.508 107.725 230.281 107.549 230.535C107.373 230.79 105.463 232.587 104.613 232.258C103.763 231.93 103.44 230.543 103.44 230.543Z" fill="#F5C99D"/>
<defs>
<linearGradient id="paint0_linear_0_5" x1="234.337" y1="72.5487" x2="321.614" y2="72.5487" gradientUnits="userSpaceOnUse">
<stop stop-color="#214A35"/>
<stop offset="1" stop-color="#022B1D"/>
</linearGradient>
<linearGradient id="paint1_linear_0_5" x1="263.464" y1="72.549" x2="292.486" y2="72.549" gradientUnits="userSpaceOnUse">
<stop stop-color="#214A35"/>
<stop offset="1" stop-color="#022B1D"/>
</linearGradient>
<linearGradient id="paint2_linear_0_5" x1="261.338" y1="102.265" x2="385.453" y2="102.265" gradientUnits="userSpaceOnUse">
<stop stop-color="#214A35"/>
<stop offset="1" stop-color="#022B1D"/>
</linearGradient>
<linearGradient id="paint3_linear_0_5" x1="308.888" y1="102.263" x2="337.902" y2="102.263" gradientUnits="userSpaceOnUse">
<stop stop-color="#214A35"/>
<stop offset="1" stop-color="#022B1D"/>
</linearGradient>
<linearGradient id="paint4_linear_0_5" x1="162.222" y1="101.194" x2="228.654" y2="101.194" gradientUnits="userSpaceOnUse">
<stop stop-color="#54CBA1"/>
<stop offset="1" stop-color="#3FA880"/>
</linearGradient>
<linearGradient id="paint5_linear_0_5" x1="281.549" y1="228.142" x2="396.704" y2="228.142" gradientUnits="userSpaceOnUse">
<stop stop-color="#54CBA1"/>
<stop offset="1" stop-color="#3FA880"/>
</linearGradient>
<linearGradient id="paint6_linear_0_5" x1="256.964" y1="115.911" x2="284.942" y2="115.911" gradientUnits="userSpaceOnUse">
<stop stop-color="#F57E53"/>
<stop offset="0.00453714" stop-color="#F58152"/>
<stop offset="0.042" stop-color="#F99A4D"/>
<stop offset="0.084" stop-color="#FCAD49"/>
<stop offset="0.1333" stop-color="#FEBA46"/>
<stop offset="0.1962" stop-color="#FFC244"/>
<stop offset="0.3183" stop-color="#FFC444"/>
<stop offset="0.455" stop-color="#FDB946"/>
<stop offset="0.6941" stop-color="#F99C4C"/>
<stop offset="0.9964" stop-color="#F36F56"/>
</linearGradient>
<linearGradient id="paint7_linear_0_5" x1="255.743" y1="115.911" x2="283.721" y2="115.911" gradientUnits="userSpaceOnUse">
<stop stop-color="#FFDB44"/>
<stop offset="1" stop-color="#FEEF06"/>
</linearGradient>
<linearGradient id="paint8_linear_0_5" x1="286.238" y1="125.517" x2="254.045" y2="107.201" gradientUnits="userSpaceOnUse">
<stop stop-color="#F57E53"/>
<stop offset="0.00453714" stop-color="#F58152"/>
<stop offset="0.042" stop-color="#F99A4D"/>
<stop offset="0.084" stop-color="#FCAD49"/>
<stop offset="0.1333" stop-color="#FEBA46"/>
<stop offset="0.1962" stop-color="#FFC244"/>
<stop offset="0.3183" stop-color="#FFC444"/>
<stop offset="0.455" stop-color="#FDB946"/>
<stop offset="0.6941" stop-color="#F99C4C"/>
<stop offset="0.9964" stop-color="#F36F56"/>
</linearGradient>
<linearGradient id="paint9_linear_0_5" x1="265.095" y1="103.553" x2="276.35" y2="126.345" gradientUnits="userSpaceOnUse">
<stop stop-color="#F57E53"/>
<stop offset="0.00453714" stop-color="#F58152"/>
<stop offset="0.042" stop-color="#F99A4D"/>
<stop offset="0.084" stop-color="#FCAD49"/>
<stop offset="0.1333" stop-color="#FEBA46"/>
<stop offset="0.1962" stop-color="#FFC244"/>
<stop offset="0.3183" stop-color="#FFC444"/>
<stop offset="0.455" stop-color="#FDB946"/>
<stop offset="0.6941" stop-color="#F99C4C"/>
<stop offset="0.9964" stop-color="#F36F56"/>
</linearGradient>
<linearGradient id="paint10_linear_0_5" x1="97.3389" y1="248.979" x2="137.939" y2="248.979" gradientUnits="userSpaceOnUse">
<stop stop-color="#F57E53"/>
<stop offset="0.00453714" stop-color="#F58152"/>
<stop offset="0.042" stop-color="#F99A4D"/>
<stop offset="0.084" stop-color="#FCAD49"/>
<stop offset="0.1333" stop-color="#FEBA46"/>
<stop offset="0.1962" stop-color="#FFC244"/>
<stop offset="0.3183" stop-color="#FFC444"/>
<stop offset="0.455" stop-color="#FDB946"/>
<stop offset="0.6941" stop-color="#F99C4C"/>
<stop offset="0.9964" stop-color="#F36F56"/>
</linearGradient>
<linearGradient id="paint11_linear_0_5" x1="95.567" y1="248.979" x2="136.167" y2="248.979" gradientUnits="userSpaceOnUse">
<stop stop-color="#FFDB44"/>
<stop offset="1" stop-color="#FEEF06"/>
</linearGradient>
<linearGradient id="paint12_linear_0_5" x1="139.819" y1="262.92" x2="93.1016" y2="236.341" gradientUnits="userSpaceOnUse">
<stop stop-color="#F57E53"/>
<stop offset="0.00453714" stop-color="#F58152"/>
<stop offset="0.042" stop-color="#F99A4D"/>
<stop offset="0.084" stop-color="#FCAD49"/>
<stop offset="0.1333" stop-color="#FEBA46"/>
<stop offset="0.1962" stop-color="#FFC244"/>
<stop offset="0.3183" stop-color="#FFC444"/>
<stop offset="0.455" stop-color="#FDB946"/>
<stop offset="0.6941" stop-color="#F99C4C"/>
<stop offset="0.9964" stop-color="#F36F56"/>
</linearGradient>
<linearGradient id="paint13_linear_0_5" x1="109.138" y1="231.045" x2="125.471" y2="264.119" gradientUnits="userSpaceOnUse">
<stop stop-color="#F57E53"/>
<stop offset="0.00453714" stop-color="#F58152"/>
<stop offset="0.042" stop-color="#F99A4D"/>
<stop offset="0.084" stop-color="#FCAD49"/>
<stop offset="0.1333" stop-color="#FEBA46"/>
<stop offset="0.1962" stop-color="#FFC244"/>
<stop offset="0.3183" stop-color="#FFC444"/>
<stop offset="0.455" stop-color="#FDB946"/>
<stop offset="0.6941" stop-color="#F99C4C"/>
<stop offset="0.9964" stop-color="#F36F56"/>
</linearGradient>
</defs>
</svg>
