<svg width="40" height="40" viewBox="0 0 40 40" fill="none" xmlns="http://www.w3.org/2000/svg">
<rect width="40" height="40" rx="8" fill="white"/>
<path d="M14.1758 29.36V15.8472H9.60281V29.36H14.1758ZM11.8899 14.0011C13.4846 14.0011 14.4772 12.9635 14.4772 11.6668C14.4475 10.3409 13.4847 9.33203 11.9202 9.33203C10.3559 9.33203 9.33301 10.3409 9.33301 11.6668C9.33301 12.9635 10.3254 14.0011 11.8601 14.0011H11.8898H11.8899ZM16.707 29.36H21.28V21.8138C21.28 21.4099 21.3097 21.0065 21.4305 20.7178C21.7611 19.9109 22.5135 19.0751 23.7768 19.0751C25.4316 19.0751 26.0936 20.3143 26.0936 22.1308V29.3599H30.6663V21.6118C30.6663 17.4612 28.4103 15.5299 25.4015 15.5299C22.9345 15.5299 21.8514 16.8843 21.2496 17.8067H21.2801V15.8469H16.7071C16.7671 17.1149 16.7071 29.3597 16.7071 29.3597L16.707 29.36Z" fill="#182D64"/>
</svg>
