<svg width="380" height="221" viewBox="0 0 380 221" fill="none" xmlns="http://www.w3.org/2000/svg">
<path d="M351.364 109.687H317.587C317.031 109.688 316.481 109.579 315.968 109.367C315.455 109.155 314.988 108.844 314.595 108.451C314.202 108.059 313.89 107.593 313.678 107.08C313.465 106.567 313.356 106.017 313.356 105.462V58.706C313.356 58.1506 313.465 57.6007 313.678 57.0876C313.89 56.5746 314.202 56.1085 314.595 55.716C314.988 55.3236 315.455 55.0124 315.968 54.8004C316.481 54.5884 317.031 54.4796 317.587 54.4804H339.005L355.578 71.5727V105.462C355.578 106.58 355.135 107.653 354.345 108.446C353.555 109.238 352.483 109.684 351.364 109.687V109.687Z" fill="#EBEBEB"/>
<path d="M339.005 54.4805V67.6374C339.005 68.1529 339.107 68.6633 339.305 69.1392C339.503 69.6151 339.793 70.0471 340.159 70.4103C340.525 70.7735 340.959 71.0608 341.436 71.2555C341.914 71.4502 342.425 71.5486 342.94 71.5449H355.578L339.005 54.4805Z" fill="#F5F5F5"/>
<path d="M339.179 68.793C339.179 68.793 339.017 71.9859 342.645 73.0354C342.783 73.0731 342.923 73.1029 343.064 73.1247C344.739 73.4205 355.59 75.3575 355.59 75.1063V71.5728H342.941C342.941 71.5728 339.782 71.4612 339.179 68.793Z" fill="#E0E0E0"/>
<path d="M351.364 109.688C351.364 109.688 351.615 109.688 352.095 109.604C352.798 109.471 353.457 109.164 354.01 108.711C354.454 108.344 354.818 107.89 355.078 107.376C355.338 106.862 355.49 106.3 355.523 105.725C355.523 104.363 355.523 102.783 355.523 101.013C355.523 93.9353 355.489 83.8094 355.467 71.5735L355.506 71.6572L338.905 54.5761L339.005 54.6207H318.536C317.996 54.597 317.454 54.6157 316.917 54.6765C316.013 54.8262 315.186 55.2761 314.569 55.9537C313.952 56.6312 313.582 57.4969 313.518 58.411C313.518 59.159 313.518 59.9404 313.518 60.6996V74.1859C313.518 80.0304 313.518 85.6683 313.518 91.0382C313.518 93.7288 313.518 96.3468 313.518 98.8922V102.649C313.518 103.269 313.518 103.877 313.518 104.485C313.49 105.08 313.516 105.676 313.596 106.266C313.71 106.826 313.938 107.357 314.268 107.824C314.598 108.291 315.021 108.684 315.51 108.979C315.986 109.271 316.516 109.461 317.068 109.537C317.625 109.581 318.184 109.595 318.742 109.582H325.117L344.359 109.627H349.589H350.951H351.414H350.951H349.589L344.359 109.654L325.117 109.699H318.742C318.184 109.716 317.625 109.703 317.068 109.66C316.173 109.538 315.337 109.14 314.678 108.522C314.019 107.904 313.569 107.096 313.389 106.21C313.304 105.606 313.274 104.995 313.3 104.385V102.548C313.3 101.317 313.3 100.064 313.3 98.7917C313.3 96.2463 313.3 93.6283 313.3 90.9377C313.3 85.5678 313.3 79.9299 313.3 74.0854C313.3 71.1604 313.3 68.1833 313.3 65.1541V60.5935C313.3 59.8288 313.3 59.0752 313.3 58.2826C313.37 57.3047 313.768 56.379 314.428 55.6541C315.088 54.9292 315.972 54.4473 316.939 54.2858C317.495 54.2212 318.055 54.2007 318.614 54.2244H339.145L339.184 54.2635L355.679 71.5065L355.713 71.5456V71.5958C355.713 83.8318 355.674 93.9576 355.662 101.036C355.662 102.805 355.662 104.385 355.629 105.758C355.571 106.713 355.19 107.62 354.549 108.329C353.908 109.039 353.045 109.511 352.101 109.666C351.917 109.7 351.73 109.717 351.543 109.716L351.364 109.688Z" fill="#E0E0E0"/>
<path d="M355.579 71.5737C355.471 71.5819 355.363 71.5819 355.255 71.5737L354.323 71.6016L350.896 71.6462H345.81H342.807C341.962 71.6201 341.145 71.3322 340.47 70.8223C339.795 70.3123 339.295 69.6055 339.039 68.7994C338.883 68.2768 338.82 67.7305 338.855 67.1861C338.855 66.1479 338.855 65.1431 338.855 64.183C338.855 62.2795 338.855 60.5602 338.888 59.1033C338.922 57.6464 338.922 56.5244 338.933 55.6759C338.933 55.2963 338.933 54.9893 338.933 54.7437C338.925 54.6359 338.925 54.5277 338.933 54.4199C338.958 54.5259 338.97 54.6348 338.967 54.7437C338.967 54.9893 338.967 55.3019 338.967 55.6759C338.967 56.5244 338.967 57.6854 339.011 59.1033C339.056 60.5211 339.011 62.2795 339.011 64.183C339.011 65.1431 339.011 66.1479 339.011 67.1861C338.969 67.7062 339.031 68.2295 339.194 68.7251C339.357 69.2208 339.617 69.6788 339.96 70.0721C340.302 70.4624 340.72 70.7783 341.188 71.0001C341.657 71.222 342.166 71.345 342.684 71.3615H345.682L350.767 71.395L354.195 71.4397L355.127 71.4676C355.283 71.4743 355.436 71.5103 355.579 71.5737V71.5737Z" fill="#E0E0E0"/>
<path d="M338.369 66.2193C338.369 66.3031 334.377 66.3645 329.437 66.3645C324.497 66.3645 320.506 66.3031 320.506 66.2193C320.506 66.1356 324.497 66.0742 329.437 66.0742C334.377 66.0742 338.369 66.1412 338.369 66.2193Z" fill="#E0E0E0"/>
<path d="M346.826 72.7818C346.826 72.86 340.943 72.927 333.686 72.927C326.429 72.927 320.546 72.86 320.546 72.7818C320.546 72.7037 326.429 72.6367 333.686 72.6367C340.943 72.6367 346.826 72.7037 346.826 72.7818Z" fill="#E0E0E0"/>
<path d="M346.826 79.3463C346.826 79.4245 340.943 79.4914 333.686 79.4914C326.429 79.4914 320.546 79.4245 320.546 79.3463C320.546 79.2682 326.429 79.2012 333.686 79.2012C340.943 79.2012 346.826 79.2682 346.826 79.3463Z" fill="#E0E0E0"/>
<path d="M346.826 85.9127C346.826 85.9909 340.943 86.0578 333.686 86.0578C326.429 86.0578 320.546 85.9909 320.546 85.9127C320.546 85.8346 326.429 85.7676 333.686 85.7676C340.943 85.7676 346.826 85.8346 346.826 85.9127Z" fill="#E0E0E0"/>
<path d="M346.826 92.4772C346.826 92.5553 340.943 92.6223 333.686 92.6223C326.429 92.6223 320.546 92.5553 320.546 92.4772C320.546 92.399 326.429 92.332 333.686 92.332C340.943 92.332 346.826 92.399 346.826 92.4772Z" fill="#E0E0E0"/>
<path d="M346.826 100.571C346.826 100.655 340.943 100.716 333.686 100.716C326.429 100.716 320.546 100.655 320.546 100.571C320.546 100.487 326.429 100.426 333.686 100.426C340.943 100.426 346.826 100.493 346.826 100.571Z" fill="#E0E0E0"/>
<path d="M332.118 87.6836H308.137C306.836 87.6836 305.781 88.7382 305.781 90.0392V98.2226C305.781 99.5236 306.836 100.578 308.137 100.578H332.118C333.418 100.578 334.473 99.5236 334.473 98.2226V90.0392C334.473 88.7382 333.418 87.6836 332.118 87.6836Z" fill="#E0E0E0"/>
<path d="M309.108 91.8867H311.341C312.938 91.8867 314.032 92.8468 314.032 94.3205C314.032 95.7942 312.915 96.7599 311.341 96.7599H309.108V91.8867ZM311.263 95.8333C311.469 95.8458 311.675 95.816 311.87 95.7458C312.064 95.6756 312.241 95.5664 312.392 95.425C312.542 95.2835 312.662 95.1128 312.744 94.9234C312.825 94.7339 312.868 94.5297 312.868 94.3233C312.868 94.1169 312.825 93.9127 312.744 93.7232C312.662 93.5338 312.542 93.3631 312.392 93.2216C312.241 93.0802 312.064 92.971 311.87 92.9008C311.675 92.8306 311.469 92.8008 311.263 92.8133H310.236V95.8333H311.263Z" fill="white"/>
<path d="M314.551 94.3192C314.522 93.786 314.653 93.2564 314.929 92.7988C315.204 92.3412 315.61 91.9767 316.095 91.7525C316.579 91.5283 317.12 91.4546 317.647 91.541C318.174 91.6275 318.663 91.87 319.05 92.2373C319.438 92.6046 319.706 93.0797 319.821 93.6013C319.936 94.1228 319.891 94.6667 319.693 95.1627C319.496 95.6587 319.154 96.0839 318.711 96.3833C318.269 96.6828 317.747 96.8427 317.213 96.8423C316.87 96.8621 316.527 96.8115 316.204 96.6935C315.881 96.5756 315.586 96.3928 315.337 96.1564C315.087 95.92 314.889 95.6351 314.754 95.3191C314.619 95.0032 314.549 94.6629 314.551 94.3192V94.3192ZM318.737 94.3192C318.73 94.0196 318.634 93.7289 318.462 93.4835C318.29 93.2381 318.049 93.0489 317.77 92.9395C317.491 92.8301 317.186 92.8055 316.893 92.8686C316.6 92.9317 316.332 93.0799 316.123 93.2945C315.914 93.5091 315.772 93.7806 315.717 94.0751C315.661 94.3696 315.693 94.674 315.81 94.9502C315.926 95.2263 316.121 95.4621 316.371 95.6279C316.621 95.7936 316.914 95.8821 317.213 95.8822C317.418 95.8879 317.622 95.8511 317.813 95.774C318.003 95.6969 318.175 95.5814 318.318 95.4345C318.461 95.2877 318.572 95.1128 318.644 94.9208C318.717 94.7289 318.748 94.524 318.737 94.3192Z" fill="white"/>
<path d="M320.411 94.3196C320.438 93.7923 320.62 93.2847 320.935 92.8606C321.25 92.4365 321.682 92.1148 322.179 91.9358C322.676 91.7569 323.215 91.7288 323.727 91.855C324.24 91.9811 324.704 92.256 325.061 92.645L324.341 93.3092C324.19 93.1316 324.002 92.9895 323.789 92.893C323.577 92.7965 323.346 92.748 323.113 92.751C322.715 92.7748 322.342 92.9496 322.068 93.2395C321.795 93.5295 321.643 93.9128 321.643 94.3112C321.643 94.7096 321.795 95.0929 322.068 95.3829C322.342 95.6729 322.715 95.8476 323.113 95.8714C323.346 95.8764 323.578 95.8288 323.79 95.7322C324.003 95.6355 324.191 95.4923 324.341 95.3132L325.061 95.983C324.704 96.3721 324.24 96.6469 323.727 96.7731C323.215 96.8992 322.676 96.8711 322.179 96.6922C321.682 96.5132 321.25 96.1915 320.935 95.7674C320.62 95.3433 320.438 94.8358 320.411 94.3084V94.3196Z" fill="white"/>
<path d="M328.785 96.7599L327.613 95.0853L326.457 96.7599H325.162L326.965 94.2814L325.251 91.8867H326.552L327.668 93.4664L328.785 91.8867H330.002L328.327 94.2368L330.141 96.7599H328.785Z" fill="white"/>
<path d="M311.268 170.058L285.691 214.799L235.078 215.524C234.302 215.536 233.559 215.841 233 216.379C232.44 216.917 232.106 217.647 232.063 218.421L283.53 218.567L285.467 218.5L349.907 218.628L362.93 196.171L379.581 172.33C379.826 171.976 379.97 171.56 379.995 171.13C380.021 170.7 379.928 170.271 379.726 169.889C379.525 169.508 379.222 169.19 378.852 168.968C378.482 168.747 378.059 168.632 377.627 168.635L313.3 168.88C312.887 168.882 312.483 168.991 312.126 169.198C311.77 169.405 311.474 169.701 311.268 170.058Z" fill="#EBEBEB"/>
<path d="M379.581 170.308C379.481 170.333 379.377 170.344 379.274 170.341L378.37 170.369L374.886 170.43L362.092 170.531L319.853 170.643H316.783C316.327 170.601 315.869 170.682 315.457 170.879C315.044 171.075 314.692 171.379 314.438 171.759C313.467 173.504 312.512 175.227 311.574 176.928L306.138 186.73L296.91 203.315L290.636 214.479C289.905 215.757 289.324 216.762 288.906 217.499C288.716 217.811 288.565 218.057 288.437 218.274C288.389 218.365 288.331 218.449 288.264 218.526C288.287 218.425 288.327 218.329 288.381 218.241L288.794 217.432L290.418 214.356C291.886 211.654 293.963 207.819 296.514 203.102L305.63 186.451L311.027 176.632L313.908 171.418C314.222 170.954 314.653 170.581 315.158 170.337C315.663 170.093 316.223 169.986 316.783 170.029H319.853L362.076 170.118L374.87 170.224L378.353 170.28L379.257 170.313C379.364 170.296 379.473 170.294 379.581 170.308V170.308Z" fill="#E0E0E0"/>
<path d="M334.227 192.815C333.11 194.076 333.06 195.907 334.165 196.901C335.271 197.894 337.09 197.682 338.229 196.421C339.368 195.159 339.396 193.328 338.29 192.334C337.185 191.341 335.365 191.553 334.227 192.815Z" fill="white"/>
<path d="M8.53988 170.9V197.661H4.07422V200.564H8.53988V218.471H92.0367V202.171H85.8517V198.621H92.0367V193.301H94.7886V190.879H91.5454V170.9H8.53988Z" fill="#F5F5F5"/>
<path d="M69.8643 170.979V218.169H92.0363V201.875H85.8513V198.621L92.0363 198.733V193.407L94.8385 193.413L94.7883 190.661L91.5227 190.583V170.9L69.8643 170.979Z" fill="#E0E0E0"/>
<path d="M71.4503 200.172C71.4503 200.339 56.3396 200.468 37.7066 200.468C19.0736 200.468 3.96289 200.339 3.96289 200.172C3.96289 200.004 19.0624 199.893 37.701 199.893C56.3396 199.893 71.4503 200.01 71.4503 200.172Z" fill="#E0E0E0"/>
<path d="M71.4503 197.454C71.4503 197.622 56.3396 197.755 37.7066 197.755C19.0736 197.755 3.96289 197.622 3.96289 197.454C3.96289 197.287 19.068 197.158 37.7066 197.158C56.3452 197.158 71.4503 197.292 71.4503 197.454Z" fill="#E0E0E0"/>
<path d="M75.782 190.14C75.782 190.307 60.6713 190.435 42.0383 190.435C23.4053 190.435 8.28906 190.307 8.28906 190.14C8.28906 189.972 23.3998 189.844 42.0383 189.844C60.6769 189.844 75.782 189.978 75.782 190.14Z" fill="#E0E0E0"/>
<path d="M76.1954 210.077C76.1954 210.239 61.0903 210.373 42.4517 210.373C23.8131 210.373 8.70801 210.239 8.70801 210.077C8.70801 209.915 23.8131 209.781 42.4517 209.781C61.0903 209.781 76.1954 209.91 76.1954 210.077Z" fill="#E0E0E0"/>
<path d="M287.164 57.02H254.168C253.072 57.02 252.022 56.5848 251.247 55.8102C250.472 55.0355 250.037 53.9848 250.037 52.8893V7.21668C250.037 6.12114 250.472 5.07047 251.247 4.2958C252.022 3.52114 253.072 3.08594 254.168 3.08594H275.095L291.283 19.7819V52.8893C291.283 53.9829 290.849 55.0319 290.077 55.8062C289.305 56.5806 288.257 57.0171 287.164 57.02Z" fill="#EBEBEB"/>
<path d="M275.096 3.08594V15.9247C275.096 16.9433 275.5 17.9201 276.221 18.6404C276.941 19.3606 277.918 19.7652 278.936 19.7652H291.295L275.096 3.08594Z" fill="#F5F5F5"/>
<path d="M275.265 17.0684C275.265 17.0684 275.103 20.1887 278.653 21.2103C278.787 21.2493 278.921 21.2772 279.061 21.3052C280.674 21.5898 291.297 23.4822 291.297 23.2366V19.7813H278.938C278.938 19.7813 275.851 19.6808 275.265 17.0684Z" fill="#E0E0E0"/>
<path d="M287.164 57.02C287.164 57.02 287.415 57.02 287.878 56.9363C288.566 56.8068 289.209 56.5053 289.748 56.0599C290.183 55.7041 290.539 55.2619 290.794 54.7612C291.048 54.2606 291.196 53.7125 291.228 53.1517C291.228 51.8175 291.228 50.2713 291.228 48.5464C291.228 41.6302 291.194 31.7388 291.172 19.782L291.205 19.8713C286.304 14.8474 280.834 9.19276 275.017 3.18643L275.118 3.22551H255.1C254.571 3.20637 254.041 3.22689 253.515 3.28691C252.633 3.43083 251.825 3.86867 251.224 4.52935C250.622 5.19004 250.261 6.03478 250.199 6.92643C250.171 7.65768 250.199 8.42243 250.199 9.15926V22.3386C250.199 28.049 250.199 33.5585 250.199 38.8057C250.199 41.4107 250.199 43.9654 250.199 46.4699C250.199 47.7129 250.199 48.9372 250.199 50.1429V51.9683C250.172 52.5481 250.198 53.1293 250.278 53.7043C250.387 54.2516 250.609 54.7701 250.93 55.2266C251.251 55.6832 251.664 56.0677 252.142 56.3558C252.606 56.6453 253.125 56.8353 253.666 56.914C254.206 56.957 254.748 56.9719 255.29 56.9586H261.514L280.315 57.0033H285.422H286.751H287.203H286.751H285.422L280.315 57.0312L261.514 57.0759H255.29C254.732 57.0939 254.173 57.0808 253.616 57.0368C252.744 56.919 251.93 56.5335 251.286 55.9337C250.642 55.3338 250.2 54.5491 250.021 53.6875C249.937 53.0979 249.909 52.5017 249.937 51.9069V50.1429C249.937 48.9372 249.937 47.7147 249.937 46.4699C249.937 43.984 249.937 41.4293 249.937 38.8057C249.937 33.5585 249.937 28.049 249.937 22.3386C249.937 19.4805 249.937 16.576 249.937 13.6249V9.15926C249.937 8.41126 249.937 7.67443 249.937 6.92643C249.99 6.14214 250.26 5.38814 250.719 4.74942C251.383 3.82592 252.387 3.20364 253.51 3.01897C254.053 2.95993 254.599 2.93941 255.145 2.95757H275.196L275.241 3.00223C281.024 8.98622 286.483 14.6464 291.384 19.6982L291.417 19.7373V19.782C291.417 31.7388 291.378 41.6302 291.367 48.5464C291.367 50.2769 291.367 51.812 291.334 53.1572C291.296 53.7305 291.14 54.2897 290.876 54.7998C290.612 55.3099 290.245 55.7599 289.799 56.1213C289.245 56.5663 288.585 56.8589 287.884 56.9698C287.7 57.0052 287.513 57.0221 287.326 57.02C287.272 57.0229 287.218 57.0229 287.164 57.02V57.02Z" fill="#E0E0E0"/>
<path d="M291.295 19.7822C291.191 19.8074 291.084 19.8186 290.976 19.8157L290.067 19.8436L286.717 19.8883H281.755H278.819C278.273 19.8716 277.736 19.7431 277.241 19.5107C276.747 19.2784 276.305 18.9471 275.944 18.5374C275.576 18.1216 275.3 17.6327 275.135 17.1028C274.984 16.5925 274.921 16.0601 274.95 15.5287C274.95 14.5128 274.95 13.5303 274.95 12.5981C274.95 10.7337 274.95 9.05347 274.984 7.63004C275.017 6.20661 275.017 5.11252 275.028 4.28079C275.028 3.91237 275.028 3.61094 275.028 3.37091C275.022 3.26406 275.032 3.15691 275.056 3.05273C275.077 3.15744 275.087 3.26415 275.084 3.37091L275.112 4.28079C275.112 5.11252 275.14 6.24569 275.157 7.63004C275.174 9.0144 275.157 10.7337 275.19 12.5981C275.19 13.5303 275.19 14.5128 275.19 15.5287C275.154 16.032 275.217 16.5375 275.376 17.0164C275.535 17.4953 275.787 17.9382 276.117 18.3197C276.452 18.6993 276.861 19.0065 277.319 19.2225C277.777 19.4385 278.274 19.5587 278.78 19.5757H281.71L286.673 19.6092L290.022 19.6538H290.932C291.056 19.6854 291.178 19.7284 291.295 19.7822V19.7822Z" fill="#E0E0E0"/>
<path d="M274.471 14.569C274.471 14.6527 270.564 14.7141 265.769 14.7141C260.974 14.7141 257.061 14.6527 257.061 14.569C257.061 14.4852 260.968 14.4238 265.769 14.4238C270.569 14.4238 274.471 14.4796 274.471 14.569Z" fill="#E0E0E0"/>
<path d="M282.733 20.9713C282.733 21.0495 276.984 21.1164 269.894 21.1164C262.805 21.1164 257.056 21.0495 257.056 20.9713C257.056 20.8932 262.805 20.8262 269.894 20.8262C276.984 20.8262 282.733 20.8932 282.733 20.9713Z" fill="#E0E0E0"/>
<path d="M282.733 27.4069C282.733 27.485 276.984 27.552 269.894 27.552C262.805 27.552 257.056 27.485 257.056 27.4069C257.056 27.3287 262.805 27.2617 269.894 27.2617C276.984 27.2617 282.733 27.3008 282.733 27.4069Z" fill="#E0E0E0"/>
<path d="M282.733 33.7917C282.733 33.8754 276.983 33.9368 269.894 33.9368C262.805 33.9368 257.055 33.8754 257.055 33.7917C257.055 33.7079 262.805 33.6465 269.894 33.6465C276.983 33.6465 282.733 33.7135 282.733 33.7917Z" fill="#E0E0E0"/>
<path d="M282.733 40.2057C282.733 40.2894 276.984 40.3508 269.894 40.3508C262.805 40.3508 257.056 40.2894 257.056 40.2057C257.056 40.122 262.805 40.0605 269.894 40.0605C276.984 40.0605 282.733 40.1275 282.733 40.2057Z" fill="#E0E0E0"/>
<path d="M282.733 48.1158C282.733 48.194 276.984 48.261 269.894 48.261C262.805 48.261 257.056 48.194 257.056 48.1158C257.056 48.0377 262.805 47.9707 269.894 47.9707C276.984 47.9707 282.733 48.06 282.733 48.1158Z" fill="#E0E0E0"/>
<path d="M268.314 35.5215H244.997C243.696 35.5215 242.642 36.5761 242.642 37.8771V45.759C242.642 47.06 243.696 48.1147 244.997 48.1147H268.314C269.615 48.1147 270.669 47.06 270.669 45.759V37.8771C270.669 36.5761 269.615 35.5215 268.314 35.5215Z" fill="#E0E0E0"/>
<path d="M253.6 41.3633C253.6 42.4239 252.802 43.0825 251.529 43.0825H250.574V44.3943H249.458V39.6328H251.512C252.802 39.6328 253.6 40.2915 253.6 41.3633ZM252.483 41.3633C252.483 40.8385 252.143 40.5371 251.473 40.5371H250.574V42.1838H251.473C252.143 42.1782 252.483 41.8768 252.483 41.3633Z" fill="white"/>
<path d="M254.381 39.6328H256.541C258.099 39.6328 259.165 40.5706 259.165 42.0108C259.165 43.451 258.099 44.3887 256.541 44.3887H254.381V39.6328ZM256.485 43.4845C256.876 43.4845 257.251 43.3292 257.527 43.0528C257.804 42.7765 257.959 42.4016 257.959 42.0108C257.959 41.6199 257.804 41.2451 257.527 40.9687C257.251 40.6924 256.876 40.5371 256.485 40.5371H255.481V43.4845H256.485Z" fill="white"/>
<path d="M261.097 40.5148V41.7708H263.296V42.6583H261.097V44.3887H259.98V39.6328H263.581V40.5148H261.097Z" fill="white"/>
<path d="M70.6025 1.90743C70.6025 1.79021 73.8178 1.69531 77.7923 1.69531C81.7667 1.69531 84.982 1.79021 84.982 1.90743C84.982 2.02466 81.7611 2.12513 77.7923 2.12513C73.8234 2.12513 70.6025 2.03024 70.6025 1.90743Z" fill="#FAFAFA"/>
<path d="M35.7988 1.66526C35.7988 1.81039 36.9152 1.92203 38.3331 1.92203C39.7509 1.92203 40.8674 1.81039 40.8674 1.66526C40.8674 1.52012 39.7509 1.41406 38.3331 1.41406C36.9152 1.41406 35.7988 1.5257 35.7988 1.66526Z" fill="#FAFAFA"/>
<path d="M156.539 105.664H174.368V74.9403H156.539V105.664Z" fill="#EBEBEB"/>
<path d="M106.81 106.15H120.888V67.7959H106.81V106.15Z" fill="#EBEBEB"/>
<path d="M107.422 72.384C107.422 72.2668 110.47 72.1719 114.226 72.1719C117.983 72.1719 121.025 72.2668 121.025 72.384C121.025 72.5012 117.978 72.6017 114.226 72.6017C110.475 72.6017 107.422 72.5012 107.422 72.384Z" fill="#FAFAFA"/>
<path d="M113.446 98.5876C113.328 98.5876 113.233 93.508 113.233 87.2449C113.233 80.9818 113.328 75.8965 113.446 75.8965C113.563 75.8965 113.635 80.9929 113.635 87.2449C113.635 93.4968 113.563 98.5876 113.446 98.5876Z" fill="#FAFAFA"/>
<path d="M106.809 102.097C106.809 101.979 109.895 101.879 113.697 101.879C117.498 101.879 120.591 101.979 120.591 102.097C120.591 102.214 117.504 102.309 113.697 102.309C109.89 102.309 106.809 102.203 106.809 102.097Z" fill="#FAFAFA"/>
<path d="M106.809 103.743C106.809 103.62 109.974 103.525 113.876 103.525C117.777 103.525 120.937 103.62 120.937 103.743C120.937 103.866 117.777 103.955 113.876 103.955C109.974 103.955 106.809 103.877 106.809 103.743Z" fill="#FAFAFA"/>
<path d="M120.881 106.15H132.19V63.6484H120.881V106.15Z" fill="#E0E0E0"/>
<path d="M120.808 83.1699C121.43 83.5176 122.019 83.9231 122.566 84.3812L126.646 87.4737L130.721 90.5829C131.31 90.9818 131.858 91.438 132.357 91.945C131.716 91.6355 131.108 91.2614 130.543 90.8285C129.46 90.0917 127.981 89.0367 126.39 87.8198C124.799 86.6029 123.381 85.4697 122.376 84.6213C121.804 84.1941 121.278 83.7076 120.808 83.1699V83.1699Z" fill="#FAFAFA"/>
<path d="M120.758 76.5262C120.83 76.4369 123.426 78.5302 126.541 81.204C129.656 83.8778 132.123 86.1162 132.05 86.2279C131.978 86.3395 129.382 84.2239 126.267 81.5501C123.152 78.8762 120.68 76.6043 120.758 76.5262Z" fill="#FAFAFA"/>
<path d="M71.7247 106.184H77.1338V65.6968H71.7247V106.184Z" fill="#EBEBEB"/>
<path d="M71.9541 71.2043C71.9541 71.3439 73.0705 71.4611 74.4884 71.4611C75.9062 71.4611 77.0226 71.3439 77.0226 71.2043C77.0226 71.0648 75.9062 70.9531 74.4884 70.9531C73.0705 70.9531 71.9541 71.0648 71.9541 71.2043Z" fill="#FAFAFA"/>
<path d="M71.9541 103.054C71.9541 103.193 73.0705 103.305 74.4884 103.305C75.9062 103.305 77.0226 103.193 77.0226 103.054C77.0226 102.914 75.9062 102.797 74.4884 102.797C73.0705 102.797 71.9541 102.909 71.9541 103.054Z" fill="#FAFAFA"/>
<path d="M71.8418 102.171C71.8418 102.31 72.9582 102.422 74.3761 102.422C75.7939 102.422 76.9103 102.31 76.9103 102.171C76.9103 102.031 75.7939 101.914 74.3761 101.914C72.9582 101.914 71.8418 102.031 71.8418 102.171Z" fill="#FAFAFA"/>
<path d="M74.594 96.8792C74.7391 96.8792 74.8507 92.246 74.8507 86.5244C74.8507 80.8028 74.7391 76.1641 74.594 76.1641C74.4488 76.1641 74.3428 80.8028 74.3428 86.5244C74.3428 92.246 74.4544 96.8792 74.594 96.8792Z" fill="#FAFAFA"/>
<path d="M95.9681 105.924H106.786V65.437H95.9681V105.924Z" fill="#E0E0E0"/>
<path d="M103.743 106.443C103.793 106.375 103.834 106.302 103.866 106.225C103.944 106.074 104.05 105.851 104.179 105.549C104.55 104.669 104.812 103.747 104.96 102.803C105.237 101.285 105.016 99.719 104.329 98.3374C103.873 97.4869 103.216 96.7606 102.415 96.2218C101.499 95.6062 100.387 95.3517 99.2944 95.5073C98.7 95.6009 98.1433 95.8579 97.6867 96.2497C97.4334 96.4533 97.2299 96.712 97.0916 97.006C96.9533 97.3001 96.8838 97.6218 96.8885 97.9467C96.9162 98.2816 97.0128 98.6073 97.1722 98.9031C97.3317 99.199 97.5505 99.4587 97.8151 99.666C98.3352 100.108 98.9779 100.381 99.6572 100.447C100.359 100.504 101.065 100.408 101.727 100.167C102.388 99.9265 102.99 99.5461 103.492 99.0519C104.582 98.0251 105.259 96.6355 105.396 95.1445C105.549 93.6164 105.358 92.0734 104.837 90.6286C104.359 89.0819 103.437 87.7098 102.186 86.682C101.516 86.1522 100.704 85.8318 99.8526 85.761C99.412 85.7246 98.9688 85.7841 98.5535 85.9353C98.1382 86.0866 97.7606 86.3261 97.4467 86.6374C97.1156 86.9797 96.9176 87.4291 96.8885 87.9045C96.8763 88.3749 97.0067 88.8381 97.2625 89.233C97.7687 89.9935 98.5519 90.5262 99.4451 90.7179C100.309 90.8883 101.203 90.8308 102.037 90.5508C102.872 90.2709 103.62 89.7782 104.207 89.1214C105.293 87.8385 105.944 86.2434 106.065 84.5664C106.248 82.975 106.089 81.3629 105.597 79.8384C105.127 78.3445 104.136 77.0688 102.805 76.2435C102.174 75.8375 101.456 75.5855 100.71 75.5079C99.963 75.4304 99.2086 75.5294 98.5073 75.797C98.1534 75.9303 97.8392 76.1514 97.5941 76.4394C97.349 76.7275 97.1812 77.073 97.1062 77.4437C97.0433 77.8001 97.055 78.1656 97.1405 78.5173C97.226 78.8689 97.3835 79.199 97.603 79.4867C98.0449 79.9911 98.6281 80.3512 99.277 80.5203C99.9258 80.6895 100.611 80.66 101.243 80.4357C102.383 80.0495 103.39 79.3467 104.145 78.4094C105.46 76.8483 106.218 74.8944 106.3 72.8552C106.337 71.3242 105.979 69.8095 105.262 68.4565C104.833 67.6052 104.267 66.8301 103.587 66.1623C103.41 65.9903 103.224 65.8281 103.029 65.6767C102.965 65.6205 102.894 65.5735 102.817 65.5371C103.756 66.3902 104.528 67.4105 105.094 68.5459C105.75 69.8802 106.057 71.3589 105.987 72.8441C105.883 74.8179 105.13 76.7019 103.844 78.2029C103.135 79.0772 102.195 79.7348 101.131 80.1008C100.574 80.291 99.9733 80.3125 99.4042 80.1626C98.8352 80.0126 98.3231 79.6979 97.9323 79.2579C97.7521 79.0168 97.6235 78.7413 97.5543 78.4484C97.4852 78.1555 97.477 77.8515 97.5304 77.5553C97.5947 77.2556 97.7339 76.9771 97.935 76.7458C98.1361 76.5144 98.3925 76.3378 98.6803 76.2324C99.3208 75.9955 100.008 75.9121 100.686 75.9886C101.365 76.0652 102.016 76.2997 102.588 76.6734C103.818 77.4467 104.731 78.6347 105.161 80.0226C105.622 81.4787 105.768 83.016 105.591 84.5329C105.47 86.1089 104.852 87.6059 103.827 88.8088C103.299 89.397 102.628 89.839 101.879 90.0922C101.13 90.3455 100.328 90.4014 99.5511 90.2546C98.7882 90.0914 98.1192 89.6367 97.6867 88.9874C97.4735 88.6968 97.3686 88.3409 97.39 87.9811C97.4114 87.6213 97.5578 87.2803 97.8039 87.017C98.0703 86.7576 98.3902 86.5597 98.7413 86.4372C99.0923 86.3147 99.4659 86.2706 99.8358 86.308C100.59 86.3691 101.309 86.6528 101.901 87.123C103.076 88.0894 103.943 89.3775 104.396 90.8295C104.898 92.2052 105.089 93.6751 104.955 95.1333C104.834 96.5109 104.215 97.7971 103.213 98.7505C102.76 99.2058 102.215 99.5582 101.614 99.7836C101.013 100.009 100.37 100.102 99.7298 100.057C98.5408 99.9562 97.3797 99.0519 97.3071 97.9578C97.2983 97.6903 97.3512 97.4243 97.4615 97.1804C97.5718 96.9365 97.7367 96.7212 97.9435 96.5512C98.3451 96.201 98.8359 95.9692 99.3613 95.8813C100.369 95.7334 101.396 95.9662 102.242 96.5344C103.009 97.0339 103.642 97.7144 104.084 98.5161C104.754 99.8246 104.992 101.312 104.765 102.764C104.638 103.698 104.41 104.615 104.084 105.499C103.954 105.808 103.84 106.123 103.743 106.443Z" fill="#FAFAFA"/>
<path d="M77.0563 105.938H95.8232V69.0623H77.0563V105.938Z" fill="#FAFAFA"/>
<path d="M77.6973 75.1923C77.6973 75.3319 81.761 75.4491 86.7793 75.4491C91.7976 75.4491 95.8614 75.3319 95.8614 75.1923C95.8614 75.0528 91.7976 74.9355 86.7793 74.9355C81.761 74.9355 77.6973 75.0528 77.6973 75.1923Z" fill="#E0E0E0"/>
<path d="M77.4629 77.9892C77.4629 78.1288 81.4764 78.2404 86.4277 78.2404C91.379 78.2404 95.3981 78.1288 95.3981 77.9892C95.3981 77.8496 91.3846 77.7324 86.4277 77.7324C81.4708 77.7324 77.4629 77.8496 77.4629 77.9892Z" fill="#E0E0E0"/>
<path d="M76.8594 101.769C76.8594 101.914 81.085 102.026 86.3043 102.026C91.5235 102.026 95.7436 101.914 95.7436 101.769C95.7436 101.624 91.5179 101.518 86.3043 101.518C81.0906 101.518 76.8594 101.646 76.8594 101.769Z" fill="#E0E0E0"/>
<path d="M77.1123 98.4872C77.1123 98.6268 81.2319 98.7384 86.3116 98.7384C91.3913 98.7384 95.5164 98.6268 95.5164 98.4872C95.5164 98.3477 91.3969 98.2305 86.3116 98.2305C81.2263 98.2305 77.1123 98.3477 77.1123 98.4872Z" fill="#E0E0E0"/>
<path d="M132.173 105.664H142.991V65.1772H132.173V105.664Z" fill="#EBEBEB"/>
<path d="M139.955 106.183C140.004 106.114 140.045 106.039 140.078 105.96C140.156 105.815 140.262 105.586 140.385 105.285C140.758 104.407 141.023 103.486 141.172 102.544C141.448 101.026 141.227 99.46 140.541 98.0782C140.081 97.2283 139.423 96.5024 138.621 95.9626C137.709 95.3425 136.599 95.082 135.506 95.2314C134.91 95.3251 134.352 95.582 133.893 95.9738C133.642 96.1802 133.442 96.4417 133.308 96.7379C133.175 97.0341 133.111 97.3571 133.123 97.6819C133.149 98.0182 133.244 98.3455 133.403 98.6432C133.561 98.941 133.779 99.2028 134.044 99.4123C134.565 99.8575 135.209 100.132 135.891 100.199C136.593 100.254 137.298 100.157 137.96 99.9167C138.621 99.676 139.224 99.2965 139.726 98.8039C140.811 97.7743 141.486 96.3858 141.624 94.8964C141.777 93.3683 141.586 91.8254 141.066 90.3805C140.582 88.8364 139.661 87.4657 138.415 86.434C137.742 85.9045 136.929 85.586 136.076 85.5185C135.632 85.4731 135.185 85.5267 134.765 85.6754C134.345 85.824 133.963 86.0641 133.647 86.3782C133.313 86.7182 133.114 87.1689 133.089 87.6453C133.073 88.1136 133.202 88.5755 133.458 88.9683C133.962 89.7383 134.747 90.2811 135.646 90.481C136.515 90.6501 137.413 90.5897 138.252 90.3058C139.091 90.022 139.842 89.5244 140.43 88.8622C141.515 87.5766 142.164 85.9797 142.283 84.3016C142.468 82.7125 142.31 81.1021 141.82 79.5792C141.351 78.0848 140.36 76.8088 139.029 75.9843C138.399 75.5762 137.682 75.3225 136.936 75.2439C136.19 75.1653 135.436 75.2641 134.736 75.5322C134.381 75.6712 134.066 75.8975 133.821 76.1901C133.576 76.4828 133.409 76.8325 133.335 77.2068C133.272 77.5619 133.284 77.9262 133.368 78.2767C133.453 78.6273 133.609 78.9566 133.826 79.2443C134.269 79.7495 134.852 80.1112 135.501 80.2832C136.151 80.4553 136.836 80.4298 137.471 80.21C138.604 79.8167 139.602 79.1079 140.346 78.1669C141.653 76.6048 142.405 74.6535 142.484 72.6183C142.525 71.3752 142.306 70.1373 141.84 68.9838C141.375 67.8303 140.674 66.7867 139.782 65.9198C139.605 65.7476 139.419 65.5854 139.224 65.4342C139.16 65.3789 139.091 65.3303 139.017 65.2891C139.958 66.1473 140.735 67.1685 141.312 68.3034C141.968 69.6355 142.276 71.1126 142.205 72.596C142.095 74.5612 141.34 76.4353 140.056 77.9269C139.35 78.8053 138.409 79.4653 137.343 79.8304C136.787 80.0195 136.187 80.0403 135.619 79.8904C135.051 79.7405 134.54 79.4264 134.15 78.9875C133.968 78.7471 133.839 78.4716 133.77 78.1785C133.701 77.8854 133.693 77.5811 133.748 77.285C133.812 76.9865 133.95 76.709 134.15 76.4786C134.35 76.2482 134.606 76.0724 134.892 75.9676C135.527 75.7323 136.209 75.6496 136.882 75.7262C137.555 75.8028 138.2 76.0366 138.766 76.4086C140 77.179 140.916 78.3679 141.345 79.7578C141.806 81.2158 141.952 82.755 141.775 84.2737C141.657 85.8436 141.05 87.3371 140.039 88.544C139.51 89.1312 138.839 89.5722 138.09 89.8244C137.341 90.0767 136.539 90.1317 135.763 89.9842C135.002 89.8208 134.333 89.3686 133.899 88.7226C133.686 88.4308 133.581 88.0741 133.603 87.7136C133.624 87.3531 133.77 87.0113 134.016 86.7466C134.28 86.4849 134.598 86.2839 134.948 86.1577C135.298 86.0314 135.672 85.9828 136.042 86.0153C136.798 86.0802 137.518 86.3655 138.113 86.8359C139.284 87.8038 140.15 89.0888 140.608 90.5368C141.11 91.9144 141.301 93.3861 141.166 94.8462C141.043 96.2231 140.424 97.5085 139.425 98.4634C138.974 98.9147 138.432 99.2643 137.835 99.4887C137.238 99.713 136.6 99.8069 135.964 99.764C134.775 99.6691 133.614 98.7592 133.541 97.6651C133.532 97.398 133.584 97.1323 133.693 96.8885C133.803 96.6446 133.966 96.4291 134.172 96.2585C134.577 95.9103 135.069 95.6788 135.596 95.5886C136.603 95.4471 137.628 95.6794 138.476 96.2417C139.24 96.7447 139.872 97.4244 140.318 98.2234C140.99 99.5473 141.224 101.05 140.988 102.516C140.861 103.45 140.631 104.368 140.301 105.251C140.168 105.555 140.052 105.866 139.955 106.183V106.183Z" fill="#FAFAFA"/>
<path d="M56.6921 105.664H71.7246V63.1286H56.6921L56.6921 105.664Z" fill="#E0E0E0"/>
<path d="M142.991 105.664H157.053V67.8008H142.991V105.664Z" fill="#E0E0E0"/>
<path d="M157.41 86.6819C158.089 87.299 158.838 87.8331 159.643 88.2728C160.529 88.7098 161.489 88.975 162.473 89.0543C163.676 89.1465 164.883 88.9374 165.984 88.4459C167.168 87.9379 168.256 87.2904 169.333 86.9052C170.306 86.5155 171.371 86.4185 172.398 86.6261C173.098 86.7754 173.729 87.1499 174.195 87.6923C174.375 87.8789 174.497 88.1134 174.547 88.3677C174.508 88.3677 174.402 88.1333 174.073 87.8095C173.6 87.3489 173.002 87.0382 172.353 86.9164C171.384 86.7624 170.391 86.8863 169.49 87.2736C168.446 87.6532 167.374 88.3063 166.141 88.8366C164.977 89.3519 163.701 89.5613 162.434 89.4451C161.404 89.3427 160.405 89.0332 159.498 88.5352C158.889 88.2047 158.335 87.7809 157.857 87.2792C157.674 87.1081 157.523 86.9058 157.41 86.6819V86.6819Z" fill="#FAFAFA"/>
<path d="M157.092 90.4265C157.772 91.0418 158.521 91.5757 159.325 92.0174C160.21 92.4563 161.17 92.7234 162.155 92.8045C163.358 92.8918 164.564 92.6809 165.666 92.1904C166.849 91.6825 167.938 91.0349 169.015 90.6554C169.986 90.2598 171.053 90.1626 172.08 90.3763C172.772 90.5323 173.394 90.9083 173.855 91.448C174.036 91.6348 174.157 91.8723 174.201 92.129C174.167 92.129 174.061 91.8946 173.726 91.5708C173.255 91.1112 172.659 90.8005 172.013 90.6777C171.044 90.5265 170.051 90.6503 169.149 91.0349C168.1 91.4201 167.033 92.0676 165.8 92.5979C164.635 93.1156 163.357 93.3251 162.088 93.2064C161.057 93.1058 160.058 92.7962 159.152 92.2965C158.554 91.9665 158.013 91.5424 157.55 91.0405C157.359 90.8672 157.203 90.6587 157.092 90.4265V90.4265Z" fill="#FAFAFA"/>
<path d="M157.326 78.3017C157.326 78.1845 161.195 78.084 165.967 78.084C170.74 78.084 174.614 78.1845 174.614 78.3017C174.614 78.4189 170.745 78.5138 165.967 78.5138C161.189 78.5138 157.326 78.4189 157.326 78.3017Z" fill="#FAFAFA"/>
<path d="M150.958 73.8986C150.571 73.7385 150.143 73.7034 149.735 73.7981C149.532 73.8548 149.344 73.9544 149.183 74.0902C149.023 74.226 148.893 74.3948 148.803 74.5852C148.732 74.8248 148.729 75.0793 148.793 75.3208C148.857 75.5623 148.986 75.7815 149.167 75.9544C149.347 76.1273 149.572 76.2473 149.816 76.3012C150.06 76.355 150.314 76.3407 150.55 76.2598C150.738 76.159 150.902 76.0192 151.031 75.8497C151.16 75.6802 151.251 75.485 151.298 75.2774C151.374 74.8664 151.323 74.4421 151.153 74.0605C151.153 74.0605 151.287 74.1107 151.421 74.3228C151.593 74.6296 151.656 74.9859 151.6 75.3332C151.561 75.5992 151.462 75.8528 151.31 76.0744C151.158 76.2961 150.958 76.4798 150.723 76.6115C150.413 76.74 150.072 76.7753 149.742 76.7129C149.412 76.6505 149.108 76.4933 148.866 76.2604C148.624 76.0275 148.456 75.729 148.381 75.4017C148.306 75.0744 148.329 74.7324 148.446 74.4177C148.567 74.1787 148.742 73.9711 148.957 73.8113C149.172 73.6515 149.421 73.5438 149.685 73.4967C150.031 73.4254 150.392 73.4746 150.706 73.6362C150.896 73.7646 150.969 73.8818 150.958 73.8986Z" fill="#FAFAFA"/>
<path d="M150.047 101.871C149.93 101.871 149.829 96.5682 149.829 90.0204C149.829 83.4726 149.93 78.1641 150.047 78.1641C150.164 78.1641 150.259 83.4726 150.259 90.0204C150.259 96.5682 150.164 101.871 150.047 101.871Z" fill="#FAFAFA"/>
<path d="M189.055 105.447H43.541V113.753H189.055V105.447Z" fill="#EBEBEB"/>
<path d="M189.055 105.447H176.351V113.753H189.055V105.447Z" fill="#E0E0E0"/>
<path d="M160.328 36.1552L159.647 93.3213C159.53 103.045 161.322 117.324 176.717 116.839C190.025 115.387 193.558 102.789 193.659 93.7176C193.709 89.4138 193.759 85.8246 193.792 85.3836C193.792 85.3836 208.362 84.1946 209.59 69.804C210.187 62.8487 210.243 48.4246 210.148 35.3793C210.093 28.6196 207.495 22.1283 202.872 17.1967C198.249 12.2651 191.938 9.25457 185.196 8.76393L183.812 8.66345C168.723 8.429 160.133 21.1059 160.328 36.1552Z" fill="#FFBE9D"/>
<path d="M193.765 85.3849C193.765 85.3849 184.644 85.2566 175.417 78.4688C175.417 78.4688 179.224 89.3259 193.687 89.0747L193.765 85.3849Z" fill="#EB996E"/>
<path d="M185.516 41.2725C185.231 41.5627 183.568 40.2286 181.157 40.156C178.745 40.0835 176.948 41.2725 176.691 40.9655C176.568 40.8259 176.864 40.2956 177.651 39.743C178.708 39.0342 179.963 38.6785 181.235 38.727C182.494 38.7587 183.709 39.1996 184.696 39.983C185.421 40.597 185.656 41.1441 185.516 41.2725Z" fill="#263238"/>
<path d="M185.006 46.2642C184.973 46.7715 184.743 47.246 184.366 47.5869C183.989 47.9277 183.493 48.108 182.985 48.0895C182.736 48.0903 182.49 48.0414 182.26 47.9456C182.03 47.8499 181.822 47.7093 181.647 47.532C181.473 47.3547 181.335 47.1443 181.243 46.9132C181.15 46.6821 181.105 46.4348 181.11 46.186C181.141 45.6791 181.37 45.2046 181.746 44.8637C182.123 44.5227 182.617 44.3422 183.125 44.3607C183.374 44.3591 183.621 44.4075 183.852 44.5029C184.082 44.5983 184.291 44.7388 184.466 44.9162C184.642 45.0935 184.78 45.3041 184.872 45.5356C184.965 45.7671 185.01 46.0148 185.006 46.2642V46.2642Z" fill="#263238"/>
<path d="M191.555 58.0474C191.555 57.9191 192.945 57.7795 195.194 57.6623C195.753 57.6623 196.311 57.5674 196.434 57.1934C196.556 56.8194 196.434 56.1663 196.177 55.5188C195.747 54.1121 195.295 52.6328 194.82 51.0922C192.945 44.79 191.633 39.6321 191.89 39.5596C192.147 39.487 193.866 44.5276 195.741 50.8298C196.188 52.3816 196.616 53.8702 197.025 55.2955C197.193 55.9542 197.505 56.7077 197.159 57.5283C197.062 57.7221 196.922 57.8913 196.75 58.0228C196.578 58.1544 196.378 58.2449 196.166 58.2875C195.848 58.3485 195.523 58.371 195.2 58.3545C192.945 58.2651 191.555 58.1702 191.555 58.0474Z" fill="#263238"/>
<path d="M184.488 32.2073C184.254 32.7656 182.328 32.3413 180.023 32.4585C177.717 32.5758 175.808 33.0893 175.557 32.5758C175.44 32.3302 175.797 31.8333 176.584 31.3589C177.618 30.7725 178.779 30.445 179.967 30.4043C181.151 30.3424 182.332 30.5745 183.405 31.0798C184.209 31.4928 184.589 31.9561 184.488 32.2073Z" fill="#263238"/>
<path d="M207.386 36.6804C207.135 37.1158 205.254 36.6302 202.97 36.5576C200.687 36.4851 198.801 36.7809 198.561 36.3232C198.455 36.1111 198.829 35.7203 199.627 35.3742C200.689 34.9449 201.832 34.7544 202.976 34.816C204.139 34.8484 205.281 35.1301 206.325 35.6422C207.135 36.0497 207.498 36.4683 207.386 36.6804Z" fill="#263238"/>
<path d="M160.73 46.9033C160.49 46.7805 151.045 43.2527 150.637 53.1218C150.23 62.9909 160.227 61.3665 160.255 61.0818C160.283 60.7972 160.73 46.9033 160.73 46.9033Z" fill="#FFBE9D"/>
<path d="M157.415 57.2202C157.37 57.1867 157.236 57.3318 156.94 57.4546C156.527 57.6225 156.064 57.6225 155.651 57.4546C154.623 57.0304 153.814 55.339 153.842 53.5472C153.845 52.7009 154.035 51.8658 154.4 51.1022C154.502 50.7957 154.677 50.5188 154.911 50.2959C155.144 50.073 155.429 49.9109 155.74 49.8239C155.939 49.7796 156.148 49.8061 156.331 49.8988C156.513 49.9914 156.657 50.1445 156.739 50.3319C156.862 50.6166 156.789 50.8119 156.84 50.8287C156.89 50.8454 157.057 50.6724 156.996 50.2705C156.949 50.0256 156.821 49.8035 156.633 49.6397C156.369 49.4222 156.03 49.3179 155.69 49.3494C155.281 49.414 154.896 49.5817 154.571 49.8367C154.246 50.0916 153.991 50.4254 153.831 50.8064C153.379 51.6444 153.136 52.5787 153.122 53.5304C153.122 55.5232 154.049 57.4379 155.455 57.8956C155.717 57.9853 155.996 58.0144 156.27 57.9805C156.545 57.9467 156.808 57.8508 157.041 57.7002C157.37 57.4602 157.415 57.2369 157.415 57.2202Z" fill="#EB996E"/>
<path d="M189.232 64.8805C189.338 64.6293 187.401 64.0543 186.045 62.2402C185.478 61.4441 185.018 60.577 184.677 59.6612C184.392 58.9467 184.174 58.4946 184.063 58.5448C183.951 58.5951 183.99 59.0584 184.147 59.8399C184.355 60.8832 184.79 61.8682 185.419 62.7258C186.068 63.588 186.941 64.256 187.942 64.6572C188.674 64.9475 189.198 64.9642 189.232 64.8805Z" fill="#263238"/>
<path d="M229.229 22.4553C229.049 21.8741 228.648 21.3868 228.113 21.0988C226.996 20.429 225.69 20.5406 224.434 20.5015C220.591 20.4258 216.844 19.2857 213.61 17.2081C212.103 15.0419 210.423 13.0015 208.587 11.1069C204.221 6.60772 200.632 3.54874 196.92 2.05274C192.119 0.121339 184.081 -0.665735 179.057 0.651637C174.033 1.96901 169.568 6.02718 168.859 11.1571C166.068 8.78473 161.831 8.80148 158.415 10.1747L158.325 10.1412C154.552 11.4976 152.392 15.5223 151.275 19.4074C150.159 23.2926 149.673 27.4456 147.613 30.9233C147.184 31.6545 146.676 32.5253 147.055 33.2845C147.227 33.562 147.479 33.7806 147.779 33.9112C148.078 34.0418 148.41 34.0783 148.73 34.0157C149.371 33.8751 149.976 33.6012 150.505 33.2119L149.232 36.2653C150.616 36.4972 152.034 36.4016 153.374 35.9862C154.184 39.6202 155.149 43.7676 156.081 46.2293C157.678 46.2293 159.135 46.341 160.117 47.223C161.446 48.4231 162.043 50.6783 164.259 49.8242C165.376 49.3832 166.419 47.0332 166.799 45.8665C169.307 38.2083 170.135 30.0995 169.227 22.0924C170.813 20.4075 172.708 19.0431 174.809 18.0733L174.642 18.224C178.661 16.8285 183.21 15.433 187.029 17.3421C189.987 18.8046 191.729 21.8803 193.939 24.3308C195.983 26.5926 198.463 28.4174 201.231 29.6952C203.999 30.973 206.996 31.6775 210.043 31.7662C210.256 35.8188 209.915 41.546 210.127 45.5986L213.521 39.1289C213.8 38.6545 214.035 38.1744 214.258 37.6943L214.336 37.5492C214.673 36.7539 215.051 35.9769 215.469 35.2215L215.508 35.255C217.702 37.1919 220.94 34.2279 219.204 31.8666C218.86 31.3983 218.448 30.9843 217.981 30.6386C218.478 31.1189 219.091 31.4624 219.76 31.6355C220.429 31.8087 221.132 31.8056 221.799 31.6266C222.461 31.426 223.037 31.0134 223.441 30.4526C223.844 29.8917 224.052 29.2136 224.032 28.523C223.979 28.0567 223.803 27.6128 223.522 27.2364C223.242 26.86 222.867 26.5643 222.436 26.3795C224.22 26.5236 226.008 26.1351 227.571 25.263C228.576 24.6825 229.575 23.7335 229.229 22.4553Z" fill="#263238"/>
<path d="M173.419 12.8086C172.905 13.2092 172.423 13.6497 171.978 14.126C170.831 15.4995 170.062 17.1483 169.746 18.9098C169.498 20.1128 169.375 21.3379 169.377 22.5661C169.377 23.8946 169.478 25.3125 169.578 26.8085C169.715 28.3787 169.752 29.956 169.69 31.5309C169.642 32.3678 169.532 33.2 169.36 34.0205C169.235 34.9 168.885 35.7324 168.345 36.4376C168.096 36.7104 167.782 36.9159 167.433 37.035C167.083 37.1541 166.71 37.1828 166.346 37.1186C165.641 36.9844 164.999 36.6214 164.521 36.0859C163.594 35.003 163.365 33.6353 163.131 32.424L163.438 32.4631C163 33.5461 162.41 34.5611 161.685 35.4774C160.985 36.3249 159.986 36.8705 158.894 37.0013C158.385 37.0565 157.87 36.9675 157.409 36.7446C156.982 36.522 156.632 36.1757 156.404 35.751C156.188 35.3607 156.082 34.9187 156.097 34.4727C156.115 34.0575 156.279 33.6619 156.561 33.3562L156.711 33.4902C155.853 34.4702 154.8 35.261 153.619 35.8124C153.306 35.9534 152.986 36.0764 152.659 36.1808C152.549 36.2232 152.435 36.2514 152.318 36.2645C152.423 36.2117 152.531 36.167 152.642 36.1305C152.854 36.0412 153.172 35.9128 153.569 35.7119C154.712 35.1342 155.727 34.3332 156.555 33.3562L156.706 33.4902C156.471 33.7942 156.336 34.1633 156.319 34.547C156.302 34.9306 156.404 35.3102 156.611 35.6337C156.821 36.0117 157.14 36.3172 157.526 36.5101C157.946 36.7073 158.412 36.7827 158.872 36.7278C159.89 36.5968 160.82 36.0792 161.467 35.2821C162.164 34.3833 162.728 33.3887 163.142 32.3291L163.354 31.8658L163.449 32.3682C163.678 33.5739 163.924 34.8913 164.766 35.8626C165.195 36.3427 165.77 36.6683 166.402 36.7892C166.714 36.8538 167.038 36.8363 167.341 36.7385C167.644 36.6407 167.917 36.4658 168.132 36.231C168.626 35.5764 168.948 34.8089 169.07 33.9982C169.238 33.1941 169.346 32.3788 169.394 31.5588C169.457 29.9992 169.428 28.4371 169.305 26.881C169.21 25.385 169.115 23.956 169.132 22.6163C169.14 21.3698 169.279 20.1276 169.545 18.9098C169.883 17.1239 170.693 15.4608 171.889 14.0925C172.321 13.5793 172.838 13.1449 173.419 12.8086Z" fill="#455A64"/>
<path d="M217.953 26.8145C217.953 26.8145 217.92 26.8535 217.841 26.9149L217.479 27.1773C217.285 27.3212 217.082 27.4517 216.87 27.568C216.588 27.739 216.295 27.8918 215.994 28.0258C214.071 28.9006 211.961 29.2842 209.853 29.1422C206.709 28.9338 203.692 27.819 201.168 25.9325C198.293 23.8671 195.764 20.8193 193.704 17.3305C192.655 15.5889 191.801 13.8026 190.863 12.1503C190.003 10.5441 188.919 9.06864 187.642 7.76839C186.492 6.59587 185.066 5.73033 183.495 5.25087C182.783 5.05347 182.045 4.96872 181.307 4.99968C180.626 5.03572 179.954 5.16533 179.308 5.38484C177.328 6.05751 175.676 7.45311 174.681 9.2923C174.35 9.98121 174.101 10.7062 173.938 11.4526C173.932 11.4025 173.932 11.3519 173.938 11.3019C173.938 11.179 173.977 11.0339 174.005 10.8609C174.125 10.297 174.312 9.74972 174.564 9.2309C174.976 8.41881 175.521 7.68118 176.177 7.0483C177.046 6.20372 178.088 5.5564 179.23 5.1504C179.897 4.91823 180.591 4.7774 181.296 4.73174C182.063 4.69346 182.831 4.77634 183.573 4.97735C185.195 5.45698 186.669 6.33827 187.86 7.53953C189.168 8.85976 190.276 10.3642 191.148 12.0052C192.102 13.6798 192.956 15.4493 193.995 17.1742C196.038 20.6351 198.527 23.6494 201.352 25.698C203.825 27.5647 206.781 28.6825 209.87 28.9189C211.95 29.0877 214.04 28.7486 215.96 27.9309C216.646 27.5984 217.311 27.2256 217.953 26.8145V26.8145Z" fill="#455A64"/>
<path d="M219.264 20.491C219.111 20.6335 218.938 20.7538 218.751 20.8482C218.263 21.1481 217.752 21.4076 217.221 21.6241C216.439 21.9601 215.628 22.2271 214.799 22.4224C213.783 22.6539 212.748 22.7903 211.706 22.8298C210.662 22.8594 209.617 22.7883 208.586 22.6177C207.749 22.4774 206.925 22.2644 206.124 21.9814C205.582 21.7956 205.054 21.5698 204.545 21.3059C204.345 21.2239 204.157 21.115 203.986 20.9822C203.986 20.9208 204.807 21.3338 206.175 21.7581C206.973 22.0033 207.788 22.1899 208.614 22.3163C209.627 22.4582 210.65 22.5179 211.673 22.4949C212.694 22.4547 213.709 22.3296 214.71 22.1209C215.526 21.9415 216.328 21.7027 217.11 21.4064C218.466 20.8929 219.231 20.4351 219.264 20.491Z" fill="#455A64"/>
<path d="M207.497 42.1841C207.206 42.4744 205.548 41.1347 203.137 41.0677C200.726 41.0007 198.923 42.1841 198.671 41.8771C198.549 41.7376 198.844 41.2017 199.631 40.6546C200.688 39.9432 201.943 39.5855 203.215 39.6331C204.473 39.6688 205.685 40.1114 206.67 40.8947C207.396 41.5031 207.653 42.0557 207.497 42.1841Z" fill="#263238"/>
<path d="M205.035 46.9418C205.004 47.4497 204.774 47.925 204.397 48.2661C204.019 48.6072 203.523 48.787 203.015 48.7671C202.766 48.7686 202.52 48.7204 202.29 48.6253C202.06 48.5302 201.852 48.3901 201.677 48.2132C201.502 48.0364 201.365 47.8264 201.272 47.5956C201.18 47.3647 201.135 47.1178 201.139 46.8692C201.176 46.3593 201.411 45.8842 201.794 45.5452C202.177 45.2063 202.677 45.0304 203.188 45.055C203.683 45.0609 204.155 45.2628 204.501 45.6165C204.848 45.9702 205.04 46.4468 205.035 46.9418Z" fill="#263238"/>
<path d="M294.968 99.5936C294.968 95.4126 290.971 95.4126 290.971 95.4126C289.447 93.4086 287.734 94.1399 287.734 94.1399L281.264 98.4995C280.315 100.135 274.035 106.314 274.035 106.314C272.321 105.042 272.321 102.496 270.273 99.4038C268.224 96.3113 263.574 96.6797 263.574 96.6797C263.574 96.6797 267.192 104.857 267.571 109.948C267.951 115.039 264.78 129.24 264.78 129.24L283.073 134.381C283.073 134.381 284.228 126.566 286.277 125.963C288.744 125.204 290.117 121.565 290.117 121.565C292.78 116.167 298.194 108.313 298.959 104.316C299.724 100.319 294.968 99.5936 294.968 99.5936Z" fill="#FFBE9D"/>
<path d="M158.951 90.5488C170.6 97.8669 182.34 100.597 194.229 95.8797L212.092 100.446L229.676 217.949L126.58 218.87L131.66 191.579L144.443 93.5297L158.951 90.5488Z" fill="#182D64"/>
<path d="M212.119 100.447C212.119 100.447 226.019 106.225 231.327 116.334C236.636 126.443 245.159 154.85 245.159 154.85L260.873 126.002L290.017 133.465C290.017 133.465 268.314 193.328 262.866 198.776C256.899 204.743 240.644 210.76 232.684 206.116C224.723 201.472 223.105 183.849 223.105 183.849L212.119 100.447Z" fill="#182D64"/>
<path d="M213.062 149.594C212.984 149.594 212.917 144.38 212.917 137.944C212.917 131.508 212.984 126.283 213.062 126.283C213.14 126.283 213.207 131.502 213.207 137.944C213.207 144.386 213.146 149.594 213.062 149.594Z" fill="#263238"/>
<path d="M218.506 107.166C218.322 107.822 218.096 108.465 217.83 109.092C217.395 110.27 216.809 111.883 216.245 113.742C215.681 115.601 215.229 117.258 214.922 118.475C214.79 119.143 214.614 119.801 214.397 120.446C214.387 120.258 214.406 120.07 214.453 119.888C214.503 119.541 214.598 119.039 214.727 118.419C214.978 117.186 215.396 115.489 215.966 113.647C216.535 111.805 217.149 110.169 217.64 109.008C217.88 108.45 218.087 107.959 218.243 107.64C218.311 107.472 218.399 107.313 218.506 107.166V107.166Z" fill="#263238"/>
<path d="M142.556 137.504L145.782 93.2324C145.782 93.2324 121.511 95.4653 113.478 112.608C106.713 127.038 88.0298 170.449 86.0314 176.389C80.159 193.816 89.3137 217.758 127.121 216.39L131.43 192.694L142.556 137.504Z" fill="#182D64"/>
<path d="M115.382 197.66C115.432 197.513 115.497 197.37 115.577 197.236L116.191 196.047C116.749 194.992 117.542 193.507 118.508 191.688L119.284 190.247C119.549 189.698 119.93 189.212 120.4 188.824C120.945 188.437 121.602 188.241 122.27 188.266C122.951 188.296 123.625 188.407 124.28 188.595C125.684 188.963 127.046 189.478 128.343 190.13C129.035 190.473 129.688 190.888 130.292 191.369L130.515 191.565C130.601 191.65 130.668 191.753 130.71 191.866C130.775 192.064 130.816 192.268 130.833 192.475C130.858 192.876 130.858 193.279 130.833 193.68C130.758 195.23 130.605 196.774 130.375 198.308C130.174 199.798 129.945 201.222 129.717 202.584C129.259 205.302 128.807 207.736 128.41 209.785C128.014 211.833 127.696 213.452 127.467 214.624C127.355 215.183 127.272 215.612 127.205 215.942C127.181 216.096 127.149 216.249 127.11 216.4C127.103 216.242 127.116 216.085 127.149 215.931C127.188 215.624 127.255 215.177 127.355 214.602L128.209 209.746C128.578 207.697 129.013 205.28 129.454 202.539C129.672 201.183 129.895 199.748 130.096 198.269C130.297 196.79 130.487 195.249 130.543 193.669C130.568 193.283 130.568 192.895 130.543 192.508C130.53 192.318 130.495 192.131 130.437 191.95C130.414 191.88 130.374 191.816 130.319 191.766L130.107 191.576C129.52 191.106 128.883 190.7 128.209 190.365C126.934 189.718 125.594 189.206 124.213 188.835C123.579 188.649 122.925 188.538 122.265 188.506C121.655 188.472 121.051 188.638 120.545 188.98C120.102 189.349 119.742 189.807 119.49 190.326L118.698 191.755L116.303 196.064L115.639 197.231C115.564 197.38 115.478 197.524 115.382 197.66V197.66Z" fill="#263238"/>
<path d="M97.8262 176.599C97.9227 176.589 98.0199 176.589 98.1164 176.599L98.9314 176.627C99.6348 176.666 100.656 176.722 101.918 176.839C103.399 176.968 104.871 177.182 106.328 177.481C108.119 177.845 109.86 178.423 111.513 179.2C113.161 179.995 114.695 181.007 116.074 182.209C117.213 183.193 118.159 184.38 118.865 185.709C119.328 186.608 119.613 187.588 119.702 188.595C119.723 188.868 119.723 189.142 119.702 189.415C119.712 189.508 119.712 189.602 119.702 189.694C119.669 189.694 119.702 189.304 119.596 188.578C119.465 187.6 119.156 186.654 118.686 185.787C117.976 184.499 117.04 183.35 115.923 182.393C114.555 181.218 113.039 180.227 111.413 179.446C109.782 178.674 108.066 178.097 106.3 177.726C104.856 177.42 103.397 177.187 101.929 177.029C100.673 176.884 99.6515 176.794 98.9482 176.727L98.1388 176.638C98.0332 176.641 97.9278 176.628 97.8262 176.599V176.599Z" fill="#263238"/>
<path d="M123.799 174.365C123.647 174.961 123.445 175.544 123.197 176.107C122.778 177.167 122.158 178.613 121.449 180.193C120.74 181.773 120.126 183.146 119.63 184.262C119.401 184.837 119.136 185.396 118.837 185.937C118.982 185.337 119.184 184.752 119.44 184.19C119.853 183.135 120.472 181.689 121.181 180.104C121.89 178.518 122.504 177.167 123.007 176.057C123.229 175.474 123.494 174.909 123.799 174.365V174.365Z" fill="#263238"/>
<path d="M137.23 139.524C137.146 139.524 137.085 136.733 137.085 133.255C137.085 129.777 137.146 126.986 137.23 126.986C137.314 126.986 137.375 129.777 137.375 133.255C137.375 136.733 137.319 139.524 137.23 139.524Z" fill="#263238"/>
<g opacity="0.3">
<path d="M119.673 189.691C113.287 191.924 108.972 197.713 107.225 204.249C107.046 204.93 106.924 205.74 107.381 206.281C107.647 206.533 107.99 206.687 108.354 206.717C108.718 206.748 109.082 206.653 109.385 206.449C109.98 206.019 110.467 205.457 110.809 204.808C113.885 199.89 116.888 195.318 119.673 189.691Z" fill="black"/>
</g>
<g opacity="0.3">
<path d="M111.752 177.061C108.403 175.202 104.574 174.409 100.761 174.175C99.262 174.104 97.76 174.236 96.2957 174.565C94.3029 174.984 92.0086 175.994 91.5732 177.423C96.1561 175.989 102.905 176.932 107.594 177.982C109.914 178.462 112.111 179.417 114.045 180.786C115.98 182.155 117.611 183.908 118.836 185.936C117.639 182.211 115.119 179.054 111.752 177.061V177.061Z" fill="black"/>
</g>
<path d="M133.658 120.666C133.563 120.441 133.488 120.207 133.434 119.969C133.317 119.517 133.122 118.852 132.876 118.065C132.186 115.992 131.283 113.996 130.18 112.109C129.061 110.229 127.752 108.468 126.273 106.856C125.714 106.237 125.229 105.74 124.894 105.427C124.705 105.26 124.535 105.073 124.386 104.869C124.588 104.999 124.775 105.151 124.944 105.321C125.307 105.623 125.809 106.092 126.401 106.695C129.492 109.867 131.77 113.739 133.044 117.982C133.24 118.618 133.404 119.265 133.535 119.918C133.603 120.162 133.645 120.413 133.658 120.666V120.666Z" fill="#263238"/>
<path d="M142.572 218.827L115.549 153.562C114.316 150.581 115.862 148.169 119.01 148.169H124.447C126.68 148.169 128.182 146.947 128.327 145.038L128.505 142.637C128.651 140.728 130.18 139.506 132.413 139.506H158.269C160.524 139.611 162.658 140.554 164.253 142.152L166.352 144.184C167.928 145.786 170.047 146.742 172.291 146.863H205.226C208.368 146.863 211.891 149.275 213.091 152.255L239.885 218.838L142.572 218.827Z" fill="#FF725E"/>
<g opacity="0.3">
<path d="M142.573 218.829L115.55 153.563C114.317 150.583 115.863 148.171 119.011 148.171H124.448C126.681 148.171 128.183 146.949 128.328 145.04L128.506 142.639C128.652 140.73 130.181 139.508 132.414 139.508H158.27C160.525 139.613 162.659 140.556 164.254 142.154L166.353 144.186C167.929 145.788 170.048 146.744 172.292 146.865H205.227C208.369 146.865 211.892 149.276 213.092 152.257L239.886 218.84L142.573 218.829Z" fill="#FF7042"/>
</g>
<path d="M138.101 196.667L127.903 157.23C127.233 154.634 128.936 152.027 131.302 152.027H211.249C212.063 152.067 212.84 152.377 213.457 152.909C214.074 153.441 214.496 154.164 214.654 154.964L229.502 214.323C230.156 216.93 229.112 218.493 226.745 218.465H146.301C145.5 218.417 144.737 218.105 144.131 217.578C143.525 217.051 143.111 216.339 142.952 215.551L138.101 196.667Z" fill="#E0E0E0"/>
<path d="M143.627 217.041L139.284 154.94C139.247 154.419 139.318 153.896 139.492 153.404C139.666 152.911 139.94 152.46 140.296 152.077C140.652 151.695 141.083 151.39 141.562 151.182C142.041 150.973 142.557 150.865 143.08 150.865H225.923V217.041H143.627Z" fill="#EBEBEB"/>
<path d="M142.701 218.465L152.559 154.438C152.79 153.418 153.362 152.508 154.182 151.858C155.001 151.208 156.018 150.858 157.064 150.866H240.862C241.617 150.854 242.362 151.032 243.031 151.382C243.7 151.732 244.27 152.244 244.691 152.87C245.111 153.497 245.369 154.219 245.439 154.971C245.509 155.722 245.39 156.48 245.093 157.174L226.996 215.785L142.701 218.465Z" fill="#FAFAFA"/>
<path d="M142.572 218.801L162.897 158.838C163.286 157.636 164.045 156.587 165.065 155.84C166.085 155.093 167.315 154.687 168.579 154.68H254.94C255.599 154.7 256.245 154.875 256.825 155.19C257.405 155.506 257.903 155.953 258.278 156.496C258.654 157.04 258.896 157.663 258.986 158.317C259.076 158.971 259.011 159.637 258.797 160.262L239.896 218.829L142.572 218.801Z" fill="#FF5C5D"/>
<g opacity="0.3">
<path d="M184.343 208.759C184.343 208.759 181.083 208.91 179.576 209.01C172.381 209.496 165.176 208.218 158.587 205.287C156.555 204.383 154.406 203.104 153.787 200.967C153.1 198.572 154.652 196.077 156.544 194.452C158.437 192.828 160.736 191.661 162.378 189.797C164.019 187.932 164.795 184.89 163.176 182.992L162.729 183.322C161.563 186.28 158.308 187.709 155.612 189.406C150.568 192.602 146.828 197.49 145.062 203.194C144.113 206.297 143.862 209.892 145.743 212.56C147.077 214.442 149.265 215.508 151.426 216.306C157.962 218.729 164.945 218.824 171.917 218.829C174.117 218.829 180.849 218.74 180.849 218.74C182.975 218.182 183.673 217.065 184.957 215.262C186.157 213.615 185.884 210.049 184.343 208.759Z" fill="black"/>
</g>
<path d="M184.342 208.757L161.813 205.368L153.06 200.345C152.488 200.022 152.005 199.562 151.655 199.007C151.304 198.452 151.096 197.818 151.051 197.163C151.053 197.139 151.053 197.114 151.051 197.09C151.028 196.278 151.253 195.479 151.696 194.798C152.139 194.117 152.778 193.587 153.529 193.278C156.32 192.111 160.702 190.554 162.578 187.266C165.268 182.549 162.578 181.566 162.578 181.566L143.761 189.091L130.442 198.156L127.757 213.289L146.34 219.357C146.34 219.357 167.049 220.524 172.765 219.882C178.481 219.24 178.476 216.583 178.476 216.583C179.536 216.248 181.685 214.35 181.685 212.608C184.476 210.007 184.342 208.779 184.342 208.779" fill="#FFBE9D"/>
<path d="M155.523 215.266C155.838 215.29 156.149 215.35 156.45 215.444C157.042 215.584 157.896 215.774 158.956 216.002C164.493 217.106 170.171 217.321 175.775 216.639C176.853 216.51 177.718 216.388 178.315 216.287C178.625 216.219 178.941 216.186 179.258 216.187C178.962 216.298 178.655 216.382 178.343 216.438C177.751 216.577 176.886 216.739 175.814 216.907C170.184 217.739 164.449 217.515 158.901 216.248C157.84 215.997 156.992 215.768 156.411 215.578C156.105 215.504 155.808 215.399 155.523 215.266V215.266Z" fill="#EB996E"/>
<path d="M157.581 211.783C157.901 211.808 158.217 211.868 158.524 211.962C159.122 212.107 159.993 212.297 161.07 212.52C163.879 213.056 166.725 213.371 169.583 213.463C172.445 213.542 175.308 213.409 178.151 213.067C179.267 212.939 180.122 212.81 180.73 212.715C181.044 212.648 181.364 212.611 181.684 212.604C181.385 212.721 181.075 212.807 180.758 212.861C180.155 213.006 179.279 213.168 178.185 213.335C175.334 213.761 172.452 213.931 169.571 213.843C166.692 213.757 163.827 213.402 161.014 212.782C159.937 212.542 159.071 212.314 158.485 212.124C158.173 212.042 157.87 211.928 157.581 211.783V211.783Z" fill="#EB996E"/>
<path d="M290.469 128.443L250.434 136.353C249.109 136.614 247.734 136.34 246.61 135.59C245.486 134.84 244.706 133.675 244.439 132.351L233.492 76.9373C233.23 75.6086 233.506 74.23 234.259 73.1047C235.013 71.9794 236.183 71.1995 237.512 70.9365L262.916 65.9238L286.567 82.3017L294.505 122.465C294.76 123.792 294.479 125.167 293.722 126.288C292.966 127.409 291.796 128.184 290.469 128.443V128.443Z" fill="#EBEBEB"/>
<path d="M262.916 65.9238L265.997 81.5202C266.117 82.1327 266.357 82.7154 266.703 83.2351C267.049 83.7547 267.494 84.201 268.012 84.5485C268.531 84.8959 269.113 85.1376 269.725 85.2597C270.337 85.3818 270.967 85.382 271.579 85.2602L286.573 82.3017L262.916 65.9238Z" fill="#F5F5F5"/>
<path d="M266.46 82.8252C266.46 82.8252 267.018 86.6434 271.562 87.0397C271.729 87.0397 271.902 87.0397 272.076 87.0397C274.102 87.0062 287.443 86.7494 287.387 86.4815C287.331 86.2135 286.555 82.2949 286.555 82.2949L271.562 85.2534C271.562 85.2534 267.794 85.8507 266.46 82.8252Z" fill="#E0E0E0"/>
<path d="M290.469 128.442L290.686 128.381C290.902 128.329 291.113 128.26 291.317 128.174C292.373 127.759 293.258 127.001 293.832 126.022C294.406 125.044 294.635 123.901 294.482 122.777C294.192 121.152 293.796 119.288 293.366 117.194L286.422 82.312L286.472 82.3846L262.81 66.0291H262.916L248.263 68.9318L240.598 70.4445L238.656 70.8297C238.007 70.9329 237.367 71.084 236.741 71.2818C236.128 71.5086 235.565 71.8548 235.086 72.3003C234.607 72.7459 234.221 73.2819 233.95 73.8775C233.568 74.7056 233.429 75.6249 233.548 76.529C233.688 77.4277 233.894 78.3487 234.067 79.253L235.134 84.6565C235.837 88.2365 236.531 91.7588 237.216 95.2234L241.157 115.202C241.782 118.391 242.392 121.493 242.988 124.507C243.283 126.014 243.574 127.505 243.864 128.973C244.009 129.704 244.149 130.43 244.294 131.15C244.396 131.862 244.566 132.563 244.802 133.243C245.069 133.885 245.466 134.464 245.969 134.945C246.471 135.425 247.068 135.796 247.721 136.034C248.355 136.264 249.03 136.361 249.703 136.319C250.371 136.243 251.034 136.131 251.69 135.984L259.248 134.499L282.057 130.033L288.264 128.839L289.877 128.532L290.435 128.437C290.435 128.437 290.251 128.487 289.877 128.565L288.264 128.895L282.068 130.145L259.276 134.694L251.751 136.196C251.089 136.35 250.418 136.466 249.742 136.542C248.657 136.609 247.579 136.336 246.657 135.761C245.735 135.185 245.016 134.336 244.601 133.332C244.349 132.639 244.162 131.923 244.043 131.194C243.903 130.474 243.758 129.749 243.613 129.017C243.322 127.555 243.028 126.066 242.731 124.552L240.889 115.252L236.931 95.2736C236.25 91.8127 235.554 88.2904 234.843 84.7067L233.822 79.32C233.649 78.4101 233.442 77.517 233.297 76.5792C233.178 75.6276 233.325 74.6615 233.721 73.7882C234.006 73.16 234.412 72.5942 234.916 72.123C235.42 71.6517 236.012 71.2844 236.657 71.0418C237.298 70.8374 237.953 70.6825 238.617 70.5785L240.559 70.1933L248.224 68.6806L262.876 65.7891H262.932L262.983 65.8226L286.628 82.2171H286.667V82.2618C289.509 96.7752 291.864 108.782 293.505 117.172C293.907 119.271 294.298 121.13 294.577 122.754C294.731 123.897 294.493 125.059 293.901 126.049C293.308 127.038 292.397 127.798 291.317 128.202C291.111 128.284 290.898 128.348 290.681 128.392L290.469 128.442Z" fill="#263238"/>
<path d="M286.557 82.2779C286.433 82.3225 286.306 82.3561 286.177 82.3784L285.061 82.624L281.008 83.4725L274.991 84.6894L271.429 85.3927C270.428 85.5613 269.399 85.4138 268.486 84.9706C267.573 84.5274 266.82 83.8106 266.333 82.9199C266.027 82.3396 265.825 81.7106 265.736 81.061C265.495 79.8274 265.261 78.6384 265.043 77.4997C264.608 75.2389 264.217 73.1959 263.882 71.471L263.129 67.4017C263.045 66.944 262.984 66.5755 262.933 66.2853C262.905 66.157 262.89 66.026 262.889 65.8945C262.936 66.0174 262.972 66.1445 262.995 66.2741L263.235 67.3905C263.441 68.3786 263.732 69.7573 264.083 71.4431C264.435 73.1289 264.848 75.2054 265.306 77.4606C265.535 78.577 265.769 79.7827 266.015 81.0164C266.098 81.6357 266.287 82.2361 266.573 82.7915C266.884 83.354 267.308 83.8462 267.818 84.2373C268.318 84.6204 268.892 84.8968 269.504 85.0495C270.115 85.2021 270.752 85.2278 271.373 85.1248L274.929 84.4382L280.958 83.2827L285.033 82.5236L286.149 82.3338C286.283 82.3003 286.419 82.2816 286.557 82.2779V82.2779Z" fill="#263238"/>
<path d="M264.897 79.9672C264.897 80.0454 260.197 81.0445 254.364 82.2C248.531 83.3555 243.791 84.2207 243.758 84.1426C243.724 84.0644 248.458 83.0653 254.291 81.9098C260.125 80.7543 264.881 79.8779 264.897 79.9672Z" fill="#263238"/>
<path d="M276.453 85.767C276.453 85.8451 269.509 87.2853 260.912 88.9822C252.316 90.6792 245.327 91.9966 245.283 91.9184C245.238 91.8403 252.227 90.4001 260.829 88.6976C269.431 86.995 276.436 85.6888 276.453 85.767Z" fill="#263238"/>
<path d="M277.988 93.5488C277.988 93.627 271.044 95.0671 262.447 96.7641C253.851 98.4611 246.862 99.7784 246.817 99.7003C246.773 99.6221 253.762 98.1764 262.364 96.4794C270.966 94.7825 277.988 93.4651 277.988 93.5488Z" fill="#263238"/>
<path d="M248.403 107.477C248.403 107.399 255.347 105.959 263.943 104.262C272.54 102.565 279.528 101.247 279.545 101.326C279.562 101.404 272.601 102.844 263.999 104.546C255.397 106.249 248.403 107.555 248.403 107.477Z" fill="#263238"/>
<path d="M281.063 109.107C281.063 109.185 274.119 110.625 265.523 112.322C256.926 114.019 249.938 115.336 249.921 115.258C249.904 115.18 256.865 113.74 265.461 112.037C274.058 110.335 281.047 109.029 281.063 109.107Z" fill="#263238"/>
<path d="M282.599 116.886C282.599 116.964 275.654 118.404 267.058 120.101C258.462 121.798 251.473 123.116 251.456 123.038C251.439 122.959 258.4 121.514 267.002 119.817C275.604 118.12 282.582 116.808 282.599 116.886Z" fill="#263238"/>
<path d="M262.989 106.785L233.609 112.587C232.333 112.839 231.502 114.078 231.754 115.354L233.859 126.011C234.111 127.287 235.35 128.118 236.626 127.866L266.006 122.064C267.283 121.812 268.113 120.573 267.861 119.297L265.757 108.64C265.505 107.363 264.266 106.533 262.989 106.785Z" fill="#FFA412"/>
<path d="M240.616 116.356L243.24 115.837C245.127 115.463 246.645 116.345 246.991 118.07C247.337 119.795 246.265 121.212 244.379 121.586L241.755 122.106L240.616 116.356ZM244.094 120.526C244.338 120.49 244.573 120.404 244.783 120.275C244.993 120.146 245.175 119.975 245.318 119.773C245.46 119.572 245.56 119.343 245.612 119.101C245.664 118.86 245.666 118.61 245.618 118.368C245.57 118.126 245.474 117.896 245.335 117.692C245.196 117.487 245.017 117.314 244.808 117.181C244.6 117.048 244.367 116.959 244.123 116.919C243.88 116.879 243.63 116.889 243.391 116.948L242.168 117.188L242.877 120.766L244.094 120.526Z" fill="white"/>
<path d="M247.632 117.964C247.473 117.339 247.504 116.68 247.723 116.072C247.942 115.465 248.338 114.937 248.86 114.557C249.382 114.177 250.007 113.963 250.652 113.941C251.297 113.92 251.934 114.093 252.48 114.437C253.026 114.782 253.456 115.282 253.715 115.874C253.974 116.466 254.049 117.121 253.931 117.756C253.812 118.391 253.507 118.976 253.053 119.435C252.598 119.894 252.017 120.206 251.384 120.331C250.981 120.436 250.562 120.457 250.151 120.393C249.741 120.329 249.347 120.181 248.996 119.959C248.644 119.738 248.342 119.446 248.108 119.103C247.873 118.76 247.711 118.372 247.632 117.964V117.964ZM252.601 116.988C252.517 116.636 252.333 116.317 252.07 116.07C251.807 115.822 251.477 115.658 251.122 115.596C250.766 115.535 250.4 115.579 250.069 115.724C249.739 115.868 249.458 116.107 249.262 116.41C249.065 116.713 248.963 117.067 248.966 117.428C248.969 117.789 249.078 118.141 249.28 118.44C249.482 118.74 249.767 118.973 250.1 119.112C250.434 119.251 250.8 119.288 251.155 119.22C251.402 119.18 251.639 119.089 251.849 118.952C252.059 118.815 252.238 118.636 252.374 118.425C252.51 118.215 252.601 117.978 252.64 117.73C252.679 117.483 252.665 117.23 252.601 116.988V116.988Z" fill="white"/>
<path d="M254.592 116.591C254.507 115.962 254.608 115.322 254.884 114.75C255.16 114.178 255.598 113.7 256.144 113.376C256.689 113.051 257.318 112.894 257.952 112.924C258.587 112.953 259.198 113.169 259.71 113.544L259.007 114.487C258.788 114.308 258.533 114.181 258.259 114.113C257.984 114.045 257.699 114.04 257.422 114.096C257.179 114.144 256.948 114.24 256.743 114.377C256.537 114.514 256.36 114.69 256.222 114.896C256.085 115.101 255.989 115.332 255.941 115.575C255.892 115.817 255.892 116.067 255.94 116.31C255.988 116.552 256.083 116.783 256.22 116.989C256.358 117.195 256.534 117.371 256.739 117.509C256.945 117.647 257.176 117.742 257.418 117.791C257.661 117.839 257.91 117.84 258.153 117.792C258.431 117.739 258.693 117.624 258.92 117.456C259.147 117.288 259.334 117.071 259.465 116.82L260.481 117.44C260.15 117.982 259.667 118.414 259.092 118.684C258.517 118.954 257.876 119.048 257.247 118.956C256.619 118.864 256.032 118.589 255.559 118.165C255.086 117.742 254.747 117.189 254.586 116.575L254.592 116.591Z" fill="white"/>
<path d="M284.172 87.2009C284.172 87.2009 287.131 83.4609 289.408 85.5263C291.686 87.5917 291.027 88.6969 288.85 92.0015C288.85 92.0015 293.684 91.7503 292.132 96.7128C292.132 96.7128 296.95 96.1546 296.486 100.246C296.486 100.246 300.126 103.802 298.234 106.096C296.341 108.391 289.481 112.532 287.75 111.818C286.02 111.103 286.003 108.653 286.003 108.653C286.003 108.653 283.943 107.726 283.374 106.638C282.805 105.549 283.782 104.031 283.782 104.031C283.782 104.031 282.046 102.256 281.616 101.759C281.186 101.262 281.85 98.9679 281.85 98.9679L284.641 96.2774C284.641 96.2774 280.823 97.952 280.025 97.3045C279.227 96.657 278.35 96.1211 279.182 94.9712C280.014 93.8213 283.089 91.2312 283.089 91.2312L284.172 87.2009Z" fill="#FFBE9D"/>
<path d="M286.4 108.967C286.78 108.43 287.2 107.923 287.656 107.449C288.644 106.182 289.836 105.09 291.184 104.217C292.562 103.457 293.886 102.605 295.148 101.665C296.069 100.901 296.431 100.231 296.498 100.276C296.565 100.32 296.275 101.046 295.382 101.906C294.489 102.765 293.01 103.647 291.474 104.602C290.165 105.463 288.975 106.493 287.935 107.666C287.499 108.181 286.98 108.621 286.4 108.967V108.967Z" fill="#EB996E"/>
<path d="M283.726 104.775C283.637 104.685 285.401 102.771 287.689 100.499C288.806 99.3825 289.816 98.2661 290.659 97.6241C291.075 97.2141 291.585 96.9114 292.144 96.7422C292.177 96.8036 291.625 97.1441 290.877 97.8586C290.129 98.5731 289.174 99.6784 288.013 100.812C285.735 103.095 283.815 104.864 283.726 104.775Z" fill="#EB996E"/>
<path d="M284.636 96.3C284.547 96.1828 285.641 95.312 286.869 94.1565C288.097 93.001 288.711 91.7729 288.828 91.8176C288.945 91.8622 288.488 93.2745 287.193 94.4858C285.898 95.6971 284.686 96.3837 284.636 96.3Z" fill="#EB996E"/>
<path d="M284.174 87.192C284.173 87.2867 284.158 87.3808 284.129 87.4711L283.939 88.2581C283.749 89.0024 283.489 90.0053 283.158 91.2669C282.6 91.7581 281.969 92.3219 281.293 92.9415C280.54 93.6116 279.851 94.3497 279.234 95.1464C279.091 95.3507 279.017 95.595 279.021 95.8442C279.067 96.0986 279.199 96.3294 279.395 96.4973C279.611 96.6971 279.838 96.8836 280.076 97.0555C280.189 97.1302 280.314 97.1819 280.447 97.2078C280.579 97.2337 280.715 97.2331 280.847 97.2062C282.141 96.9873 283.401 96.5969 284.592 96.0452L285.485 95.6767L284.793 96.3522L282.03 99.0483L282.075 98.9925C281.861 99.4232 281.739 99.893 281.714 100.373C281.689 100.853 281.762 101.333 281.93 101.784C282.503 102.666 283.247 103.425 284.118 104.016L284.308 104.156L284.129 104.441C283.521 105.155 283.096 106.283 283.883 106.975C284.659 107.705 285.544 108.31 286.507 108.767L286.178 108.945V108.878C286.239 108.945 286.049 108.716 286.312 109.074C286.937 108.778 286.49 108.951 286.63 108.906V109.241C286.636 109.393 286.651 109.544 286.674 109.693C286.718 109.998 286.801 110.297 286.92 110.581C287.034 110.856 287.201 111.107 287.411 111.318C287.602 111.524 287.851 111.667 288.126 111.725C288.753 111.742 289.376 111.62 289.951 111.368C290.572 111.134 291.178 110.862 291.765 110.553C292.882 109.97 293.962 109.317 294.997 108.599C296.01 107.918 296.956 107.143 297.822 106.283C298.235 105.902 298.495 105.384 298.553 104.826C298.585 104.268 298.484 103.712 298.257 103.201C297.799 102.162 297.154 101.216 296.354 100.41L296.287 100.338V100.232C296.356 99.6979 296.301 99.1552 296.125 98.6464C295.935 98.1659 295.591 97.7617 295.148 97.4965C294.234 97.0177 293.198 96.8233 292.173 96.9383H291.894L291.961 96.6648C292.033 96.3633 292.117 96.0675 292.178 95.7716C292.23 95.4786 292.254 95.1815 292.251 94.8841C292.268 94.3183 292.093 93.7633 291.754 93.3099C291.385 92.924 290.936 92.6239 290.438 92.431C289.941 92.238 289.406 92.157 288.874 92.1935H288.55L288.723 91.9256C289.284 91.1019 289.8 90.2485 290.269 89.369C290.474 88.9748 290.608 88.5479 290.666 88.1074C290.7 87.7022 290.612 87.2961 290.414 86.9408C290.038 86.2777 289.519 85.7059 288.896 85.2661C288.624 85.1103 288.323 85.0134 288.011 84.9816C287.7 84.9499 287.385 84.9841 287.088 85.0819C286.248 85.3792 285.485 85.8597 284.855 86.4886C284.626 86.6952 284.464 86.8682 284.352 86.9798C284.241 87.0915 284.185 87.1529 284.174 87.1473C284.209 87.0733 284.256 87.0054 284.313 86.9464C284.414 86.8235 284.564 86.6393 284.782 86.3881C285.053 86.1118 285.344 85.8561 285.653 85.6234C286.072 85.2956 286.544 85.0425 287.048 84.8754C287.371 84.7611 287.713 84.7165 288.054 84.7444C288.394 84.7723 288.725 84.8721 289.025 85.0373L289.488 85.3778L289.906 85.7797C290.202 86.0721 290.457 86.4025 290.666 86.7621C290.895 87.1635 290.998 87.6244 290.961 88.0851C290.911 88.5604 290.773 89.0221 290.554 89.4471C290.089 90.3413 289.573 91.208 289.008 92.0428L288.857 91.7804C289.425 91.7652 289.991 91.8464 290.532 92.0205C291.118 92.1978 291.641 92.5433 292.033 93.0141C292.425 93.5284 292.634 94.1593 292.625 94.8059C292.628 95.1293 292.604 95.4524 292.552 95.7716C292.491 96.0842 292.402 96.3968 292.329 96.7206L292.117 96.4638C293.233 96.3342 294.362 96.5464 295.355 97.0723C295.878 97.382 296.282 97.8574 296.504 98.4231C296.71 98.9966 296.779 99.6102 296.705 100.215L296.644 100.036C297.485 100.872 298.165 101.856 298.648 102.939C298.909 103.514 299.024 104.145 298.983 104.776C298.952 105.104 298.861 105.424 298.715 105.719C298.561 105.999 298.374 106.26 298.157 106.495C297.273 107.382 296.305 108.18 295.265 108.878C294.214 109.61 293.118 110.274 291.983 110.866C291.38 111.183 290.757 111.463 290.119 111.703C289.471 111.983 288.769 112.114 288.064 112.088C287.709 111.994 287.383 111.815 287.111 111.567C286.84 111.319 286.633 111.01 286.507 110.665C286.375 110.348 286.283 110.016 286.233 109.677C286.233 109.509 286.194 109.342 286.189 109.174V108.756C286.323 108.705 285.882 108.878 286.507 108.583C286.769 108.94 286.58 108.711 286.635 108.778V108.912L286.602 109.247L286.312 109.09C285.301 108.608 284.374 107.967 283.565 107.193C283.357 106.977 283.195 106.72 283.091 106.439C283.005 106.149 282.993 105.842 283.057 105.546C283.18 104.997 283.439 104.489 283.811 104.067L283.844 104.39C282.919 103.759 282.134 102.944 281.539 101.996C281.294 101.488 281.204 100.919 281.282 100.36C281.337 99.8321 281.475 99.316 281.69 98.8306V98.7971H281.718L284.509 96.1177L284.71 96.4192C283.48 96.9819 282.178 97.3708 280.841 97.5746C280.491 97.6314 280.133 97.5493 279.842 97.3458C279.598 97.1606 279.365 96.9612 279.144 96.7485C278.896 96.5287 278.734 96.2281 278.686 95.9C278.675 95.5844 278.769 95.274 278.954 95.018C279.596 94.207 280.314 93.4593 281.098 92.7852C281.79 92.16 282.426 91.6074 282.996 91.1106L282.968 91.1608C283.336 89.8825 283.632 88.8833 283.839 88.1577C283.939 87.8451 284.017 87.5995 284.079 87.3873C284.105 87.3196 284.137 87.2543 284.174 87.192V87.192Z" fill="#EB996E"/>
<path d="M372.727 218.827C372.727 218.905 289.286 218.972 186.375 218.972C83.4633 218.972 0 218.905 0 218.827C0 218.749 83.4242 218.682 186.375 218.682C289.325 218.682 372.727 218.749 372.727 218.827Z" fill="#263238"/>
</svg>
