<svg width="32" height="26" viewBox="0 0 32 26" fill="none" xmlns="http://www.w3.org/2000/svg">
<path d="M0 7.8988V20.8C0 22.1791 0.561903 23.5018 1.5621 24.477C2.56229 25.4521 3.91885 26 5.33333 26H26.6667C28.0812 26 29.4377 25.4521 30.4379 24.477C31.4381 23.5018 32 22.1791 32 20.8V5.2C32 3.82087 31.4381 2.49823 30.4379 1.52304C29.4377 0.547855 28.0812 0 26.6667 0H5.33333C3.91885 0 2.56229 0.547855 1.5621 1.52304C0.561903 2.49823 0 3.82087 0 5.2V7.8988ZM5.33333 2.6H26.6667C27.3739 2.6 28.0522 2.87393 28.5523 3.36152C29.0524 3.84912 29.3333 4.51044 29.3333 5.2V7.124L16 14.1232L2.66667 7.124V5.2C2.66667 4.51044 2.94762 3.84912 3.44772 3.36152C3.94781 2.87393 4.62609 2.6 5.33333 2.6ZM2.66667 10.0776L15.368 16.744C15.5622 16.8459 15.7794 16.8993 16 16.8993C16.2206 16.8993 16.4378 16.8459 16.632 16.744L29.3333 10.0776V20.8C29.3333 21.4896 29.0524 22.1509 28.5523 22.6385C28.0522 23.1261 27.3739 23.4 26.6667 23.4H5.33333C4.62609 23.4 3.94781 23.1261 3.44772 22.6385C2.94762 22.1509 2.66667 21.4896 2.66667 20.8V10.0776Z" fill="white"/>
</svg>
