<svg width="80" height="80" viewBox="0 0 80 80" fill="none" xmlns="http://www.w3.org/2000/svg">
<path d="M37.2514 42.6553C37.2318 42.6501 37.2018 42.6579 37.1757 42.6592C37.2097 42.6813 37.2436 42.7048 37.2775 42.7269C37.2814 42.684 37.2749 42.6592 37.2514 42.6553Z" fill="white"/>
<path d="M37.0316 42.5697C37.0668 42.6087 37.0903 42.6568 37.153 42.6594C37.1595 42.6607 37.166 42.6607 37.1738 42.6607C37.1229 42.6269 37.0734 42.5944 37.0225 42.5605C37.0264 42.5631 37.029 42.5671 37.0316 42.5697Z" fill="white"/>
<path d="M41.3134 45.8786C41.8561 47.061 41.75 48.488 40.8768 49.3426C40.8309 49.3869 40.7746 49.4207 40.7208 49.4558C40.5831 49.5495 40.5294 49.6327 40.4009 49.742C40.2724 49.8512 40.0574 49.967 39.9132 50.0529C39.769 50.14 39.6051 50.192 39.4307 50.209C38.7228 50.2441 38.0568 50.2077 37.4524 50.0672C37.3016 50.0307 37.1522 49.993 37.0067 49.9527C36.9188 49.928 36.8336 49.8981 36.7497 49.8681C36.6946 49.8473 36.6409 49.8278 36.5871 49.8083C36.4508 49.7576 36.3171 49.7081 36.186 49.6522C36.0562 49.5924 35.9316 49.5247 35.8097 49.461C35.7782 49.4441 35.7507 49.4272 35.7205 49.4103C34.9129 49.02 34.1381 48.5713 33.4026 48.0704C33.2886 48.0262 33.1837 47.9651 33.0932 47.887C33.0487 47.8493 33.0093 47.8064 32.9687 47.7648C32.8992 47.6919 32.8323 47.6165 32.7681 47.5384C32.6658 47.4174 32.5479 47.3134 32.4338 47.2041C32.3184 47.0974 32.2201 46.9778 32.1152 46.862C32.0182 46.7553 31.9264 46.6474 31.8399 46.5381C31.5436 46.1687 31.2971 45.7797 31.0716 45.3921C30.521 44.3814 30.2142 43.3902 30.0123 42.4744C29.8353 41.6692 29.7383 40.9109 29.6741 40.1824C29.6649 40.0783 29.657 39.9756 29.6492 39.8728C29.5876 39.0507 29.5653 38.2637 29.5548 37.4976C29.5364 35.9652 29.5679 34.52 29.5666 33.1074C29.5679 31.6947 29.5364 30.2495 29.5548 28.7172C29.5653 27.951 29.5876 27.164 29.6492 26.3419C29.657 26.2418 29.6649 26.1403 29.6741 26.0389C29.7383 25.3104 29.8353 24.5533 30.0123 23.7481C30.2142 22.8324 30.521 21.8412 31.0716 20.8305C31.2971 20.4428 31.5436 20.0539 31.8386 19.6845C31.9264 19.5739 32.0182 19.4659 32.1152 19.3593C32.2201 19.2448 32.3184 19.1251 32.4338 19.0185C32.5479 18.9092 32.6658 18.8051 32.7681 18.6841C32.8323 18.6061 32.8992 18.5307 32.9687 18.4578C33.0093 18.4162 33.0487 18.3733 33.0932 18.3355C33.1837 18.2575 33.2886 18.1963 33.4026 18.1521C34.1381 17.6513 34.9129 17.2025 35.7205 16.8123C35.7507 16.7954 35.7782 16.7772 35.8097 16.7616C35.9316 16.6978 36.0562 16.6302 36.186 16.5704C36.3171 16.5144 36.4508 16.465 36.5871 16.4143C36.6409 16.3947 36.6946 16.3752 36.7497 16.3544C36.8336 16.3245 36.9188 16.2933 37.0067 16.2699C37.1522 16.2295 37.3016 16.1918 37.4524 16.1554C38.0568 16.0149 38.7228 15.9772 39.4307 16.0123C39.6051 16.0305 39.769 16.0813 39.9132 16.1697C40.0574 16.2556 40.2724 16.3713 40.4009 16.4806C40.5294 16.5899 40.5831 16.6731 40.7208 16.7655C40.7746 16.8019 40.8309 16.8357 40.8768 16.8799C41.75 17.7346 41.8561 19.1615 41.3134 20.344C40.9647 21.1062 40.3616 21.6734 39.6497 21.9947C39.5199 22.0545 39.3862 22.1052 39.2485 22.1469C38.551 22.4265 37.7395 22.6073 37.2544 23.1615C37.2466 23.1706 37.2387 23.1797 37.2308 23.1888C37.1482 23.2864 37.0381 23.4529 36.9673 23.635C36.9398 23.7065 36.9136 23.7885 36.8677 23.8756C36.8664 23.8782 36.8651 23.8821 36.8624 23.886C36.848 23.9094 36.8323 23.9329 36.8166 23.9576C36.6723 24.2242 36.5242 24.6262 36.4167 25.1257C36.3197 25.5628 36.2502 26.0675 36.2043 26.6047C36.1978 26.6788 36.1912 26.753 36.186 26.8284C36.1388 27.4528 36.1178 28.1149 36.1086 28.7991C36.0916 30.1663 36.123 31.6206 36.1217 33.1074C36.123 34.5942 36.0916 36.0485 36.1086 37.4156C36.1178 38.0985 36.1388 38.7619 36.186 39.3863C36.1912 39.4644 36.1978 39.5411 36.2043 39.6179C36.2502 40.1551 36.3197 40.6598 36.4167 41.0969C36.5242 41.5951 36.6723 41.9983 36.8166 42.265C36.8336 42.2923 36.8506 42.3183 36.8664 42.3443C36.869 42.3469 36.869 42.3482 36.8703 42.3495C36.9136 42.4354 36.9398 42.5173 36.9673 42.5876C37.0381 42.7684 37.1482 42.9349 37.2308 43.0338L37.2544 43.0611C37.7395 43.6152 38.551 43.796 39.2485 44.0757C39.3862 44.1173 39.5199 44.1681 39.6497 44.2279C40.3616 44.5492 40.9647 45.1163 41.3134 45.8786Z" fill="#232F63"/>
<path d="M38.2067 28.8255C38.1975 29.6125 38.2041 30.4268 38.2106 31.2879C38.2159 31.8798 38.2211 32.4924 38.2198 33.1064C38.2198 33.5539 38.2172 33.9975 38.2145 34.4345C40.5154 34.4605 42.731 35.1435 44.6294 36.4169C46.082 37.3912 48.0564 37.0114 49.0371 35.5701C50.019 34.1288 49.6362 32.1698 48.1836 31.1968C45.2325 29.2183 41.791 28.1621 38.2211 28.1348C38.2145 28.3494 38.2106 28.5783 38.2067 28.8255Z" fill="#232F63"/>
<path d="M49.0393 56.5599C48.0573 55.1186 46.0842 54.7401 44.6303 55.7131C42.6926 57.0126 40.4258 57.6994 38.0751 57.6994C31.6091 57.6994 26.3493 52.4806 26.3493 46.0651C26.3493 44.1672 26.8095 42.3747 27.6249 40.7903C27.6105 40.6512 27.5961 40.5094 27.583 40.365C27.5725 40.2531 27.5646 40.1426 27.5555 40.0281C27.4847 39.0772 27.465 38.1914 27.4558 37.5227C27.444 36.5693 27.4519 35.6535 27.4584 34.769C27.4637 34.1953 27.4676 33.6542 27.4663 33.1065C27.4663 32.5979 27.4624 32.0906 27.4584 31.5586C22.9433 34.8223 20 40.1087 20 46.0651C20 55.955 28.1087 64.0005 38.0751 64.0005C41.6975 64.0005 45.194 62.9403 48.1858 60.9345C49.6397 59.9602 50.0212 58.0012 49.0393 56.5599Z" fill="#232F63"/>
<path d="M36.1152 34.5946C36.1191 34.1042 36.123 33.6086 36.1217 33.1078C36.123 31.621 36.0916 30.1667 36.1086 28.7996C36.1112 28.6097 36.1152 28.4223 36.1191 28.2363C33.7658 28.4887 31.5462 29.1911 29.5508 30.2552C29.5548 31.2308 29.5679 32.1764 29.5666 33.1091C29.5679 34.5218 29.5364 35.967 29.5548 37.4993C29.5574 37.6892 29.5613 37.8791 29.5653 38.0717C31.2775 36.2779 33.5573 35.0239 36.1152 34.5946Z" fill="#232F63"/>
<path d="M48.2357 45.8786C47.6929 47.061 47.7991 48.488 48.6722 49.3426C48.7181 49.3869 48.7745 49.4207 48.8283 49.4558C48.9659 49.5495 49.0197 49.6327 49.1481 49.742C49.2766 49.8512 49.4916 49.967 49.6359 50.0529C49.7801 50.14 49.9439 50.192 50.1183 50.209C50.8263 50.2441 51.4923 50.2077 52.0966 50.0672C52.2474 50.0307 52.3969 49.993 52.5424 49.9527C52.6302 49.928 52.7155 49.8981 52.7994 49.8681C52.8544 49.8473 52.9082 49.8278 52.9619 49.8083C53.0983 49.7576 53.232 49.7081 53.3631 49.6522C53.4929 49.5924 53.6174 49.5247 53.7394 49.461C53.7708 49.4441 53.7984 49.4272 53.8285 49.4103C54.6361 49.02 55.4109 48.5713 56.1464 48.0704C56.2605 48.0262 56.3654 47.9651 56.4558 47.887C56.5004 47.8493 56.5397 47.8064 56.5804 47.7648C56.6498 47.6919 56.7167 47.6165 56.7809 47.5384C56.8832 47.4174 57.0012 47.3134 57.1153 47.2041C57.2306 47.0974 57.329 46.9778 57.4338 46.862C57.5309 46.7553 57.6226 46.6474 57.7092 46.5381C58.0055 46.1687 58.2519 45.7797 58.4774 45.3921C59.0281 44.3814 59.3348 43.3902 59.5367 42.4744C59.7137 41.6692 59.8107 40.9109 59.875 40.1824C59.8842 40.0783 59.892 39.9756 59.8999 39.8728C59.9615 39.0507 59.9838 38.2637 59.9943 37.4976C60.0126 35.9652 59.9812 34.52 59.9825 33.1074C59.9812 31.6947 60.0126 30.2495 59.9943 28.7172C59.9838 27.951 59.9615 27.164 59.8999 26.3419C59.892 26.2418 59.8842 26.1403 59.875 26.0389C59.8107 25.3104 59.7137 24.5533 59.5367 23.7481C59.3348 22.8324 59.0281 21.8412 58.4774 20.8305C58.2519 20.4428 58.0055 20.0539 57.7105 19.6845C57.6226 19.5739 57.5309 19.4659 57.4338 19.3593C57.329 19.2448 57.2306 19.1251 57.1153 19.0185C57.0012 18.9092 56.8832 18.8051 56.7809 18.6841C56.7167 18.6061 56.6498 18.5307 56.5804 18.4578C56.5397 18.4162 56.5004 18.3733 56.4558 18.3355C56.3654 18.2575 56.2605 18.1963 56.1464 18.1521C55.4109 17.6513 54.6361 17.2025 53.8285 16.8123C53.7984 16.7954 53.7708 16.7772 53.7394 16.7616C53.6174 16.6978 53.4929 16.6302 53.3631 16.5704C53.232 16.5144 53.0983 16.465 52.9619 16.4143C52.9082 16.3947 52.8544 16.3752 52.7994 16.3544C52.7155 16.3245 52.6302 16.2933 52.5424 16.2699C52.3969 16.2295 52.2474 16.1918 52.0966 16.1554C51.4923 16.0149 50.8263 15.9772 50.1183 16.0123C49.9439 16.0305 49.7801 16.0813 49.6359 16.1697C49.4916 16.2556 49.2766 16.3713 49.1481 16.4806C49.0197 16.5899 48.9659 16.6731 48.8283 16.7655C48.7745 16.8019 48.7181 16.8357 48.6722 16.8799C47.7991 17.7346 47.6929 19.1615 48.2357 20.344C48.5844 21.1062 49.1875 21.6734 49.8994 21.9947C50.0292 22.0545 50.1629 22.1052 50.3005 22.1469C50.998 22.4265 51.8095 22.6073 52.2946 23.1615C52.3025 23.1706 52.3103 23.1797 52.3182 23.1888C52.4008 23.2864 52.5109 23.4529 52.5817 23.635C52.6093 23.7065 52.6355 23.7885 52.6814 23.8756C52.6827 23.8782 52.684 23.8821 52.6866 23.886C52.701 23.9094 52.7168 23.9329 52.7325 23.9576C52.8767 24.2242 53.0249 24.6262 53.1324 25.1257C53.2294 25.5628 53.2989 26.0675 53.3447 26.6047C53.3513 26.6788 53.3579 26.753 53.3631 26.8284C53.4103 27.4528 53.4313 28.1149 53.4405 28.7991C53.4575 30.1663 53.426 31.6206 53.4273 33.1074C53.426 34.5942 53.4575 36.0485 53.4405 37.4156C53.4313 38.0985 53.4103 38.7619 53.3631 39.3863C53.3579 39.4644 53.3513 39.5411 53.3447 39.6179C53.2989 40.1551 53.2294 40.6598 53.1324 41.0969C53.0249 41.5951 52.8767 41.9983 52.7325 42.265C52.7155 42.2923 52.6984 42.3183 52.6827 42.3443C52.6801 42.3469 52.6801 42.3482 52.6787 42.3495C52.6355 42.4354 52.6093 42.5173 52.5817 42.5876C52.5109 42.7684 52.4008 42.9349 52.3182 43.0338L52.2946 43.0611C51.8095 43.6152 50.998 43.796 50.3005 44.0757C50.1629 44.1173 50.0292 44.1681 49.8994 44.2279C49.1875 44.5492 48.5844 45.1163 48.2357 45.8786Z" fill="#FF5C5D"/>
</svg>
