<svg width="40" height="40" viewBox="0 0 40 40" fill="none" xmlns="http://www.w3.org/2000/svg">
<rect width="40" height="40" rx="8" fill="white"/>
<g clip-path="url(#clip0_0_573)">
<path d="M16.0343 29.3323C24.085 29.3323 28.489 22.6616 28.489 16.887C28.489 16.7003 28.489 16.511 28.481 16.3243C29.3384 15.7036 30.0784 14.9352 30.6663 14.055C29.8654 14.4081 29.0167 14.6408 28.1477 14.7456C29.0631 14.1985 29.7486 13.3376 30.077 12.323C29.217 12.8325 28.2757 13.1901 27.2943 13.3803C26.6346 12.6777 25.7615 12.2122 24.8105 12.056C23.8594 11.8998 22.8833 12.0615 22.0335 12.5162C21.1836 12.9709 20.5074 13.6931 20.1096 14.5711C19.7118 15.449 19.6146 16.4335 19.833 17.3723C18.0927 17.285 16.3901 16.8329 14.8357 16.0453C13.2814 15.2577 11.9099 14.1521 10.8103 12.8003C10.2521 13.7644 10.0818 14.9048 10.3339 15.99C10.586 17.0751 11.2416 18.0237 12.1677 18.643C11.4737 18.6194 10.795 18.4331 10.1863 18.099V18.159C10.1875 19.1689 10.5374 20.1475 11.1768 20.9293C11.8163 21.7111 12.706 22.2481 13.6957 22.4496C13.32 22.5531 12.932 22.6047 12.5423 22.603C12.2677 22.6038 11.9935 22.5784 11.7237 22.527C12.0034 23.3964 12.548 24.1565 13.2813 24.7009C14.0146 25.2454 14.8999 25.5468 15.813 25.563C14.2617 26.7814 12.3455 27.4422 10.373 27.439C10.0254 27.4404 9.67811 27.4204 9.33301 27.379C11.335 28.6553 13.6601 29.333 16.0343 29.3323V29.3323Z" fill="#182D64"/>
</g>
<defs>
<clipPath id="clip0_0_573">
<rect width="21.3333" height="21.3333" fill="white" transform="translate(9.33301 9.33203)"/>
</clipPath>
</defs>
</svg>
