<svg width="400" height="400" viewBox="0 0 400 400" fill="none" xmlns="http://www.w3.org/2000/svg">
<path fill-rule="evenodd" clip-rule="evenodd" d="M202.134 4.5917C254.972 1.98985 313.558 -11.3789 353.579 24.4335C395.07 61.5618 402.116 124.513 399.526 181.228C397.07 235.025 375.415 284.51 339.904 323.866C302.963 364.807 256.246 400.58 202.134 399.993C148.414 399.41 104.359 361.1 67.2224 320.907C31.1181 281.831 0.541286 235.302 0.00858523 181.228C-0.52869 126.691 24.1861 73.8507 64.4419 38.6713C101.931 5.91026 153.132 7.00471 202.134 4.5917Z" fill="#DDECFF"/>
<path d="M267.14 227.875H311.658V192.321H267.14V227.875Z" fill="#FF5C5D"/>
<path d="M270.324 224.775H275.69V218.499H270.324V224.775Z" fill="white"/>
<path d="M298.085 192.42H293.027V200.004H298.085V192.42Z" fill="#FAFAFA"/>
<path d="M298.085 220.186H293.027V227.77H298.085V220.186Z" fill="#FAFAFA"/>
<path d="M278.254 228.124C278.173 228.124 278.112 220.304 278.112 210.66C278.112 201.015 278.173 193.195 278.254 193.195C278.334 193.195 278.395 201.015 278.395 210.66C278.395 220.304 278.334 228.124 278.254 228.124Z" fill="#E0E0E0"/>
<path d="M248.99 289.102H325.803V227.76H248.99V289.102Z" fill="#FF5C5D"/>
<path d="M254.479 283.744H263.732V272.914H254.479V283.744Z" fill="white"/>
<path d="M302.367 227.92H293.644V241.009H302.367V227.92Z" fill="#FAFAFA"/>
<path d="M302.367 275.83H293.644V288.919H302.367V275.83Z" fill="#FAFAFA"/>
<path d="M268.156 289.524C268.021 289.524 267.91 276.033 267.91 259.392C267.91 242.75 268.021 229.26 268.156 229.26C268.292 229.26 268.403 242.75 268.403 259.392C268.403 276.033 268.292 289.524 268.156 289.524Z" fill="#E0E0E0"/>
<path d="M323.357 100.177L327.472 108.808L336.677 110.192L330.017 116.915L331.588 126.399L323.357 121.922L315.132 126.399L316.703 116.915L310.043 110.192L319.248 108.808L323.357 100.177Z" fill="#FFC444"/>
<path d="M78.3344 211.643L80.9281 217.083L86.7316 217.957L82.5361 222.193L83.5218 228.176L78.3344 225.35L73.1532 228.176L74.1389 222.193L69.9434 217.957L75.7469 217.083L78.3344 211.643Z" fill="#FFC444"/>
<path d="M81.5564 164.25L87.3107 176.331L100.187 178.264L90.8716 187.672L93.071 200.945L81.5564 194.682L70.0357 200.945L72.2351 187.672L62.9199 178.264L75.7961 176.331L81.5564 164.25Z" fill="#FFC444"/>
<path d="M319.697 139.156L322.174 144.361L327.725 145.197L323.714 149.253L324.657 154.975L319.697 152.27L314.732 154.975L315.68 149.253L311.664 145.197L317.214 144.361L319.697 139.156Z" fill="#FFC444"/>
<path d="M238.232 54.803L240.715 60.0078L246.266 60.8434L242.249 64.8938L243.198 70.6153L238.232 67.9172L233.273 70.6153L234.221 64.8938L230.205 60.8434L235.756 60.0078L238.232 54.803Z" fill="#FFC444"/>
<path d="M295.023 110.512L296.65 113.918L300.278 114.466L297.654 117.12L298.27 120.864L295.023 119.091L291.77 120.864L292.393 117.12L289.768 114.466L293.397 113.918L295.023 110.512Z" fill="#FFC444"/>
<path d="M145.13 282.541L148.29 289.175L155.369 290.24L150.25 295.407L151.457 302.704L145.13 299.259L138.803 302.704L140.01 295.407L134.891 290.24L141.963 289.175L145.13 282.541Z" fill="#FFC444"/>
<path d="M153.484 275.939L154.79 278.682L157.71 279.122L155.597 281.259L156.096 284.27L153.484 282.847L150.866 284.27L151.365 281.259L149.251 279.122L152.178 278.682L153.484 275.939Z" fill="#FFC444"/>
<path d="M270.325 250.525L273.109 256.362L279.326 257.293L274.828 261.841L275.888 268.251L270.325 265.221L264.761 268.251L265.821 261.841L261.324 257.293L267.54 256.362L270.325 250.525Z" fill="#FFC444"/>
<path d="M283.595 245.354L284.907 248.103L287.84 248.543L285.721 250.686L286.22 253.709L283.595 252.281L280.977 253.709L281.476 250.686L279.356 248.543L282.289 248.103L283.595 245.354Z" fill="#FFC444"/>
<path d="M266.227 93.4311L268.377 86.4147C266.287 82.0563 265.652 77.1031 266.573 72.3312C267.493 67.5593 269.917 63.2384 273.464 60.0455C277.01 56.8525 281.48 54.968 286.172 54.6871C290.864 54.4062 295.514 55.7448 299.393 58.4932C303.271 61.2417 306.16 65.2446 307.605 69.8748C309.051 74.5051 308.972 79.501 307.381 84.0798C305.79 88.6586 302.776 92.5616 298.813 95.1773C294.85 97.7929 290.16 98.9735 285.48 98.5339C280.921 98.206 276.609 96.2699 273.263 93.0484L266.227 93.4311Z" fill="#FAFAFA"/>
<path d="M266.227 93.4295L266.696 93.3849L268.051 93.2828L273.281 92.9129C275.873 95.3986 279.067 97.1112 282.523 97.8689C283.59 98.1135 284.673 98.2734 285.763 98.3473L287.488 98.4175C288.074 98.4175 288.665 98.3473 289.269 98.3154C294.672 97.7977 299.677 95.154 303.254 90.9291C305.264 88.5649 306.751 85.7739 307.61 82.7519C308.492 79.5482 308.666 76.1802 308.121 72.8971C307.985 72.0502 307.798 71.2129 307.56 70.3904C307.449 69.974 307.313 69.565 307.154 69.1657C307.006 68.7575 306.864 68.3493 306.704 67.941C306.009 66.3311 305.135 64.8111 304.098 63.4123C303.584 62.7063 303.026 62.0351 302.428 61.4031C302.141 61.0839 301.834 60.7836 301.51 60.5037C301.19 60.2167 300.894 59.9041 300.555 59.6362L299.557 58.8644L299.052 58.4817L298.516 58.1501L297.444 57.5122C297.087 57.3017 296.705 57.1359 296.335 56.9509C293.703 55.6734 290.844 54.9728 287.937 54.893C285.031 54.8132 282.14 55.3559 279.445 56.4872C276.751 57.6184 274.311 59.3138 272.28 61.467C270.248 63.6202 268.668 66.1847 267.638 68.9999C267.54 69.2933 267.435 69.5867 267.336 69.8737C267.229 70.1578 267.142 70.4499 267.078 70.7476L266.659 72.4825C266.473 73.5949 266.348 74.7172 266.283 75.844C266.139 79.4899 266.881 83.1149 268.439 86.3877C267.718 88.6648 267.164 90.4125 266.782 91.6053C266.597 92.1921 266.449 92.6386 266.351 92.9575L266.227 93.4295C266.227 93.4295 266.264 93.2828 266.351 92.983C266.437 92.6832 266.578 92.224 266.751 91.6372C267.108 90.4316 267.644 88.6584 268.334 86.3494V86.4132C266.735 83.1271 265.962 79.4767 266.086 75.7994C266.149 74.6578 266.272 73.5208 266.455 72.3932C266.591 71.8192 266.726 71.2387 266.868 70.6455C266.933 70.3437 267.019 70.0473 267.127 69.7589C267.225 69.4655 267.33 69.1721 267.429 68.8723C268.334 66.3626 269.674 64.0452 271.384 62.0346C274.432 58.4309 278.531 55.9527 283.06 54.9745C287.59 53.9964 292.304 54.5714 296.489 56.6128C296.859 56.8042 297.253 56.97 297.617 57.1869L298.701 57.8248L299.249 58.1628L299.761 58.5519L300.79 59.3365C301.128 59.6044 301.406 59.9233 301.757 60.2103C302.085 60.4982 302.398 60.8048 302.693 61.1288C303.3 61.7688 303.864 62.4507 304.381 63.1699C305.437 64.5888 306.327 66.1326 307.031 67.7688C307.191 68.1771 307.332 68.5917 307.486 69.0063C307.646 69.4121 307.782 69.8274 307.893 70.2501C308.138 71.0865 308.329 71.9389 308.466 72.8015C309.016 76.1477 308.831 79.5794 307.924 82.8412C307.046 85.9065 305.532 88.7364 303.488 91.1333C299.863 95.404 294.788 98.0652 289.318 98.5642C288.702 98.5642 288.086 98.6599 287.519 98.6599L285.776 98.5833C284.677 98.5036 283.585 98.3373 282.51 98.0858C279.043 97.2968 275.849 95.5461 273.269 93.0213H273.318L268.039 93.3083L266.696 93.3721L266.227 93.4295Z" fill="#263238"/>
<path d="M275.357 75.8006L278.851 72.6688L284.74 78.9261L297.931 67.5469L300.728 71.1443L283.822 85.4003L275.357 75.8006Z" fill="#FF5C5D"/>
<path d="M229.65 250.252L111.504 277.514C110.127 277.829 108.686 277.567 107.496 276.783C106.307 276 105.466 274.76 105.158 273.336L66.8131 95.2163C66.5081 93.7904 66.7616 92.2975 67.518 91.0648C68.2745 89.8321 69.4721 88.9601 70.8484 88.6401L188.995 61.3848C189.676 61.2268 190.382 61.2095 191.07 61.3341C191.758 61.4586 192.415 61.7225 193.005 62.1106C193.594 62.4987 194.104 63.0034 194.505 63.5958C194.906 64.1881 195.19 64.8566 195.34 65.5627L233.685 243.682C233.99 245.107 233.737 246.599 232.98 247.831C232.224 249.063 231.026 249.934 229.65 250.252Z" fill="#E0E0E0"/>
<path d="M229.65 250.251L230.038 250.129C230.424 250.006 230.796 249.839 231.147 249.632C231.72 249.282 232.225 248.826 232.638 248.286C233.204 247.545 233.577 246.667 233.722 245.735C233.808 245.171 233.808 244.596 233.722 244.032C233.624 243.438 233.464 242.82 233.328 242.169C233.051 240.862 232.712 239.439 232.404 237.896C231.739 234.802 230.962 231.236 230.094 227.224C226.631 211.17 221.616 187.933 215.419 159.23C212.338 144.872 208.931 129.149 205.296 112.271C203.477 103.834 201.598 95.1171 199.659 86.1192C198.678 81.599 197.69 77.0192 196.696 72.3799L195.186 65.4019C194.902 64.2474 194.255 63.2235 193.347 62.4914C192.439 61.7594 191.322 61.3606 190.171 61.3579C189.593 61.3703 189.017 61.456 188.459 61.613L186.728 62.0085L183.259 62.8122L176.279 64.4451L162.041 67.7364L132.654 74.5103L70.8916 88.7663C69.5895 89.0644 68.4484 89.8701 67.705 91.0163C66.9616 92.1624 66.6731 93.561 66.8993 94.9215C67.4538 97.6388 68.0576 100.356 68.6367 103.061C69.8031 108.469 70.9593 113.842 72.1052 119.179C74.3971 129.848 76.656 140.351 78.8822 150.689C83.3303 171.349 87.6182 191.281 91.7029 210.264C95.7875 229.246 99.6627 247.259 103.291 264.169C103.747 266.295 104.197 268.387 104.641 270.445C104.869 271.478 105.078 272.524 105.318 273.532C105.571 274.534 106.102 275.437 106.846 276.128C107.577 276.819 108.483 277.279 109.458 277.455C109.941 277.539 110.432 277.556 110.918 277.506C111.399 277.442 111.88 277.315 112.366 277.206L118.096 275.886L139.862 270.872L205.555 255.755L223.421 251.66L228.067 250.602L229.656 250.251C229.656 250.251 229.12 250.385 228.073 250.627L223.434 251.711L205.567 255.857L139.93 271.051L118.164 276.084L112.434 277.41C111.947 277.519 111.467 277.64 110.962 277.71C110.457 277.762 109.947 277.747 109.446 277.665C108.435 277.476 107.494 276.999 106.729 276.288C105.96 275.566 105.41 274.629 105.146 273.59C104.899 272.563 104.69 271.529 104.462 270.49C104.018 268.417 103.562 266.324 103.113 264.22C99.447 247.336 95.5719 229.291 91.4687 210.315C87.3656 191.339 83.09 171.406 78.6419 150.746C76.4199 140.417 74.1609 129.914 71.865 119.236C70.7149 113.904 69.5567 108.531 68.3903 103.118C67.8111 100.407 67.232 97.7089 66.6467 94.9662C66.4111 93.5391 66.7147 92.0729 67.4946 90.8713C68.2745 89.6696 69.4709 88.8245 70.8361 88.5111L132.598 74.2935L161.967 67.5195L176.211 64.2346L183.21 62.6208L186.678 61.8235L188.403 61.4217C188.981 61.2669 189.575 61.1792 190.171 61.1602C191.377 61.172 192.546 61.5933 193.498 62.3593C194.443 63.1236 195.115 64.1919 195.408 65.3955C195.92 67.7364 196.419 70.0645 196.924 72.4118C197.918 77.0384 198.897 81.599 199.862 86.0937C201.797 95.0874 203.672 103.805 205.487 112.246L215.585 159.21C221.746 187.914 226.736 211.163 230.18 227.224C231.042 231.236 231.806 234.802 232.466 237.896C232.798 239.439 233.082 240.868 233.384 242.176C233.513 242.813 233.667 243.451 233.766 244.044C233.855 244.615 233.855 245.196 233.766 245.767C233.622 246.716 233.242 247.611 232.663 248.363C231.996 249.244 231.077 249.885 230.038 250.193L229.65 250.251Z" fill="#263238"/>
<g opacity="0.3">
<path d="M117.499 271.203L225.141 245.727L221.734 223.881L215.635 211.641L112.663 253.522L117.499 271.203Z" fill="black"/>
</g>
<g opacity="0.3">
<path d="M162.435 67.916L166.507 74.875L167.302 78.5617L164.536 79.1996L162.435 67.916Z" fill="black"/>
</g>
<path d="M72.9497 96.2493L110.297 269.744L227.359 242.731L220.68 211.713L190.012 69.2363L72.9497 96.2493Z" fill="white"/>
<path d="M72.9497 96.2498L190.006 69.1348H190.11V69.2432C200.497 117.452 213.46 177.62 227.482 242.738L227.513 242.866H227.383L110.327 269.866H110.21V269.745C88.1793 167.319 73.1777 97.3022 72.9497 96.2498L110.408 269.745L110.272 269.649L227.328 242.63L227.229 242.789C213.244 177.627 200.306 117.477 189.907 69.2623L190.036 69.3453L72.9497 96.2498Z" fill="#263238"/>
<path d="M105.915 75.6165L157.54 63.7084C158.545 63.4852 159.594 63.6818 160.46 64.2555C161.326 64.8293 161.938 65.7337 162.163 66.7721L165.149 80.6495L105.941 94.3067L102.955 80.4292C102.73 79.384 102.915 78.2891 103.47 77.3854C104.025 76.4817 104.904 75.8431 105.913 75.6103L105.915 75.6165Z" fill="#263238"/>
<path d="M137.823 61.2305L122.748 64.7067L127.393 77.6806L138.747 75.0591L137.823 61.2305Z" fill="#263238"/>
<path d="M157.538 63.7026C157.538 63.7791 146.005 66.5027 131.755 69.7876C117.505 73.0726 105.929 75.6877 105.917 75.6176C105.904 75.5474 117.443 72.8238 131.7 69.5325C145.956 66.2412 157.52 63.6324 157.538 63.7026Z" fill="#455A64"/>
<path d="M106.662 91.1022C106.594 91.1022 105.997 88.6146 105.325 85.5146C104.654 82.4147 104.173 79.8824 104.241 79.8633C104.309 79.8441 104.906 82.3509 105.578 85.4572C106.249 88.5635 106.717 91.0894 106.662 91.1022Z" fill="#455A64"/>
<path d="M162.35 76.8475C161.858 75.1796 161.446 73.4872 161.118 71.7766C160.502 68.9573 160.077 66.6738 160.144 66.6738C160.638 68.3522 161.049 70.0553 161.376 71.7766C161.98 74.5449 162.418 76.8475 162.35 76.8475Z" fill="#455A64"/>
<path d="M160.002 79.8744C160.002 79.9509 148.167 82.7447 133.51 86.1189C118.854 89.4932 107.031 92.153 107.013 92.102C106.994 92.0509 118.848 89.238 133.504 85.8638C148.161 82.4896 159.984 79.8042 160.002 79.8744Z" fill="#455A64"/>
<path d="M128.841 130.35C128.841 130.42 120.832 132.327 110.975 134.604C101.117 136.881 93.1084 138.674 93.0714 138.603C93.0345 138.533 101.044 136.626 110.938 134.343C120.832 132.059 128.804 130.279 128.841 130.35Z" fill="#263238"/>
<path d="M188.404 123.409C188.404 123.479 167.537 128.359 141.766 134.31C115.996 140.261 95.0795 145.013 95.061 144.937C95.0426 144.86 115.903 139.993 141.705 134.042C167.506 128.091 188.385 123.333 188.404 123.409Z" fill="#263238"/>
<path d="M189.685 129.366C189.685 129.436 168.819 134.316 143.048 140.261C117.277 146.205 96.361 150.97 96.3486 150.9C96.3363 150.83 117.209 145.95 143.011 139.993C168.812 134.035 189.673 129.29 189.685 129.366Z" fill="#263238"/>
<path d="M190.973 135.329C190.973 135.399 170.1 140.279 144.329 146.224C118.558 152.168 97.6484 156.933 97.6299 156.863C97.6114 156.793 118.497 151.913 144.274 145.962C170.05 140.011 190.954 135.253 190.973 135.329Z" fill="#263238"/>
<path d="M192.254 141.27C192.254 141.346 171.388 146.226 145.617 152.171C119.846 158.116 98.9301 162.899 98.9116 162.829C98.8932 162.759 119.778 157.88 145.555 151.928C171.332 145.977 192.236 141.219 192.254 141.27Z" fill="#263238"/>
<path d="M193.53 147.251C193.53 147.321 172.663 152.2 146.892 158.152C121.121 164.103 100.205 168.861 100.193 168.791C100.181 168.721 121.053 163.835 146.837 157.89C172.62 151.945 193.53 147.181 193.53 147.251Z" fill="#263238"/>
<path d="M118.3 189.221C118.274 189.155 118.256 189.087 118.244 189.017C118.207 188.87 118.164 188.685 118.109 188.449C117.985 187.933 117.825 187.218 117.616 186.319C117.203 184.476 116.63 181.886 115.934 178.786L116.069 178.869L105.972 181.222C105.972 181.254 106.157 180.923 106.064 181.063V181.146V181.235L106.101 181.414L106.175 181.771C106.231 182.007 106.28 182.243 106.329 182.479C106.428 182.951 106.532 183.417 106.631 183.876C106.828 184.801 107.019 185.707 107.21 186.587C107.58 188.341 107.937 189.999 108.258 191.524L108.122 191.434L115.429 189.808L117.499 189.361L118.053 189.247H118.257C118.201 189.271 118.143 189.288 118.084 189.298L117.554 189.438L115.521 189.936L108.214 191.658H108.11V191.549L107.032 186.612C106.841 185.738 106.65 184.833 106.415 183.908C106.317 183.449 106.218 182.983 106.114 182.511C106.064 182.275 106.015 182.039 105.96 181.803L105.886 181.446L105.849 181.267V181.178V181.133L105.947 180.974L116.057 178.658H116.168V178.773C116.821 181.911 117.363 184.514 117.751 186.427L118.176 188.545C118.22 188.768 118.257 188.953 118.281 189.094C118.29 189.136 118.296 189.178 118.3 189.221Z" fill="#263238"/>
<path d="M193.399 163.438L122.91 179.697L124.22 185.786L194.709 169.527L193.399 163.438Z" fill="#E0E0E0"/>
<path d="M122.206 207.368C122.181 207.304 122.162 207.238 122.15 207.17L122.015 206.602C121.891 206.086 121.731 205.365 121.522 204.466C121.115 202.622 120.536 200.001 119.846 196.933L119.975 197.022L109.878 199.369C109.878 199.369 110.063 199.069 109.97 199.21V199.312V199.401L110.007 199.58L110.081 199.937C110.137 200.173 110.186 200.409 110.235 200.645C110.334 201.117 110.438 201.583 110.537 202.048C110.734 202.967 110.925 203.872 111.116 204.753C111.486 206.507 111.843 208.165 112.163 209.69L112.034 209.6L119.335 207.974L121.405 207.527L121.959 207.413L122.162 207.381C122.162 207.381 122.107 207.381 121.99 207.438L121.46 207.572L119.427 208.07L112.077 209.83H111.972V209.715C111.64 208.191 111.276 206.526 110.894 204.778C110.703 203.904 110.512 202.999 110.278 202.08C110.18 201.614 110.081 201.149 109.976 200.677C109.927 200.441 109.878 200.205 109.822 199.969L109.748 199.612L109.711 199.433V199.344V199.299L109.81 199.14L119.914 196.824H120.025V196.939C120.678 200.077 121.22 202.68 121.608 204.593C121.787 205.486 121.935 206.194 122.033 206.711C122.076 206.934 122.113 207.119 122.138 207.266C122.163 207.298 122.185 207.332 122.206 207.368Z" fill="#263238"/>
<path d="M197.303 181.586L126.813 197.846L128.124 203.935L198.613 187.675L197.303 181.586Z" fill="#E0E0E0"/>
<path d="M126.111 225.515C126.086 225.451 126.068 225.385 126.056 225.317C126.019 225.171 125.976 224.979 125.92 224.75C125.797 224.233 125.637 223.519 125.427 222.619C125.021 220.77 124.442 218.154 123.752 215.08L123.881 215.169L113.783 217.517L113.882 217.357V217.389V217.434V217.523L113.919 217.701L113.993 218.059C114.048 218.295 114.098 218.537 114.147 218.767C114.252 219.239 114.35 219.704 114.449 220.17C114.646 221.088 114.837 221.994 115.028 222.874C115.398 224.629 115.755 226.287 116.075 227.811L115.946 227.722L123.296 226.102L125.366 225.655L125.92 225.541L126.124 225.502C126.124 225.502 126.068 225.502 125.951 225.56L125.421 225.694L123.388 226.191L116.045 227.952L115.903 228.016V227.901C115.57 226.376 115.207 224.711 114.825 222.97C114.64 222.09 114.443 221.184 114.239 220.266C114.141 219.8 114.042 219.334 113.937 218.869L113.79 218.154L113.71 217.797L113.673 217.619V217.529V217.485C113.58 217.625 113.79 217.287 113.771 217.319L123.875 215.01H123.986V215.118L125.569 222.772C125.748 223.665 125.896 224.38 125.994 224.89C126.037 225.12 126.074 225.298 126.105 225.445C126.108 225.468 126.11 225.492 126.111 225.515Z" fill="#263238"/>
<path d="M201.205 199.731L130.716 215.99L132.027 222.079L202.516 205.82L201.205 199.731Z" fill="#E0E0E0"/>
<path d="M108.59 185.471L109.65 183.749L112.798 185.56L116.846 179.233L118.417 180.349L113.186 188.322L108.59 185.471Z" fill="#FF725E"/>
<path d="M112.367 203.012L113.426 201.289L116.568 203.101L120.622 196.773L122.187 197.89L116.963 205.863L112.367 203.012Z" fill="#FF725E"/>
<path d="M116.235 221L117.295 219.278L120.443 221.083L124.491 214.762L126.062 215.878L120.831 223.851L116.235 221Z" fill="#FF725E"/>
<path d="M148.5 243.565C148.5 243.635 142.567 245.071 135.211 246.755C127.855 248.438 121.879 249.784 121.86 249.701C121.842 249.618 127.793 248.196 135.155 246.512C142.518 244.828 148.488 243.495 148.5 243.565Z" fill="#263238"/>
<path d="M161.776 240.283C160.168 240.793 158.535 241.219 156.885 241.559C155.26 241.982 153.615 242.319 151.956 242.567C153.565 242.057 155.198 241.631 156.848 241.291C158.473 240.868 160.118 240.531 161.776 240.283Z" fill="#263238"/>
<path d="M205.728 225.964C205.728 226.035 200.387 227.329 193.77 228.86C187.153 230.391 181.769 231.565 181.75 231.495C181.732 231.424 187.091 230.123 193.708 228.599C200.325 227.074 205.71 225.888 205.728 225.964Z" fill="#263238"/>
<path d="M200.005 242.752C200.005 242.752 200.054 242.579 200.122 242.241C200.2 241.75 200.175 241.248 200.048 240.768C199.825 240.012 199.538 239.278 199.191 238.574C198.704 237.634 198.418 236.596 198.354 235.531C198.367 234.878 198.513 234.235 198.782 233.644C199.05 233.053 199.435 232.527 199.912 232.1C200.475 231.62 201.146 231.296 201.862 231.158C202.579 231.019 203.317 231.071 204.009 231.309C204.766 231.551 205.441 232.011 205.956 232.635C206.228 232.972 206.39 233.39 206.418 233.828C206.424 234.064 206.357 234.295 206.228 234.489C206.098 234.683 205.912 234.829 205.697 234.906C205.294 235.04 204.882 235.144 204.465 235.219L203.233 235.48C202.414 235.646 201.569 235.805 200.713 235.92C199.042 236.167 197.347 236.177 195.674 235.952C194.918 235.784 194.128 235.916 193.462 236.322C192.932 236.876 192.482 237.505 192.125 238.191C191.914 238.53 191.618 238.804 191.269 238.982C190.909 239.142 190.506 239.16 190.135 239.033C189.503 238.741 188.902 238.382 188.342 237.961C188.079 237.784 187.783 237.667 187.473 237.617C187.182 237.585 186.889 237.662 186.648 237.834C186.222 238.239 185.867 238.718 185.601 239.25C185.32 239.706 184.937 240.086 184.484 240.357C184.032 240.627 183.523 240.782 183.001 240.806C182.361 240.827 181.73 240.646 181.193 240.285C180.656 239.925 180.237 239.404 179.994 238.791C179.927 238.627 179.88 238.456 179.853 238.28C179.853 238.28 179.902 238.459 180.037 238.765C180.243 239.216 180.542 239.614 180.912 239.932C181.49 240.442 182.237 240.7 182.995 240.653C183.492 240.624 183.975 240.472 184.403 240.21C184.832 239.949 185.194 239.584 185.459 239.148C185.726 238.589 186.091 238.087 186.537 237.668C186.817 237.465 187.158 237.372 187.498 237.406C187.837 237.454 188.163 237.576 188.453 237.764C189.003 238.172 189.592 238.522 190.209 238.81C190.525 238.92 190.87 238.904 191.176 238.765C191.489 238.6 191.752 238.351 191.94 238.044C192.305 237.338 192.77 236.693 193.32 236.131C193.658 235.876 194.056 235.722 194.472 235.684C194.882 235.636 195.295 235.636 195.704 235.684C197.36 235.907 199.037 235.894 200.688 235.646C201.533 235.531 202.37 235.378 203.19 235.212L204.422 234.951C204.818 234.88 205.209 234.782 205.593 234.657C205.762 234.603 205.909 234.492 206.012 234.342C206.114 234.192 206.166 234.012 206.159 233.828C206.134 233.446 205.992 233.081 205.753 232.788C205.269 232.187 204.627 231.743 203.904 231.513C203.251 231.283 202.552 231.229 201.873 231.356C201.194 231.484 200.557 231.788 200.023 232.24C199.563 232.644 199.19 233.143 198.928 233.706C198.666 234.268 198.52 234.881 198.501 235.506C198.559 236.546 198.83 237.561 199.296 238.484C199.632 239.202 199.906 239.949 200.116 240.717C200.23 241.212 200.23 241.727 200.116 242.222C200.1 242.403 200.063 242.581 200.005 242.752Z" fill="#263238"/>
<path d="M212.739 234.587C212.636 234.632 212.528 234.665 212.418 234.683L211.488 234.919L208.05 235.742C205.149 236.437 201.144 237.419 196.745 238.58C192.346 239.741 188.366 240.845 185.495 241.667L182.095 242.637L181.171 242.892C181.063 242.931 180.951 242.955 180.838 242.962C180.939 242.914 181.045 242.873 181.152 242.841L182.07 242.535C182.865 242.28 184.017 241.897 185.446 241.482C188.305 240.621 192.272 239.48 196.677 238.293C201.082 237.107 205.099 236.182 208.007 235.531C209.467 235.206 210.644 234.957 211.463 234.791L212.406 234.606C212.516 234.586 212.627 234.579 212.739 234.587Z" fill="#263238"/>
<path d="M162.205 94.6271L114.356 105.664L116.359 114.972L164.207 103.935L162.205 94.6271Z" fill="#E0E0E0"/>
<path d="M207.471 245.665L222.935 330.225L237.062 303.199L263.837 319.471L235.411 237.131L207.471 245.665Z" fill="#267DFF"/>
<g opacity="0.3">
<path d="M212.671 274.109C214.144 274.39 215.66 274.3 217.092 273.846C218.524 273.392 219.828 272.587 220.896 271.5C222.301 269.988 223.243 267.941 225.017 266.933C226.613 266.021 228.578 266.155 230.328 266.652C232.078 267.15 233.735 267.998 235.497 268.47C237.23 268.925 239.032 269.02 240.801 268.749C242.569 268.477 244.268 267.845 245.798 266.888L241.338 254.068L220.637 251.389L210.78 263.667L212.671 274.109Z" fill="black"/>
</g>
<path d="M236.039 299.838C235.953 299.838 233.655 291.08 230.901 280.231C228.147 269.381 225.972 260.553 226.065 260.527C226.157 260.502 228.455 269.285 231.209 280.141C233.963 290.997 236.138 299.819 236.039 299.838Z" fill="#263238"/>
<path d="M209.739 250.068L194.281 334.621L180.148 307.595L153.373 323.867L181.799 241.533L209.739 250.068Z" fill="#267DFF"/>
<g opacity="0.3">
<path d="M173.298 266.158C173.298 266.158 177.691 269.902 182.94 268.173C188.189 266.445 191.442 266.088 194.275 268.173C197.109 270.259 204.798 277.103 204.798 277.103L206.585 267.35L196.265 252.68L185.521 254.906L177.82 255.697L174.967 261.291L173.298 266.158Z" fill="black"/>
</g>
<path d="M300.371 173.736C300.371 179.802 292.879 185.032 291.783 190.767C290.655 196.673 295.621 204.461 293.446 209.902C291.271 215.343 282.357 217.295 279.202 222.206C276.048 227.118 277.705 236.335 273.657 240.538C269.61 244.741 260.72 242.968 255.951 246.279C251.183 249.589 249.402 258.736 244.048 261.026C238.799 263.284 231.277 258.136 225.566 259.31C220.021 260.439 214.982 268.195 209.123 268.195C203.264 268.195 198.218 260.439 192.679 259.31C186.974 258.136 179.452 263.284 174.197 261.026C168.855 258.736 167.057 249.544 162.307 246.279C157.557 243.013 148.66 244.729 144.606 240.538C140.553 236.347 142.259 227.143 139.062 222.206C135.864 217.269 127.03 215.432 124.812 209.902C122.594 204.372 127.603 196.679 126.475 190.767C125.378 185.026 117.893 179.802 117.893 173.736C117.893 167.67 125.378 162.446 126.475 156.712C127.603 150.805 122.637 143.017 124.812 137.576C126.986 132.135 135.901 130.184 139.062 125.272C142.222 120.361 140.553 111.137 144.606 106.94C148.66 102.743 157.544 104.51 162.307 101.2C167.069 97.8893 168.886 88.7425 174.215 86.4526C179.464 84.1946 186.987 89.3357 192.698 88.1684C198.243 87.0331 203.282 79.2832 209.141 79.2832C215 79.2832 220.021 87.0522 225.566 88.1684C231.277 89.3357 238.799 84.1946 244.048 86.4526C249.39 88.7425 251.183 97.9339 255.933 101.2C260.683 104.466 269.579 102.75 273.639 106.94C277.699 111.131 275.986 120.335 279.184 125.272C282.381 130.209 291.216 132.046 293.428 137.576C295.639 143.106 290.637 150.799 291.764 156.712C292.879 162.446 300.371 167.67 300.371 173.736Z" fill="#267DFF"/>
<path d="M187.788 120.793C187.721 120.715 187.665 120.627 187.621 120.532L187.203 119.754C186.845 119.078 186.346 118.083 185.749 116.845C184.56 114.37 183.019 110.888 181.535 106.958C180.05 103.029 178.91 99.3808 178.171 96.7529C177.795 95.4261 177.512 94.3482 177.333 93.5955C177.259 93.2511 177.191 92.9577 177.136 92.728C177.104 92.6292 177.088 92.5259 177.086 92.4219C177.086 92.4219 177.136 92.5176 177.197 92.7089L177.456 93.5636L178.386 96.6891C179.187 99.3234 180.358 102.94 181.836 106.895C183.315 110.849 184.818 114.3 185.952 116.8C186.513 118.012 186.975 119.007 187.313 119.754L187.683 120.557C187.729 120.63 187.764 120.71 187.788 120.793Z" fill="#263238"/>
<path d="M195.908 117.597C195.805 117.371 195.726 117.134 195.673 116.889C195.538 116.437 195.365 115.767 195.162 114.938C194.756 113.279 194.25 110.977 193.794 108.412C193.339 105.848 193.024 103.507 192.833 101.811C192.741 100.962 192.673 100.274 192.642 99.7951C192.617 99.5471 192.617 99.2969 192.642 99.0488C192.72 99.2863 192.769 99.5326 192.79 99.7824L193.086 101.779C193.326 103.463 193.702 105.791 194.139 108.355C194.577 110.919 195.033 113.203 195.378 114.887C195.538 115.665 195.68 116.328 195.791 116.858C195.859 117.098 195.899 117.347 195.908 117.597Z" fill="#263238"/>
<path d="M210.232 116.123C210.146 116.123 209.918 108.967 209.721 100.139C209.524 91.3108 209.443 84.1542 209.536 84.1542C209.628 84.1542 209.85 91.3045 210.041 100.132C210.232 108.96 210.318 116.117 210.232 116.123Z" fill="#263238"/>
<path d="M224.648 101.422C224.728 101.422 223.736 105.026 222.424 109.408C221.111 113.79 219.959 117.33 219.898 117.304C219.836 117.279 220.803 113.701 222.116 109.312C223.428 104.924 224.562 101.396 224.648 101.422Z" fill="#263238"/>
<path d="M230.525 119.906C230.543 119.803 230.57 119.703 230.605 119.606C230.679 119.376 230.778 119.102 230.889 118.764C231.135 118.037 231.505 116.991 231.998 115.702C232.959 113.151 234.345 109.585 235.922 105.695C237.499 101.804 238.96 98.3019 240.044 95.776L241.338 92.7909L241.707 91.9872C241.747 91.8904 241.796 91.7984 241.855 91.7129C241.843 91.8171 241.813 91.9184 241.769 92.0127C241.683 92.2359 241.578 92.5102 241.455 92.8419L240.223 95.8653C239.175 98.4613 237.758 101.957 236.193 105.822C234.629 109.687 233.248 113.202 232.207 115.785L231.006 118.815L230.667 119.632C230.587 119.817 230.538 119.912 230.525 119.906Z" fill="#263238"/>
<path d="M238.232 124.046C238.323 123.819 238.441 123.605 238.584 123.408C238.824 123 239.2 122.42 239.656 121.712C240.58 120.296 241.904 118.376 243.457 116.322C245.009 114.268 246.482 112.495 247.585 111.219C248.133 110.581 248.589 110.077 248.909 109.733C249.061 109.54 249.237 109.368 249.433 109.223C249.307 109.433 249.162 109.632 249.002 109.816L247.769 111.372C246.71 112.686 245.268 114.504 243.722 116.558C242.175 118.612 240.82 120.5 239.853 121.877L238.694 123.51C238.561 123.707 238.406 123.887 238.232 124.046Z" fill="#263238"/>
<path d="M249.433 133.576C249.372 133.506 254.245 128.71 260.319 122.86C266.394 117.011 271.36 112.323 271.409 112.393C271.458 112.464 266.597 117.254 260.523 123.109C254.448 128.965 249.489 133.615 249.433 133.576Z" fill="#263238"/>
<path d="M269 135.529C268.406 135.921 267.789 136.272 267.151 136.582C265.999 137.22 264.422 138.106 262.685 139.133C260.947 140.16 259.346 141.047 258.163 141.595C257.547 141.876 257.085 142.099 256.746 142.233C256.574 142.322 256.392 142.386 256.204 142.424C256.799 142.037 257.416 141.688 258.052 141.378C259.21 140.741 260.787 139.848 262.525 138.827C264.262 137.806 265.864 136.913 267.047 136.371C267.663 136.084 268.125 135.861 268.464 135.733C268.633 135.641 268.813 135.572 269 135.529Z" fill="#263238"/>
<path d="M287.113 143.334C287.144 143.424 281.34 145.618 274.175 148.233C267.01 150.848 261.139 152.909 261.108 152.819C261.077 152.73 266.881 150.542 274.046 147.921C281.211 145.299 287.088 143.252 287.113 143.334Z" fill="#263238"/>
<path d="M292.879 177.441C292.879 177.53 286.564 176.981 278.796 176.216C271.027 175.45 264.737 174.755 264.743 174.666C264.749 174.577 271.058 175.119 278.826 175.884C286.595 176.65 292.892 177.345 292.879 177.441Z" fill="#263238"/>
<path d="M288.246 208.023C288.203 208.106 282.307 205.306 275.074 201.772C267.841 198.239 262.007 195.292 262.044 195.209C262.081 195.126 267.977 197.932 275.216 201.466C282.455 205 288.283 207.94 288.246 208.023Z" fill="#263238"/>
<path d="M268.852 237.13C268.784 237.194 264.539 232.084 259.352 225.725C254.164 219.366 250.03 214.167 250.111 214.11C250.191 214.052 254.423 219.155 259.611 225.515C264.798 231.874 268.92 237.072 268.852 237.13Z" fill="#263238"/>
<path d="M252.674 240.977C252.48 240.758 252.308 240.518 252.162 240.262C251.848 239.784 251.404 239.095 250.868 238.228C249.796 236.505 248.361 234.088 246.852 231.377C245.342 228.666 244.036 226.166 243.155 224.361C242.699 223.449 242.342 222.709 242.102 222.186C241.96 221.927 241.846 221.654 241.763 221.369C241.936 221.607 242.086 221.861 242.212 222.128C242.514 222.683 242.896 223.404 243.352 224.252C244.313 226.045 245.644 228.519 247.153 231.23C248.663 233.941 250.068 236.365 251.084 238.125L252.316 240.211C252.457 240.455 252.577 240.711 252.674 240.977Z" fill="#263238"/>
<path d="M242.607 255.618C242.607 255.618 242.539 255.535 242.447 255.356L242.04 254.578C241.695 253.896 241.221 252.901 240.654 251.663C239.514 249.182 238.054 245.693 236.668 241.757C235.282 237.822 234.234 234.18 233.587 231.552C233.255 230.219 232.971 229.141 232.842 228.394C232.774 228.05 232.713 227.757 232.663 227.527C232.635 227.428 232.622 227.324 232.626 227.221C232.675 227.313 232.71 227.412 232.731 227.514L232.965 228.362C233.175 229.147 233.464 230.206 233.809 231.488C234.536 234.122 235.614 237.739 236.994 241.694C238.374 245.648 239.804 249.112 240.882 251.612L242.176 254.572L242.527 255.375C242.56 255.454 242.586 255.535 242.607 255.618Z" fill="#263238"/>
<path d="M222.233 245.352C222.104 244.618 222.016 243.877 221.968 243.133C221.826 241.761 221.605 239.867 221.266 237.794C220.927 235.721 220.551 233.852 220.255 232.506C220.062 231.787 219.912 231.056 219.806 230.318C219.906 230.492 219.979 230.682 220.021 230.88C220.138 231.25 220.299 231.785 220.471 232.449C220.828 233.788 221.247 235.638 221.586 237.737C221.925 239.835 222.11 241.73 222.202 243.114C222.245 243.803 222.264 244.389 222.27 244.747C222.286 244.949 222.274 245.153 222.233 245.352Z" fill="#263238"/>
<path d="M208.932 263.736C208.905 263.628 208.895 263.516 208.901 263.404C208.901 263.155 208.901 262.843 208.901 262.467C208.901 261.657 208.901 260.476 208.901 259.022C208.945 256.107 209.074 252.089 209.302 247.649C209.53 243.21 209.801 239.198 210.023 236.296C210.14 234.848 210.244 233.674 210.325 232.864C210.362 232.488 210.399 232.181 210.423 231.933C210.43 231.822 210.448 231.713 210.479 231.607C210.493 231.717 210.493 231.829 210.479 231.939C210.479 232.188 210.479 232.5 210.442 232.877C210.392 233.738 210.325 234.899 210.245 236.315C210.078 239.268 209.856 243.255 209.628 247.668C209.4 252.082 209.234 256.12 209.129 259.029C209.08 260.445 209.037 261.58 209.006 262.473C209.006 262.843 209.006 263.155 208.963 263.404C208.96 263.515 208.95 263.626 208.932 263.736Z" fill="#263238"/>
<path d="M198.077 231.588C198.077 232.135 198.017 232.681 197.898 233.214C197.732 234.216 197.473 235.587 197.134 237.086C196.795 238.585 196.438 239.937 196.154 240.913C196.029 241.445 195.852 241.963 195.625 242.457C195.68 241.914 195.785 241.378 195.939 240.856L196.826 237.029L197.67 233.202C197.759 232.652 197.895 232.112 198.077 231.588Z" fill="#263238"/>
<path d="M178.497 221.85C177.684 223.229 176.782 224.55 175.799 225.804C174.902 227.125 173.916 228.379 172.848 229.555C173.663 228.177 174.564 226.856 175.546 225.6C176.445 224.281 177.431 223.028 178.497 221.85Z" fill="#263238"/>
<path d="M168.221 214.698C168.289 214.762 164.463 219.412 159.682 225.082C154.901 230.753 150.971 235.288 150.903 235.243C150.835 235.199 154.655 230.536 159.442 224.866C164.229 219.195 168.153 214.622 168.221 214.698Z" fill="#263238"/>
<path d="M163.083 206.789C163.138 206.859 161.006 208.773 158.333 211.056C156.748 212.482 155.093 213.821 153.373 215.068C153.318 214.998 155.443 213.091 158.123 210.801C159.709 209.377 161.364 208.037 163.083 206.789Z" fill="#263238"/>
<path d="M157.064 194.849C157.107 194.932 151.778 197.668 145.173 200.966C138.569 204.264 133.153 206.873 133.153 206.79C133.153 206.707 138.439 203.97 145.044 200.673C151.648 197.375 157.027 194.773 157.064 194.849Z" fill="#263238"/>
<path d="M154.648 188.896C154.473 188.984 154.286 189.042 154.094 189.069C153.737 189.158 153.213 189.273 152.56 189.394C151.26 189.643 149.449 189.93 147.44 190.14C145.432 190.351 143.602 190.44 142.284 190.459C141.618 190.459 141.082 190.459 140.713 190.459C140.52 190.476 140.326 190.458 140.14 190.408C140.846 190.303 141.558 190.244 142.271 190.229C143.59 190.147 145.407 190.019 147.409 189.815C149.412 189.611 151.217 189.362 152.523 189.177C153.225 189.038 153.935 188.945 154.648 188.896Z" fill="#263238"/>
<path d="M152.695 175.161C152.337 175.192 151.976 175.192 151.617 175.161L148.691 175.008C146.227 174.88 142.795 174.765 139.018 174.784C135.242 174.804 131.823 174.963 129.352 175.116L126.419 175.301C126.061 175.339 125.701 175.352 125.341 175.339C125.691 175.253 126.048 175.198 126.407 175.174C127.097 175.084 128.095 174.982 129.334 174.88C131.798 174.67 135.229 174.472 139.018 174.453C142.807 174.434 146.233 174.587 148.703 174.772C149.935 174.861 150.94 174.95 151.63 175.033C151.988 175.044 152.344 175.087 152.695 175.161Z" fill="#263238"/>
<path d="M153.909 163.087C153.909 163.17 149.893 162.099 145.001 160.683C140.109 159.267 136.154 158.048 136.172 157.965C136.191 157.883 140.189 158.948 145.087 160.364C149.985 161.78 153.934 162.998 153.909 163.087Z" fill="#263238"/>
<path d="M156.484 152.968C156.386 152.961 156.288 152.939 156.195 152.904L155.382 152.643C154.673 152.42 153.663 152.062 152.418 151.597C149.185 150.365 146.016 148.96 142.924 147.387C139.834 145.808 136.825 144.062 133.911 142.157C132.79 141.423 131.903 140.811 131.299 140.364L130.609 139.854C130.449 139.733 130.369 139.669 130.375 139.656C130.469 139.691 130.558 139.738 130.64 139.797L131.367 140.256C131.983 140.67 132.901 141.251 134.028 141.959C136.283 143.375 139.456 145.244 143.066 147.062C146.676 148.88 150.04 150.359 152.498 151.348C153.731 151.846 154.729 152.235 155.419 152.496L156.213 152.815C156.398 152.911 156.491 152.955 156.484 152.968Z" fill="#263238"/>
<path d="M162.288 142.791C162.232 142.867 159.115 140.686 155.32 137.918C151.525 135.149 148.487 132.815 148.543 132.77C148.598 132.726 151.716 134.875 155.511 137.643C159.306 140.412 162.337 142.721 162.288 142.791Z" fill="#263238"/>
<path d="M150.028 111.787C150.112 111.838 150.19 111.898 150.262 111.966L150.878 112.521L153.146 114.606L160.619 121.495L168.116 128.358L170.377 130.444L170.994 131.025C171.068 131.088 171.134 131.161 171.191 131.242C171.191 131.242 171.098 131.19 170.95 131.076L170.304 130.54C169.749 130.074 168.948 129.392 167.975 128.537C166.016 126.828 163.336 124.436 160.415 121.744C157.495 119.052 154.871 116.59 153.022 114.779C152.086 113.873 151.334 113.133 150.823 112.616L150.207 112.017C150.09 111.876 150.022 111.8 150.028 111.787Z" fill="#263238"/>
<path d="M169.25 112.367C169.407 112.498 169.547 112.648 169.669 112.814C169.922 113.107 170.285 113.547 170.704 114.089C171.56 115.199 172.7 116.762 173.883 118.554C175.066 120.347 176.064 122.011 176.748 123.236C177.087 123.874 177.364 124.352 177.53 124.71C177.638 124.883 177.721 125.072 177.777 125.271C177.327 124.661 176.916 124.022 176.544 123.357C175.811 122.165 174.789 120.519 173.612 118.739C172.435 116.96 171.326 115.371 170.531 114.236C170.064 113.644 169.635 113.02 169.25 112.367Z" fill="#263238"/>
<g opacity="0.2">
<path d="M144.625 106.946L171.425 131.242L178.091 125.724L162.535 101.084C162.535 101.084 161.346 101.99 158.222 102.908C155.246 103.763 146.412 103.999 144.625 106.946Z" fill="black"/>
</g>
<g opacity="0.2">
<path d="M174.431 86.4146L187.523 120.329L195.883 117.618L193.098 88.2006C193.098 88.2006 191.657 88.5514 188.459 88.1305C185.391 87.6903 177.881 84.6606 174.431 86.4146Z" fill="black"/>
</g>
<g opacity="0.3">
<path d="M209.357 79.2862L210.232 116.122L218.075 116.511L226.01 88.2416C224.362 87.9003 222.795 87.2286 221.396 86.2643C218.679 84.4975 213.152 78.9992 209.357 79.2862Z" fill="black"/>
</g>
<g opacity="0.2">
<path d="M243.537 86.2461L230.525 120.218L237.61 123.72L255.507 100.834C254.161 99.6568 253.012 98.2582 252.106 96.6941C250.4 93.8684 247.498 87.3815 243.537 86.2461Z" fill="black"/>
</g>
<g opacity="0.2">
<path d="M274.076 107.463L249.852 133.615L255.255 141.148L278.925 124.793C278.142 123.307 277.614 121.69 277.366 120.016C276.793 116.801 276.701 111.016 274.076 107.463Z" fill="black"/>
</g>
<g opacity="0.2">
<path d="M293.2 136.941L260.578 150.834L263.289 159.464L291.666 156.275C291.666 156.275 291.493 155.369 291.863 152.052C292.226 148.85 295.479 141.687 293.2 136.941Z" fill="black"/>
</g>
<g opacity="0.2">
<path d="M300.42 173.734L264.86 175.01L264.564 183.13L291.672 191.345C291.851 190.174 292.216 189.04 292.75 187.99C294.764 184.099 300.42 178.588 300.42 173.734Z" fill="black"/>
</g>
<g opacity="0.2">
<path d="M293.871 208.556L261.127 195.34L257.812 202.707L280.09 221.001C281.262 219.838 282.561 218.819 283.959 217.964C286.676 216.166 293.12 213.27 293.871 208.556Z" fill="black"/>
</g>
<g opacity="0.2">
<path d="M245.706 208.024L237.604 215.04C238.221 215.71 249.021 234.718 255.674 246.467C255.767 246.397 255.853 246.314 255.945 246.25C260.332 243.207 268.125 244.426 272.524 241.421L245.706 208.024Z" fill="black"/>
<path d="M230.815 221.347L218.715 225.621L224.444 259.631C224.814 259.492 225.193 259.384 225.578 259.306C231.289 258.132 238.811 263.28 244.061 261.022C244.781 260.705 245.451 260.275 246.044 259.746L230.815 221.347Z" fill="black"/>
<path d="M208.716 268.199L210.65 223.766L200.177 221.023L192.39 259.294L192.679 259.345C198.095 260.411 203.036 267.822 208.716 268.199Z" fill="black"/>
<path d="M182.44 216.203C182.44 216.203 168.615 235.339 161.389 245.697C161.724 245.867 162.047 246.061 162.356 246.278C167.106 249.569 168.905 258.735 174.246 261.025C174.491 261.131 174.742 261.221 174.998 261.293L194.306 223.443L182.44 216.203Z" fill="black"/>
<path d="M168.221 200.766L138.735 221.745C138.846 221.898 138.969 222.044 139.074 222.197C142.278 227.153 140.565 236.326 144.619 240.529C144.993 240.909 145.406 241.245 145.851 241.531C156.269 229.373 174.973 207.546 175.651 206.787L168.221 200.766Z" fill="black"/>
<path d="M161.494 185.785L126.636 191.615C127.19 197.407 122.785 204.717 124.855 209.896C124.985 210.21 125.135 210.515 125.305 210.808C137.503 204.519 162.997 191.437 164.056 191.366L161.494 185.785Z" fill="black"/>
<path d="M159.559 165.677L126.604 155.828C126.581 156.124 126.542 156.417 126.487 156.708C125.391 162.449 117.905 167.667 117.905 173.733C117.904 174.139 117.937 174.544 118.004 174.944H158.228L159.559 165.677Z" fill="black"/>
<path d="M124.959 137.305C137.281 144.143 161.358 157.965 161.358 157.965L167.284 146.312L139.444 124.625C139.331 124.855 139.208 125.078 139.074 125.295C135.95 130.104 127.356 131.992 124.959 137.305Z" fill="black"/>
</g>
<path d="M300.371 173.733C300.371 173.733 300.371 173.6 300.334 173.332C300.314 172.932 300.258 172.535 300.167 172.145C299.814 170.614 299.187 169.165 298.319 167.872C297.26 166.105 295.658 164.14 294.007 161.646C293.075 160.318 292.361 158.839 291.893 157.271C291.492 155.444 291.492 153.548 291.893 151.721C292.232 149.808 292.793 147.773 293.286 145.649C293.779 143.525 294.222 141.229 293.766 138.875C293.512 137.689 292.988 136.583 292.238 135.648C291.433 134.68 290.512 133.822 289.497 133.096C287.452 131.597 285.104 130.392 282.856 128.829C281.689 128.052 280.63 127.114 279.707 126.041C278.802 124.885 278.147 123.541 277.785 122.1C276.99 119.197 276.818 116.091 276.214 112.991C275.949 111.427 275.437 109.918 274.699 108.526C273.885 107.115 272.653 106.012 271.187 105.382C269.676 104.753 268.095 104.324 266.48 104.106C264.841 103.832 263.172 103.634 261.49 103.321C259.772 103.071 258.107 102.528 256.561 101.714C255.027 100.758 253.726 99.448 252.76 97.8868C251.737 96.3624 250.856 94.7295 249.926 93.1221C249.023 91.4727 247.949 89.9306 246.722 88.5232C245.45 87.1097 243.72 86.2309 241.861 86.0547C239.961 85.9869 238.063 86.2192 236.23 86.7436C234.382 87.2092 232.478 87.7769 230.538 88.1532C228.576 88.6286 226.53 88.5892 224.586 88.0384C222.694 87.2651 220.923 86.2054 219.331 84.8938C217.692 83.6181 216.091 82.3105 214.335 81.207C212.579 80.1036 210.589 79.2488 208.513 79.4912H208.131L207.749 79.5805C207.496 79.6379 207.244 79.689 206.991 79.7591C206.495 79.9258 206.01 80.1239 205.537 80.3523C204.572 80.8213 203.646 81.374 202.771 82.0044C201.015 83.2418 199.364 84.6642 197.565 85.9271C196.669 86.577 195.721 87.1467 194.731 87.6302C193.716 88.0994 192.63 88.3822 191.521 88.4658C189.296 88.4815 187.08 88.1548 184.948 87.4962C182.808 86.8553 180.625 86.382 178.417 86.0802C177.31 85.9678 176.192 86.0454 175.109 86.3098C174.033 86.6185 173.042 87.1819 172.213 87.9555C170.513 89.4927 169.324 91.5593 168.141 93.5877C167.039 95.709 165.748 97.7185 164.284 99.5899C163.504 100.52 162.564 101.292 161.512 101.867C160.438 102.396 159.309 102.796 158.148 103.06C155.831 103.583 153.466 103.812 151.137 104.246C148.808 104.68 146.43 105.356 144.723 107.072C143.908 107.97 143.279 109.031 142.875 110.191C142.469 111.363 142.168 112.572 141.976 113.801C141.545 116.257 141.36 118.789 140.744 121.27C140.485 122.528 140.044 123.739 139.437 124.861C138.798 125.978 137.962 126.96 136.973 127.757C135.026 129.377 132.808 130.577 130.695 131.916C129.623 132.576 128.594 133.309 127.615 134.11C126.654 134.911 125.843 135.888 125.224 136.993C124.639 138.122 124.345 139.387 124.368 140.667C124.388 141.955 124.532 143.237 124.799 144.494C125.323 147.046 126.105 149.553 126.518 152.149C126.755 153.465 126.799 154.811 126.648 156.142C126.449 157.474 126.013 158.757 125.36 159.924C124.079 162.252 122.403 164.3 120.918 166.468C120.171 167.554 119.524 168.709 118.984 169.919C118.408 171.109 118.09 172.416 118.053 173.746C118.09 175.075 118.403 176.381 118.971 177.573C119.532 178.768 120.196 179.908 120.955 180.979C122.44 183.148 124.116 185.189 125.403 187.524C126.058 188.688 126.497 189.969 126.697 191.3C126.856 192.629 126.816 193.976 126.58 195.293C126.167 197.921 125.378 200.434 124.861 202.979C124.592 204.236 124.445 205.518 124.424 206.806C124.398 208.088 124.691 209.355 125.274 210.486C125.897 211.583 126.709 212.552 127.67 213.344C128.649 214.143 129.678 214.874 130.751 215.532C132.864 216.878 135.063 218.083 137.029 219.697C138.017 220.493 138.853 221.473 139.493 222.586C140.098 223.71 140.54 224.92 140.805 226.177C141.384 228.665 141.581 231.191 142.037 233.653C142.227 234.881 142.528 236.088 142.937 237.257C143.339 238.419 143.968 239.483 144.785 240.382C146.492 242.098 148.894 242.774 151.199 243.214C153.503 243.655 155.893 243.852 158.21 244.401C159.371 244.663 160.499 245.061 161.573 245.587C162.625 246.163 163.565 246.935 164.346 247.864C165.813 249.737 167.107 251.749 168.209 253.873C169.391 255.901 170.581 257.968 172.281 259.505C173.11 260.279 174.101 260.842 175.176 261.151C176.26 261.415 177.377 261.493 178.485 261.38C180.693 261.079 182.876 260.605 185.015 259.964C187.148 259.306 189.363 258.979 191.589 258.995C192.686 259.087 193.759 259.374 194.762 259.843C195.751 260.328 196.699 260.897 197.596 261.546C199.395 262.822 201.052 264.232 202.802 265.469C203.668 266.093 204.583 266.642 205.537 267.108C206.009 267.338 206.495 267.536 206.991 267.702C207.237 267.772 207.496 267.823 207.749 267.88C207.872 267.912 208.001 267.944 208.125 267.963L208.513 267.995C210.589 268.237 212.579 267.357 214.329 266.273C216.078 265.188 217.692 263.836 219.331 262.586C220.922 261.274 222.693 260.216 224.586 259.448C226.53 258.894 228.576 258.854 230.538 259.333C232.478 259.709 234.357 260.277 236.23 260.743C238.062 261.268 239.962 261.498 241.861 261.425C243.718 261.25 245.447 260.371 246.716 258.957C247.947 257.552 249.021 256.01 249.92 254.358C250.856 252.744 251.737 251.111 252.76 249.593C253.724 248.03 255.025 246.72 256.561 245.766C258.108 244.955 259.773 244.412 261.49 244.158C263.172 243.852 264.841 243.655 266.48 243.374C268.095 243.155 269.676 242.727 271.187 242.098C272.652 241.463 273.883 240.359 274.699 238.947C275.441 237.544 275.951 236.022 276.208 234.444C276.824 231.344 276.984 228.244 277.779 225.342C278.144 223.901 278.801 222.557 279.707 221.4C280.627 220.326 281.686 219.39 282.856 218.619C285.104 217.05 287.452 215.844 289.497 214.345C290.51 213.631 291.429 212.784 292.232 211.826C292.98 210.889 293.506 209.784 293.766 208.598C293.975 207.452 294.006 206.279 293.859 205.122C293.727 204.012 293.531 202.911 293.274 201.824C292.787 199.7 292.226 197.698 291.887 195.758C291.483 193.93 291.483 192.031 291.887 190.203C292.354 188.635 293.068 187.159 294 185.834C295.676 183.333 297.278 181.369 298.313 179.608C299.18 178.314 299.806 176.865 300.161 175.335C300.251 174.945 300.307 174.548 300.328 174.148C300.328 173.88 300.365 173.74 300.365 173.74C300.365 173.74 300.365 173.88 300.365 174.148C300.359 174.55 300.311 174.95 300.223 175.341C299.87 176.882 299.244 178.342 298.375 179.646C297.321 181.413 295.726 183.391 294.062 185.885C293.142 187.207 292.437 188.677 291.974 190.235C291.576 192.044 291.576 193.923 291.974 195.733C292.312 197.646 292.879 199.668 293.372 201.793C293.644 202.882 293.849 203.987 293.988 205.103C294.144 206.276 294.115 207.467 293.902 208.63C293.639 209.842 293.108 210.973 292.349 211.934C291.535 212.902 290.605 213.759 289.583 214.486C287.525 216.004 285.172 217.209 282.942 218.772C281.8 219.541 280.764 220.465 279.861 221.521C278.975 222.661 278.333 223.983 277.976 225.399C277.194 228.27 277.021 231.37 276.424 234.489C276.16 236.091 275.642 237.636 274.89 239.062C274.054 240.511 272.793 241.646 271.292 242.302C269.764 242.948 268.164 243.393 266.529 243.629C264.884 243.91 263.215 244.107 261.545 244.42C259.85 244.665 258.205 245.2 256.678 246.002C255.188 246.941 253.924 248.219 252.982 249.74C251.971 251.245 251.096 252.878 250.16 254.492C249.253 256.162 248.168 257.722 246.926 259.142C245.615 260.599 243.832 261.507 241.917 261.693C239.988 261.771 238.06 261.541 236.2 261.01C234.321 260.545 232.448 259.977 230.519 259.607C228.602 259.142 226.603 259.179 224.703 259.716C222.836 260.476 221.089 261.523 219.522 262.822C217.89 264.066 216.282 265.405 214.501 266.521C214.054 266.803 213.593 267.06 213.121 267.293C212.887 267.402 212.653 267.529 212.406 267.631L211.661 267.906C210.65 268.262 209.576 268.393 208.513 268.288L208.118 268.256C207.983 268.256 207.854 268.199 207.724 268.174C207.465 268.11 207.201 268.059 206.942 267.982C206.433 267.815 205.935 267.614 205.451 267.383C204.484 266.908 203.557 266.351 202.678 265.718C200.904 264.442 199.253 263.045 197.466 261.795C196.583 261.158 195.649 260.599 194.676 260.124C193.701 259.672 192.659 259.396 191.595 259.307C189.4 259.299 187.217 259.626 185.114 260.277C182.958 260.924 180.759 261.401 178.534 261.706C177.394 261.819 176.243 261.739 175.127 261.47C174.008 261.144 172.975 260.557 172.108 259.754C170.359 258.172 169.164 256.086 167.974 254.052C166.881 251.947 165.6 249.953 164.149 248.094C163.362 247.183 162.42 246.431 161.37 245.874C160.315 245.364 159.21 244.975 158.074 244.713C155.788 244.197 153.423 243.973 151.075 243.533C149.887 243.329 148.72 243.011 147.588 242.583C146.418 242.188 145.355 241.51 144.488 240.605C143.621 239.7 142.976 238.593 142.604 237.378C142.19 236.19 141.885 234.964 141.692 233.717C141.255 231.236 141.076 228.71 140.46 226.26C140.206 225.031 139.774 223.848 139.179 222.752C138.553 221.674 137.741 220.725 136.782 219.952C134.866 218.364 132.661 217.171 130.535 215.819C129.462 215.15 128.433 214.409 127.455 213.599C126.461 212.772 125.625 211.759 124.99 210.614C124.381 209.438 124.074 208.121 124.097 206.787C124.118 205.469 124.267 204.157 124.541 202.87C125.07 200.319 125.847 197.768 126.259 195.216C126.486 193.933 126.525 192.621 126.377 191.325C126.186 190.035 125.769 188.792 125.144 187.658C123.912 185.368 122.206 183.333 120.715 181.145C119.94 180.059 119.266 178.899 118.7 177.682C118.073 176.469 117.746 175.115 117.746 173.74C117.746 172.365 118.073 171.011 118.7 169.798C119.268 168.586 119.942 167.431 120.715 166.347C122.212 164.159 123.881 162.118 125.144 159.828C125.775 158.7 126.193 157.457 126.377 156.167C126.526 154.869 126.485 153.555 126.253 152.27C125.841 149.687 125.064 147.167 124.534 144.616C124.26 143.329 124.113 142.017 124.097 140.699C124.073 139.365 124.383 138.046 124.997 136.872C125.634 135.731 126.469 134.721 127.461 133.893C128.441 133.086 129.469 132.344 130.541 131.674C132.667 130.328 134.854 129.122 136.782 127.54C137.744 126.772 138.557 125.822 139.179 124.74C139.771 123.643 140.203 122.461 140.46 121.232C141.027 118.783 141.23 116.257 141.692 113.782C141.886 112.534 142.194 111.309 142.61 110.121C143.013 108.898 143.657 107.774 144.502 106.823C145.391 105.959 146.438 105.289 147.582 104.852C148.714 104.426 149.881 104.11 151.069 103.908C153.416 103.468 155.782 103.27 158.068 102.722C159.204 102.467 160.308 102.077 161.358 101.561C162.375 101.003 163.285 100.257 164.044 99.3602C165.5 97.5118 166.785 95.5257 167.882 93.4282C169.071 91.3935 170.266 89.3077 172.016 87.6876C172.883 86.886 173.915 86.3012 175.035 85.9782C176.15 85.7061 177.301 85.6264 178.442 85.7422C180.667 86.0467 182.866 86.5243 185.022 87.1709C187.124 87.8232 189.308 88.1478 191.503 88.1341C192.567 88.0503 193.609 87.7762 194.583 87.324C195.557 86.8484 196.49 86.2894 197.374 85.6529C199.154 84.3772 200.812 82.9803 202.58 81.7301C203.458 81.0991 204.386 80.5444 205.352 80.0717C205.835 79.8243 206.333 79.6112 206.843 79.4338C207.102 79.3573 207.367 79.3063 207.626 79.2425C207.755 79.2425 207.891 79.1787 208.02 79.1596H208.42C209.482 79.0523 210.554 79.1828 211.562 79.5423L212.308 79.8165C212.554 79.9186 212.788 80.0398 213.029 80.1546C213.509 80.3651 213.947 80.6649 214.409 80.92C216.183 82.0426 217.791 83.3757 219.424 84.6259C220.994 85.9199 222.739 86.9666 224.605 87.7322C226.505 88.2685 228.504 88.3057 230.421 87.8407C232.349 87.4707 234.222 86.903 236.101 86.4374C237.972 85.9098 239.911 85.686 241.849 85.774C243.765 85.9562 245.549 86.8648 246.858 88.3254C248.102 89.7437 249.187 91.3037 250.092 92.9754C251.029 94.5891 251.91 96.2156 252.92 97.7273C253.858 99.2508 255.123 100.53 256.617 101.465C258.144 102.266 259.788 102.803 261.484 103.053C263.153 103.366 264.823 103.564 266.468 103.844C268.103 104.077 269.703 104.523 271.23 105.171C272.742 105.82 274.013 106.956 274.853 108.411C275.607 109.837 276.128 111.382 276.393 112.985C277.009 116.104 277.163 119.204 277.945 122.074C278.298 123.492 278.941 124.814 279.831 125.952C280.731 127.01 281.768 127.935 282.911 128.701C285.147 130.264 287.495 131.476 289.552 132.988C290.575 133.713 291.505 134.57 292.319 135.539C293.082 136.495 293.617 137.626 293.877 138.837C294.09 140 294.119 141.191 293.964 142.364C293.822 143.479 293.616 144.585 293.347 145.675C292.848 147.805 292.288 149.801 291.943 151.734C291.545 153.546 291.545 155.427 291.943 157.239C292.406 158.795 293.112 160.262 294.031 161.582C295.689 164.076 297.29 166.047 298.344 167.827C299.214 169.13 299.841 170.591 300.192 172.132C300.28 172.524 300.328 172.924 300.334 173.325C300.365 173.6 300.371 173.733 300.371 173.733Z" fill="#263238"/>
<path d="M192.027 261.395C192.113 261.395 189.839 270.962 186.944 282.712C184.048 294.461 181.639 303.971 181.553 303.946C181.467 303.92 183.746 294.378 186.636 282.629C189.525 270.879 191.94 261.369 192.027 261.395Z" fill="#263238"/>
<path d="M209.135 231.638C240.023 231.638 265.063 205.714 265.063 173.734C265.063 141.755 240.023 115.83 209.135 115.83C178.246 115.83 153.207 141.755 153.207 173.734C153.207 205.714 178.246 231.638 209.135 231.638Z" fill="white"/>
<path d="M174.702 153.677C173.932 154.474 169.687 162.46 169.305 169.042C168.923 175.625 169.829 212.62 169.829 212.62L169.995 215.07C180.062 227.265 216.657 245.399 249.618 215.012L251.466 192.26L246.026 144.096L227.137 139.306L222.707 131.875L193.178 139.025L190.547 145.474L174.702 153.677Z" fill="#182D64"/>
<path d="M220.637 112.5C221.937 107.499 223.219 102.46 223.668 97.2997C224.118 92.1395 223.699 86.8071 221.715 82.0487C221.42 81.328 218.925 76.5122 218.173 76.627C217.637 76.7163 219.251 81.2451 219.005 81.7298C216.633 86.4882 216.202 92.0885 216.885 97.4018C217.59 102.563 218.849 107.627 220.637 112.5Z" fill="#263238"/>
<path d="M220.169 92.7343C219.929 79.7413 212.425 69.0573 199.888 69.6632L198.735 69.7844C193.132 70.3947 187.955 73.1657 184.234 77.5465C180.512 81.9273 178.52 87.5973 178.651 93.4295C178.916 104.694 179.353 117.132 180.031 123.115C181.442 135.528 193.622 136.165 193.622 136.165L194.176 144.304L199.321 150.096L223.169 134.788L220.169 92.7343Z" fill="#FFBF9D"/>
<path d="M193.622 136.242C193.622 136.242 201.218 135.872 208.728 129.762C208.728 129.762 206.215 140.994 194.146 141.186L193.622 136.242Z" fill="#FF9A6C"/>
<path d="M185.52 103.558C185.562 104.023 185.78 104.453 186.126 104.754C186.472 105.055 186.918 105.202 187.368 105.165C187.588 105.16 187.805 105.108 188.005 105.015C188.205 104.921 188.386 104.786 188.535 104.619C188.684 104.452 188.8 104.256 188.874 104.042C188.949 103.828 188.982 103.6 188.97 103.373C188.928 102.907 188.71 102.478 188.364 102.177C188.018 101.876 187.572 101.728 187.122 101.765C186.902 101.772 186.686 101.824 186.486 101.918C186.286 102.012 186.106 102.146 185.957 102.313C185.808 102.48 185.693 102.676 185.618 102.89C185.542 103.104 185.509 103.331 185.52 103.558Z" fill="#263238"/>
<path d="M181.732 98.3285C181.972 98.5326 183.167 97.3972 185.003 97.2059C186.839 97.0145 188.293 97.8437 188.466 97.5567C188.558 97.4419 188.299 97.0528 187.665 96.6701C186.81 96.1852 185.83 95.9868 184.862 96.1024C183.908 96.199 183.007 96.6028 182.286 97.2569C181.769 97.7927 181.621 98.2328 181.732 98.3285Z" fill="#263238"/>
<path d="M201.798 102.13C201.842 102.595 202.06 103.024 202.405 103.324C202.751 103.625 203.196 103.773 203.646 103.737C203.865 103.731 204.081 103.679 204.28 103.585C204.479 103.491 204.658 103.356 204.807 103.189C204.955 103.022 205.069 102.826 205.143 102.612C205.217 102.398 205.248 102.172 205.236 101.945C205.193 101.479 204.976 101.05 204.63 100.749C204.284 100.448 203.838 100.3 203.387 100.338C203.169 100.346 202.954 100.399 202.756 100.494C202.557 100.588 202.379 100.723 202.231 100.89C202.083 101.057 201.968 101.252 201.894 101.465C201.82 101.678 201.787 101.904 201.798 102.13Z" fill="#263238"/>
<path d="M199.845 97.1303C200.079 97.3408 201.274 96.2054 203.116 96.0076C204.958 95.8099 206.4 96.6455 206.579 96.3648C206.665 96.25 206.406 95.8546 205.772 95.4782C204.919 94.9909 203.942 94.7902 202.975 94.9042C202.016 95.0055 201.114 95.4211 200.399 96.0906C199.876 96.62 199.728 97.041 199.845 97.1303Z" fill="#263238"/>
<path d="M194.761 112.495C194.761 112.38 193.591 112.304 191.712 112.259C191.237 112.259 190.782 112.214 190.671 111.889C190.581 111.392 190.639 110.878 190.837 110.416C191.157 109.185 191.496 107.903 191.854 106.589C193.246 101.103 194.201 96.6126 193.985 96.5552C193.77 96.4978 192.47 100.899 191.077 106.385C190.745 107.737 190.424 109.025 190.122 110.263C189.893 110.876 189.876 111.552 190.073 112.176C190.158 112.342 190.278 112.486 190.424 112.596C190.57 112.707 190.739 112.781 190.917 112.814C191.186 112.861 191.459 112.872 191.73 112.846C193.579 112.718 194.761 112.604 194.761 112.495Z" fill="#263238"/>
<path d="M200.306 113.203C200.005 113.203 200.214 115.283 198.649 116.941C197.084 118.599 194.953 118.599 194.953 118.854C194.953 118.988 195.47 119.205 196.37 119.135C197.536 119.022 198.627 118.487 199.45 117.623C200.234 116.787 200.676 115.67 200.682 114.504C200.695 113.682 200.417 113.203 200.306 113.203Z" fill="#263238"/>
<path d="M199.155 89.387C199.389 89.8845 201.206 89.438 203.387 89.4699C205.568 89.5018 207.385 89.9228 207.626 89.4316C207.73 89.1956 207.379 88.7364 206.621 88.3154C205.619 87.7893 204.511 87.5181 203.387 87.5244C202.268 87.505 201.16 87.7654 200.159 88.2835C199.413 88.6981 199.074 89.151 199.155 89.387Z" fill="#263238"/>
<path d="M181.824 91.9043C182.193 92.3062 183.413 91.7194 184.935 91.528C186.457 91.3367 187.781 91.528 188.015 91.0305C188.12 90.7945 187.874 90.3926 187.27 90.0354C186.462 89.6267 185.555 89.4758 184.665 89.6019C183.774 89.7279 182.94 90.1253 182.267 90.7435C181.824 91.2474 181.682 91.713 181.824 91.9043Z" fill="#263238"/>
<path d="M220.126 102.022C220.317 101.907 228.098 98.6029 228.702 107.125C229.306 115.646 220.927 114.479 220.896 114.243C220.865 114.007 220.126 102.022 220.126 102.022Z" fill="#FFBF9D"/>
<path d="M223.175 110.83C223.212 110.83 223.329 110.926 223.576 111.022C223.927 111.148 224.311 111.127 224.648 110.964C225.498 110.569 226.126 109.089 226.059 107.552C226.026 106.821 225.836 106.106 225.504 105.46C225.407 105.198 225.249 104.965 225.045 104.781C224.841 104.596 224.597 104.466 224.334 104.401C224.166 104.37 223.993 104.4 223.845 104.486C223.697 104.572 223.582 104.709 223.52 104.873C223.428 105.122 223.489 105.288 223.446 105.3C223.403 105.313 223.262 105.173 223.305 104.816C223.334 104.602 223.434 104.406 223.588 104.261C223.802 104.067 224.081 103.969 224.364 103.986C224.707 104.028 225.034 104.161 225.312 104.373C225.591 104.584 225.812 104.866 225.954 105.192C226.358 105.899 226.586 106.699 226.619 107.52C226.687 109.242 225.954 110.907 224.771 111.347C224.555 111.43 224.324 111.462 224.095 111.44C223.865 111.418 223.644 111.342 223.446 111.22C223.206 111.035 223.151 110.85 223.175 110.83Z" fill="#FF9A6C"/>
<path d="M183.093 79.0024C181.713 78.3327 185.428 73.6062 188.607 71.8521C193.4 69.1923 200.861 67.2787 205.5 68.3057C211.082 69.5495 215.819 72.069 218.894 77.057C221.968 82.045 223.379 87.9961 223.582 93.909C223.65 95.7141 223.582 97.6021 222.75 99.184C221.721 101.142 219.59 102.475 219.849 105.065C219.907 105.533 219.876 106.008 219.757 106.464C219.637 106.919 219.432 107.345 219.152 107.718C217.754 109.479 215.819 108.044 214.84 106.538C212.831 103.349 212.376 99.3562 211.981 95.5482C211.704 92.8437 211.421 90.0755 211.981 87.422C212.295 85.9741 212.856 84.59 213.096 83.1293C213.337 81.6686 213.189 80.0357 212.246 78.9195C212.029 78.6853 211.792 78.4719 211.538 78.2816C210.324 77.3227 208.885 76.7147 207.37 76.5197C205.855 76.3247 204.316 76.5497 202.912 77.1718C198.39 79.181 190.64 82.2363 188.478 80.7501C185.36 78.6069 184.553 77.1271 184.553 77.1271L183.093 79.0024Z" fill="#263238"/>
<path d="M174.702 153.676C174.222 154.358 167.488 156.674 164.937 161.081C162.387 165.489 159.854 185.281 159.854 185.281L158.228 198.312C161.432 203.556 165.726 210.502 170.285 215.4L174.702 153.676Z" fill="#182D64"/>
<g opacity="0.3">
<path d="M225.295 172.78C225.478 175.447 225.966 178.083 226.749 180.631C227.637 183.138 229.183 185.498 231.438 186.787C232.387 187.329 233.452 187.686 234.241 188.452C235.03 189.217 235.522 190.454 236.293 191.354C237.254 192.345 238.444 193.067 239.749 193.452C243.418 194.85 247.313 195.499 251.22 195.366C251.337 194.001 251.35 188.987 251.467 187.622L225.295 172.78Z" fill="black"/>
</g>
<path d="M246.026 144.094C246.026 144.094 254.522 146.696 256.986 150.44C259.451 154.185 263.887 168.696 264.792 171.387C265.698 174.079 264.903 180.317 263.209 184.782C261.515 189.247 258.57 193.132 253.481 193.712C248.392 194.293 240.364 191.256 238.559 189.247C236.754 187.238 236.04 182.843 236.04 182.843C238.299 182.431 240.527 181.852 242.706 181.108" fill="#182D64"/>
<path d="M242.681 181.111L242.576 181.162L242.256 181.283C241.972 181.379 241.547 181.525 240.986 181.704C239.367 182.206 237.721 182.615 236.058 182.929L236.132 182.827C236.337 183.924 236.625 185.003 236.994 186.054C237.201 186.647 237.446 187.224 237.727 187.783C238.021 188.376 238.406 188.917 238.867 189.384C239.391 189.847 239.968 190.241 240.586 190.557C241.202 190.908 241.886 191.195 242.582 191.508C244.049 192.116 245.559 192.609 247.098 192.981C248.756 193.405 250.455 193.631 252.162 193.657C252.606 193.657 253.043 193.619 253.487 193.593C253.932 193.539 254.375 193.458 254.811 193.351C255.706 193.141 256.565 192.795 257.362 192.324C259.019 191.332 260.41 189.926 261.41 188.236C262.468 186.48 263.279 184.577 263.818 182.584C264.252 181.05 264.579 179.485 264.798 177.902C265.027 176.373 265.102 174.823 265.02 173.278C264.966 172.534 264.817 171.8 264.576 171.097C264.348 170.382 264.12 169.674 263.899 168.972C263.443 167.576 263.005 166.204 262.574 164.871C261.699 162.205 260.837 159.679 259.968 157.344C259.213 155.163 258.301 153.044 257.239 151.004C256.748 150.141 256.097 149.386 255.323 148.785C254.642 148.225 253.919 147.724 253.16 147.286C251.946 146.569 250.691 145.93 249.402 145.372C248.336 144.913 247.498 144.6 246.938 144.39L246.285 144.154L246.063 144.064C246.143 144.074 246.221 144.094 246.297 144.122L246.956 144.326C247.535 144.517 248.379 144.811 249.421 145.251C250.727 145.779 251.999 146.395 253.228 147.094C253.998 147.531 254.734 148.03 255.427 148.587C256.226 149.199 256.9 149.969 257.411 150.851C258.491 152.903 259.422 155.035 260.196 157.23C261.071 159.571 261.946 162.09 262.827 164.756L264.163 168.858C264.385 169.559 264.613 170.267 264.847 170.975C265.101 171.704 265.255 172.466 265.303 173.24C265.391 174.81 265.318 176.386 265.088 177.941C264.87 179.537 264.539 181.115 264.096 182.661C263.545 184.687 262.715 186.62 261.631 188.401C260.599 190.133 259.168 191.573 257.467 192.592C256.645 193.076 255.758 193.431 254.836 193.645C254.387 193.752 253.932 193.835 253.474 193.893C253.012 193.893 252.563 193.976 252.113 193.951C250.382 193.92 248.661 193.687 246.981 193.255C245.433 192.869 243.915 192.361 242.44 191.737C241.751 191.451 241.076 191.128 240.42 190.768C239.787 190.437 239.198 190.025 238.664 189.543C238.187 189.055 237.79 188.491 237.487 187.872C237.202 187.305 236.959 186.717 236.76 186.111C236.392 185.049 236.11 183.956 235.916 182.846V182.763H236.002C237.673 182.468 239.328 182.087 240.962 181.621L242.243 181.245L242.57 181.143L242.681 181.111Z" fill="#263238"/>
<path d="M258.255 176.415C258.194 176.415 258.003 175.331 257.288 173.711C256.362 171.602 255.062 169.692 253.456 168.079C252.573 167.2 251.57 166.461 250.48 165.884L249.729 165.54C249.49 165.441 249.245 165.358 248.995 165.291C248.552 165.147 248.096 165.049 247.634 164.998L247.326 164.947H246.513C246.221 164.936 245.929 164.961 245.644 165.023C245.399 165.079 245.149 165.105 244.898 165.1C245.132 165.003 245.376 164.934 245.625 164.896C245.91 164.811 246.204 164.766 246.5 164.762H247.055H247.363C247.468 164.768 247.573 164.781 247.677 164.8C248.155 164.831 248.628 164.916 249.088 165.055C249.346 165.122 249.601 165.203 249.852 165.298L250.634 165.642C251.765 166.215 252.805 166.966 253.715 167.868C255.353 169.506 256.653 171.472 257.534 173.647C257.689 174.019 257.822 174.401 257.935 174.789C258.035 175.078 258.115 175.374 258.175 175.675C258.23 175.918 258.257 176.166 258.255 176.415Z" fill="#263238"/>
<path d="M262.888 168.524C262.547 167.591 262.12 166.694 261.613 165.845C260.333 163.829 258.42 162.333 256.198 161.61C253.592 160.787 251.059 161.042 249.297 161.214L247.184 161.476C246.927 161.528 246.664 161.55 246.402 161.54C246.65 161.451 246.906 161.387 247.166 161.348C247.659 161.246 248.398 161.112 249.267 160.978C251.604 160.558 254.002 160.665 256.296 161.291C257.549 161.684 258.712 162.335 259.715 163.204C260.535 163.918 261.24 164.762 261.804 165.705C262.182 166.335 262.486 167.009 262.71 167.714C262.808 167.973 262.869 168.246 262.888 168.524Z" fill="#263238"/>
<path d="M256.487 159.092C254.826 158.748 253.136 158.579 251.442 158.588C249.75 158.714 248.076 159.02 246.445 159.5C246.875 159.215 247.345 159 247.838 158.862C249.003 158.491 250.211 158.276 251.429 158.225C252.648 158.174 253.868 158.289 255.058 158.569C255.558 158.664 256.041 158.84 256.487 159.092Z" fill="#263238"/>
<path d="M242.748 146.289C242.798 146.289 242.681 147.188 242.576 148.624C242.449 150.499 242.466 152.383 242.625 154.256C242.78 156.067 243.07 157.862 243.494 159.627L243.272 159.703C243.019 158.963 242.822 158.364 242.687 157.949C242.603 157.746 242.547 157.531 242.52 157.311C242.644 157.509 242.741 157.724 242.81 157.949C242.976 158.351 243.21 158.938 243.488 159.658L243.266 159.735C242.281 156.134 241.971 152.371 242.354 148.649C242.428 147.928 242.52 147.373 242.594 146.946C242.618 146.721 242.67 146.5 242.748 146.289Z" fill="#263238"/>
<path d="M230.747 129.922C230.747 129.922 226.336 129.922 225.788 135.407C225.363 139.617 225.788 143.699 225.788 145.549C225.788 147.399 224.999 153.943 224.999 153.943C224.999 153.943 221.993 156.705 222.048 160.022C222.104 163.339 224.389 164.379 224.389 164.379C224.003 165.405 223.917 166.526 224.143 167.603C224.369 168.68 224.896 169.663 225.658 170.432C225.658 170.432 224.377 173.493 225.43 175.535C226.031 176.553 226.971 177.309 228.073 177.659C227.894 178.062 227.799 178.5 227.797 178.944C227.794 179.388 227.884 179.828 228.059 180.233C228.234 180.639 228.491 181 228.812 181.295C229.133 181.589 229.512 181.808 229.922 181.939C231.405 182.41 232.956 182.606 234.505 182.519L237.795 182.455L240.691 184.107C240.691 184.107 245.65 181.875 245.78 178.845L245.903 175.815C245.903 175.815 244.504 170.808 244.381 169.233C244.258 167.657 245.527 163.83 244.763 162.121C243.999 160.411 241.325 159.403 241.584 157.018C241.843 154.632 241.325 153.312 240.179 151.991C239.034 150.671 233.975 148.043 233.975 148.043C233.975 148.043 232.676 144.216 232.676 141.588C232.676 138.96 235.195 130.93 230.747 129.922Z" fill="#FFBF9D"/>
<path d="M233.717 149.043C233.337 149.364 232.924 149.639 232.485 149.866C231.708 150.331 230.636 150.963 229.404 151.639C228.172 152.315 227.106 152.915 226.324 153.329C225.906 153.595 225.459 153.81 224.993 153.967C225.374 153.65 225.787 153.376 226.225 153.151C226.995 152.679 228.074 152.054 229.306 151.378C230.538 150.701 231.604 150.102 232.386 149.687C232.807 149.425 233.253 149.209 233.717 149.043Z" fill="#FF9A6C"/>
<path d="M236.606 159.357C236.606 159.357 236.483 159.498 236.224 159.715C235.966 159.931 235.571 160.212 235.078 160.55C232.457 162.28 229.522 163.439 226.453 163.956C225.837 164.052 225.394 164.109 225.061 164.129C224.889 164.153 224.715 164.153 224.543 164.129C224.543 164.078 225.264 163.975 226.392 163.727C227.889 163.402 229.36 162.956 230.791 162.394C232.215 161.826 233.593 161.141 234.912 160.346C235.46 159.987 236.026 159.657 236.606 159.357Z" fill="#FF9A6C"/>
<path d="M240.389 156.079C240.469 156.079 240.309 156.717 239.773 157.183C239.237 157.648 238.676 157.821 238.651 157.706C238.627 157.591 239.095 157.374 239.557 156.934C240.019 156.494 240.309 156.035 240.389 156.079Z" fill="#FF9A6C"/>
<path d="M238.578 168.393C237.986 168.689 237.367 168.922 236.729 169.088C235.215 169.56 233.671 169.926 232.109 170.185C230.548 170.448 228.971 170.602 227.39 170.644C226.734 170.697 226.075 170.675 225.424 170.58C226.071 170.48 226.723 170.423 227.377 170.408C228.579 170.325 230.242 170.159 232.053 169.86C233.865 169.56 235.497 169.171 236.668 168.865C237.294 168.664 237.932 168.507 238.578 168.393Z" fill="#FF9A6C"/>
<path d="M242.601 167.629C242.698 167.298 242.811 166.973 242.94 166.654C243.187 165.875 243.269 165.05 243.18 164.236C243.08 163.422 242.813 162.639 242.398 161.94C242.199 161.664 242.016 161.376 241.85 161.079C241.85 161.047 242.201 161.283 242.583 161.812C243.085 162.511 243.402 163.333 243.501 164.198C243.6 165.065 243.481 165.944 243.156 166.749C243.044 167.086 242.853 167.388 242.601 167.629Z" fill="#FF9A6C"/>
<path d="M238.806 177.624C238.303 177.823 237.776 177.951 237.241 178.006C235.96 178.222 234.663 178.327 233.366 178.319C232.069 178.318 230.775 178.207 229.496 177.987C228.961 177.925 228.435 177.792 227.932 177.592C228.466 177.606 229 177.659 229.527 177.751C230.802 177.901 232.083 177.979 233.366 177.987C234.65 177.989 235.933 177.919 237.21 177.777C237.738 177.688 238.271 177.637 238.806 177.624Z" fill="#FF9A6C"/>
<path d="M230.982 141.669C230.982 141.707 230.785 141.88 230.366 142.026C229.823 142.217 229.246 142.281 228.677 142.211C228.107 142.142 227.56 141.941 227.076 141.624C226.712 141.376 226.54 141.159 226.564 141.127C227.243 141.482 227.967 141.735 228.714 141.88C229.476 141.919 230.239 141.848 230.982 141.669Z" fill="#FF9A6C"/>
<path d="M243.519 168.014C243.573 168.173 243.596 168.343 243.587 168.511C243.59 168.963 243.538 169.413 243.433 169.851C243.316 170.412 243.112 171.056 242.921 171.764C242.681 172.511 242.601 173.304 242.687 174.086C242.792 174.89 243.377 175.547 243.47 176.37C243.531 177.064 243.362 177.76 242.989 178.341C242.758 178.725 242.489 179.084 242.188 179.412C241.979 179.648 241.855 179.763 241.837 179.744C241.819 179.725 242.262 179.189 242.792 178.226C243.107 177.679 243.243 177.041 243.18 176.408C243.106 175.719 242.515 175.062 242.373 174.144C242.276 173.311 242.367 172.466 242.638 171.675C242.847 170.954 243.069 170.329 243.217 169.762C243.36 169.188 243.461 168.604 243.519 168.014Z" fill="#FF9A6C"/>
<path d="M245.176 172.025C245.268 172.213 245.336 172.413 245.379 172.619C245.49 173.014 245.638 173.588 245.779 174.303C245.947 175.143 246.046 175.996 246.075 176.854C246.129 177.927 245.937 178.998 245.514 179.979C245.035 180.924 244.394 181.772 243.623 182.48C243.008 183.058 242.353 183.589 241.664 184.068C241.079 184.483 240.592 184.789 240.247 184.986C240.076 185.105 239.889 185.197 239.692 185.261C239.692 185.216 240.407 184.738 241.541 183.877C242.2 183.377 242.83 182.836 243.426 182.256C244.155 181.562 244.765 180.744 245.231 179.839C245.631 178.902 245.82 177.884 245.785 176.86C245.771 176.016 245.697 175.174 245.564 174.341C245.33 172.912 245.12 172.032 245.176 172.025Z" fill="#263238"/>
<path d="M198.687 150.791C198.432 150.63 198.193 150.444 197.972 150.236L196.124 148.642L194.848 147.525C194.629 147.313 194.385 147.131 194.121 146.983C193.996 146.911 193.856 146.87 193.712 146.865C193.569 146.859 193.426 146.889 193.296 146.951C192.766 147.238 192.409 147.946 191.953 148.533L190.597 150.447L188.46 153.387L188.059 153.936L188.182 153.26C188.54 151.364 189.053 149.503 189.716 147.698C189.969 147.028 190.185 146.511 190.332 146.16C190.401 145.973 190.492 145.795 190.604 145.631C190.565 145.827 190.505 146.017 190.425 146.199C190.295 146.562 190.104 147.092 189.883 147.761C189.282 149.575 188.81 151.432 188.472 153.317L188.201 153.196L190.308 150.249L191.669 148.335L192.322 147.436C192.533 147.119 192.811 146.858 193.136 146.671C193.307 146.593 193.493 146.557 193.68 146.564C193.866 146.572 194.049 146.624 194.214 146.715C194.495 146.88 194.755 147.079 194.99 147.309L196.222 148.457L198.027 150.134C198.267 150.33 198.488 150.55 198.687 150.791Z" fill="#263238"/>
<path d="M224.703 145.396C224.703 145.396 224.623 145.486 224.463 145.62L223.736 146.206L221.019 148.324L211.957 155.232L211.815 155.334L211.722 155.187L211.501 154.824L206.954 147.386L207.12 147.444C205.369 148.164 203.679 149.034 202.068 150.046C201.452 150.416 201.04 150.716 200.732 150.92C200.582 151.037 200.421 151.137 200.251 151.22C200.383 151.083 200.528 150.959 200.682 150.85C200.972 150.62 201.409 150.295 201.982 149.912C203.572 148.838 205.257 147.923 207.016 147.182L207.12 147.138L207.182 147.233L211.772 154.664L211.994 155.028L211.766 154.983L220.89 148.152L223.662 146.124L224.42 145.588C224.507 145.513 224.602 145.449 224.703 145.396Z" fill="#263238"/>
<path d="M169.41 170.764C169.437 170.913 169.447 171.065 169.441 171.217C169.441 171.542 169.441 171.976 169.478 172.492C169.478 173.653 169.527 175.267 169.564 177.244C169.638 181.25 169.792 186.812 169.989 192.897C170.186 198.982 170.309 204.557 170.328 208.569C170.328 210.572 170.328 212.198 170.328 213.315C170.328 213.85 170.328 214.278 170.328 214.59C170.331 214.74 170.32 214.889 170.297 215.037C170.269 214.89 170.256 214.74 170.26 214.59C170.26 214.259 170.26 213.831 170.26 213.315C170.26 212.154 170.211 210.54 170.174 208.563C170.1 204.557 169.946 198.995 169.742 192.903C169.539 186.812 169.428 181.25 169.41 177.238C169.41 175.235 169.41 173.608 169.41 172.486C169.41 171.956 169.41 171.523 169.41 171.21C169.393 171.062 169.393 170.912 169.41 170.764Z" fill="#263238"/>
<path d="M198.889 228.382C198.881 228.32 198.881 228.258 198.889 228.197C198.889 228.056 198.852 227.878 198.828 227.654C198.785 227.157 198.717 226.462 198.631 225.569C198.464 223.757 198.267 221.104 198.07 217.883C197.873 214.661 197.7 210.764 197.596 206.459C197.491 202.153 197.485 197.427 197.596 192.458C197.706 187.489 197.928 182.763 198.212 178.47C198.495 174.177 198.828 170.312 199.167 167.072C199.505 163.831 199.783 161.222 200.054 159.417C200.171 158.531 200.269 157.835 200.337 157.338C200.368 157.121 200.399 156.942 200.417 156.802C200.426 156.739 200.44 156.677 200.46 156.617C200.46 156.617 200.46 156.681 200.46 156.809C200.46 156.936 200.46 157.127 200.405 157.351C200.356 157.848 200.275 158.543 200.183 159.43C199.974 161.235 199.703 163.857 199.394 167.084C199.086 170.312 198.778 174.184 198.513 178.476C198.249 182.769 198.051 187.489 197.941 192.452C197.83 197.414 197.854 202.141 197.941 206.44C198.027 210.739 198.168 214.61 198.341 217.857C198.513 221.104 198.674 223.732 198.809 225.55C198.865 226.436 198.908 227.138 198.945 227.642C198.945 227.865 198.945 228.044 198.945 228.184C198.936 228.252 198.917 228.319 198.889 228.382Z" fill="#263238"/>
<path d="M180.53 123.97C180.53 123.97 180.315 124.13 179.884 124.423L177.955 125.699C177.111 126.273 176.107 127.076 174.936 127.976C174.351 128.435 173.76 128.99 173.088 129.545L172.096 130.425C171.757 130.731 171.431 131.063 171.08 131.414C167.668 134.698 164.674 138.419 162.171 142.487C161.808 143.086 161.444 143.699 161.075 144.318C160.705 144.936 160.385 145.593 160.033 146.231C159.682 146.869 159.319 147.558 159.005 148.259C158.69 148.961 158.388 149.682 158.056 150.403C157.902 150.773 157.723 151.13 157.581 151.506C157.44 151.882 157.304 152.265 157.162 152.648C156.885 153.42 156.583 154.191 156.312 154.989C155.856 156.602 155.283 158.235 154.938 159.97C153.189 167.521 152.904 175.357 154.1 183.022C155.654 192.866 159.643 202.126 165.68 209.899C171.718 217.672 179.597 223.693 188.55 227.376C197.503 231.06 207.225 232.279 216.769 230.915C226.312 229.552 235.352 225.652 243.007 219.597C244.942 218.056 246.783 216.394 248.521 214.621C248.94 214.168 249.353 213.716 249.754 213.269C250.154 212.823 250.579 212.363 250.986 211.891L252.162 210.488L253.259 209.04C258.833 201.615 262.555 192.883 264.096 183.615C264.457 181.46 264.702 179.286 264.829 177.103C264.897 176.031 264.897 174.96 264.928 173.914C264.959 172.868 264.854 171.802 264.817 170.763L264.761 169.206C264.731 168.69 264.651 168.186 264.595 167.676L264.244 164.652C264.09 163.663 263.868 162.694 263.689 161.724C263.536 160.763 263.331 159.811 263.073 158.873L262.303 156.111C262.185 155.657 262.041 155.209 261.872 154.772L261.391 153.496C261.065 152.635 260.775 151.755 260.43 150.945L259.328 148.508C256.645 142.727 253.042 137.455 248.669 132.913C245.366 129.51 241.678 126.533 237.685 124.047L235.337 122.65C234.983 122.433 234.617 122.237 234.241 122.063L233.206 121.553L231.357 120.641C230.803 120.354 230.261 120.188 229.792 120.003L227.655 119.142C227.168 118.95 226.928 118.842 226.928 118.842C226.928 118.842 227.174 118.925 227.661 119.11L229.817 119.939C230.285 120.137 230.834 120.296 231.394 120.577L233.243 121.476L234.284 121.98C234.662 122.151 235.03 122.344 235.387 122.56L237.752 123.951C241.768 126.422 245.477 129.391 248.799 132.792C253.183 137.325 256.8 142.588 259.5 148.361L260.615 150.804C260.985 151.634 261.231 152.514 261.589 153.356C261.743 153.796 261.903 154.23 262.063 154.67C262.236 155.109 262.384 155.559 262.507 156.016L263.277 158.784C263.545 159.725 263.763 160.682 263.93 161.648C264.115 162.624 264.336 163.6 264.49 164.595C264.644 165.59 264.731 166.61 264.848 167.631C264.903 168.141 264.983 168.651 265.014 169.168C265.045 169.685 265.057 170.208 265.076 170.731C265.113 171.777 265.174 172.829 265.193 173.92C265.211 175.011 265.162 176.057 265.1 177.109C264.977 179.307 264.736 181.496 264.379 183.666C263.636 188.192 262.368 192.608 260.603 196.819C258.75 201.249 256.367 205.421 253.512 209.238L252.403 210.692L251.226 212.102C250.838 212.58 250.431 213.039 249.994 213.486L248.762 214.845C247.016 216.632 245.164 218.304 243.217 219.852C235.521 225.944 226.431 229.868 216.834 231.24C207.236 232.612 197.46 231.385 188.456 227.681C179.453 223.976 171.531 217.918 165.463 210.099C159.394 202.281 155.386 192.967 153.829 183.067C152.645 175.381 152.947 167.528 154.717 159.964C155.068 158.216 155.647 156.583 156.109 154.957C156.386 154.16 156.682 153.388 156.965 152.616L157.39 151.468C157.532 151.091 157.711 150.728 157.871 150.364L158.826 148.215C159.146 147.507 159.522 146.85 159.861 146.18C160.2 145.51 160.526 144.847 160.914 144.266C161.303 143.686 161.654 143.042 162.017 142.442C164.544 138.372 167.56 134.651 170.993 131.369C171.345 131.031 171.677 130.693 172.016 130.387L173.033 129.513C173.692 128.952 174.265 128.403 174.881 127.95C176.113 127.057 177.068 126.26 177.918 125.699L179.865 124.423L180.53 123.97Z" fill="#263238"/>
</svg>
